<svg xmlns="http://www.w3.org/2000/svg" xmlns:xlink="http://www.w3.org/1999/xlink" width="764" height="686" viewBox="0 0 764 686">
  <defs>
    <filter id="Line_1" x="618" y="641" width="131" height="45" filterUnits="userSpaceOnUse">
      <feOffset dx="10" dy="10" input="SourceAlpha"/>
      <feGaussianBlur stdDeviation="5" result="blur"/>
      <feFlood flood-opacity="0.675"/>
      <feComposite operator="in" in2="blur"/>
      <feComposite in="SourceGraphic"/>
    </filter>
    <filter id="Line_2" x="0" y="101" width="45" height="142" filterUnits="userSpaceOnUse">
      <feOffset dx="10" dy="10" input="SourceAlpha"/>
      <feGaussianBlur stdDeviation="5" result="blur-2"/>
      <feFlood flood-opacity="0.675"/>
      <feComposite operator="in" in2="blur-2"/>
      <feComposite in="SourceGraphic"/>
    </filter>
    <filter id="Line_3" x="15" y="101" width="131" height="45" filterUnits="userSpaceOnUse">
      <feOffset dx="10" dy="10" input="SourceAlpha"/>
      <feGaussianBlur stdDeviation="5" result="blur-3"/>
      <feFlood flood-opacity="0.675"/>
      <feComposite operator="in" in2="blur-3"/>
      <feComposite in="SourceGraphic"/>
    </filter>
    <filter id="Line_4" x="719" y="544" width="45" height="142" filterUnits="userSpaceOnUse">
      <feOffset dx="10" dy="10" input="SourceAlpha"/>
      <feGaussianBlur stdDeviation="5" result="blur-4"/>
      <feFlood flood-opacity="0.675"/>
      <feComposite operator="in" in2="blur-4"/>
      <feComposite in="SourceGraphic"/>
    </filter>
    <filter id="Rectangle_1" x="42" y="138" width="685" height="518" filterUnits="userSpaceOnUse">
      <feOffset dx="10" dy="10" input="SourceAlpha"/>
      <feGaussianBlur stdDeviation="5" result="blur-5"/>
      <feFlood flood-opacity="0.518"/>
      <feComposite operator="in" in2="blur-5"/>
      <feComposite in="SourceGraphic"/>
    </filter>
  </defs>
  <g id="Group_2" data-name="Group 2" transform="translate(-228 -135)">
    <g id="Group_1" data-name="Group 1">
      <g transform="matrix(1, 0, 0, 1, 228, 135)" filter="url(#Line_1)">
        <line id="Line_1-2" data-name="Line 1" x2="101" transform="translate(623 653.5)" fill="none" stroke="#64ffda" stroke-width="15" opacity="0.85"/>
      </g>
      <g transform="matrix(1, 0, 0, 1, 228, 135)" filter="url(#Line_2)">
        <line id="Line_2-2" data-name="Line 2" y1="112" transform="translate(12.5 106)" fill="none" stroke="#64ffda" stroke-width="15" opacity="0.85"/>
      </g>
      <g transform="matrix(1, 0, 0, 1, 228, 135)" filter="url(#Line_3)">
        <line id="Line_3-2" data-name="Line 3" x1="101" transform="translate(20 113.5)" fill="none" stroke="#64ffda" stroke-width="15" opacity="0.85"/>
      </g>
      <g transform="matrix(1, 0, 0, 1, 228, 135)" filter="url(#Line_4)">
        <line id="Line_4-2" data-name="Line 4" y2="112" transform="translate(731.5 549)" fill="none" stroke="#64ffda" stroke-width="15" opacity="0.85"/>
      </g>
      <g transform="matrix(1, 0, 0, 1, 228, 135)" filter="url(#Rectangle_1)">
        <path id="Rectangle_1-2" data-name="Rectangle 1" d="M0,0H588a67,67,0,0,1,67,67V488a0,0,0,0,1,0,0H67A67,67,0,0,1,0,421V0A0,0,0,0,1,0,0Z" transform="translate(47 143)" fill="#172a45"/>
      </g>
      <path id="Path_2" data-name="Path 2" d="M1.672,20V5H5v6.672H8.344V5h3.328V20H8.344V13.328H5V20ZM25,15H18.328v1.672A1.674,1.674,0,0,0,20,18.328h1.672a1.464,1.464,0,0,0,1.656-1.656H25Q24.609,20,21.672,20H18.328A3.348,3.348,0,0,1,15,16.672v-5a3.354,3.354,0,0,1,3.328-3.344h3.344a3.19,3.19,0,0,1,2.348.988A3.229,3.229,0,0,1,25,11.672Zm-6.672-1.672h3.344V11.672a1.672,1.672,0,0,0-3.344,0Zm10,6.672V5h3.328V20ZM35,20V5h3.328V20ZM45,8.328h3.344a3.19,3.19,0,0,1,2.348.988,3.229,3.229,0,0,1,.98,2.355v5A3.361,3.361,0,0,1,48.344,20H45a3.348,3.348,0,0,1-3.328-3.328v-5A3.354,3.354,0,0,1,45,8.328Zm0,3.344v5a1.672,1.672,0,0,0,3.344,0v-5a1.672,1.672,0,0,0-3.344,0ZM56.656,15V5h3.336V15Zm0,5V16.672h3.336V20Zm14.883,0V5h3.336V20ZM79.883,5h3.328V8.328q0,2.961-3.328,3.344V10a1.551,1.551,0,0,0,1.672-1.672H79.883ZM96.555,20H93.227V11.672a1.672,1.672,0,0,0-3.344,0V20H86.555V8.328h3.328V10a2.066,2.066,0,0,1,.52-1.258,1.566,1.566,0,0,1,1.152-.414h1.672a2.815,2.815,0,0,1,2.5,1.18,2.435,2.435,0,0,1,1.016-.887,3.47,3.47,0,0,1,1.484-.293h1.656a3.361,3.361,0,0,1,3.344,3.344V20H99.883V11.672a1.613,1.613,0,0,0-.492-1.176,1.585,1.585,0,0,0-1.164-.5,1.681,1.681,0,0,0-1.672,1.672Zm14.883,0V5h3.328v6.125L120.156,5h2.953l-6.672,7.5,6.672,7.5h-3.344l-5-5.828V20Zm25-5h-6.672v1.672a1.674,1.674,0,0,0,1.672,1.656h1.672a1.464,1.464,0,0,0,1.656-1.656h1.672Q136.047,20,133.109,20h-3.344a3.348,3.348,0,0,1-3.328-3.328v-5a3.354,3.354,0,0,1,3.328-3.344h3.344a3.19,3.19,0,0,1,2.348.988,3.229,3.229,0,0,1,.98,2.355Zm-6.672-1.672h3.344V11.672a1.672,1.672,0,0,0-3.344,0Zm16.672-5h3.328V14.3a5.49,5.49,0,0,1-1.676,4.012A5.47,5.47,0,0,1,144.07,20h-4.3V8.328h3.328v10h1.672a1.674,1.674,0,0,0,1.672-1.656Zm6.656-1.656V5h3.328V6.672Zm0,13.328V8.328h3.328V20Zm6.672,0V8.328h3.328V10a2.066,2.066,0,0,1,.52-1.258,1.566,1.566,0,0,1,1.152-.414h1.672a3.19,3.19,0,0,1,2.348.988,3.229,3.229,0,0,1,.98,2.355V20h-3.328V11.672a1.672,1.672,0,0,0-3.344,0V20Zm13.328-3.328h3.328V20q0,2.961-3.328,3.328V21.672A1.551,1.551,0,0,0,174.766,20h-1.672Zm18.227-3.344V11.672A1.687,1.687,0,0,0,189.648,10h-1.672q-1.477,0-1.656,1.672h-1.672q.383-3.344,3.328-3.344h3.344a3.19,3.19,0,0,1,2.348.988,3.229,3.229,0,0,1,.98,2.355V20H191.32V18.328Q191.125,20,189.648,20h-1.672a3.348,3.348,0,0,1-3.328-3.328v-.016a3.355,3.355,0,0,1,3.328-3.328Zm0,1.672h-1.672a1.616,1.616,0,0,0-1.18.488,1.587,1.587,0,0,0-.492,1.168v.016a1.672,1.672,0,0,0,3.344,0Zm19.867-3.328h-1.656Q209.336,10,207.859,10a1.681,1.681,0,0,0-1.672,1.672v5a1.674,1.674,0,0,0,1.672,1.656q1.477,0,1.672-1.656h1.656Q210.984,20,207.859,20h-1.672a3.348,3.348,0,0,1-3.328-3.328v-5a3.354,3.354,0,0,1,3.328-3.344h1.672Q211,8.328,211.188,11.672Zm6.672-3.344H221.2a3.19,3.19,0,0,1,2.348.988,3.229,3.229,0,0,1,.98,2.355v5A3.361,3.361,0,0,1,221.2,20h-3.344a3.348,3.348,0,0,1-3.328-3.328v-5a3.354,3.354,0,0,1,3.328-3.344Zm0,3.344v5a1.672,1.672,0,0,0,3.344,0v-5a1.672,1.672,0,0,0-3.344,0Zm20,8.328h-3.328V11.672a1.672,1.672,0,0,0-3.344,0V20h-3.328V8.328h3.328V10a2.066,2.066,0,0,1,.52-1.258,1.566,1.566,0,0,1,1.152-.414h1.672a2.815,2.815,0,0,1,2.5,1.18,2.435,2.435,0,0,1,1.016-.887,3.47,3.47,0,0,1,1.484-.293h1.656a3.361,3.361,0,0,1,3.344,3.344V20h-3.344V11.672A1.613,1.613,0,0,0,240.7,10.5a1.585,1.585,0,0,0-1.164-.5,1.681,1.681,0,0,0-1.672,1.672Zm10-11.672h3.328V10a1.691,1.691,0,0,1,.422-1.258,1.715,1.715,0,0,1,1.25-.414h1.672a3.19,3.19,0,0,1,2.348.988,3.229,3.229,0,0,1,.98,2.355v5A3.348,3.348,0,0,1,254.531,20h-3.344v3.328h-3.328Zm3.328,10h1.672a1.62,1.62,0,0,0,1.176-.488,1.581,1.581,0,0,0,.5-1.168v-5a1.59,1.59,0,0,0-.5-1.176,1.62,1.62,0,0,0-1.176-.488,1.582,1.582,0,0,0-1.18.484,1.609,1.609,0,0,0-.492,1.18Zm20-10V20h-3.328V18.328Q267.664,20,266.188,20h-1.672a3.348,3.348,0,0,1-3.328-3.328V8.328h3.328v8.344a1.672,1.672,0,0,0,3.344,0V8.328Zm5-3.328h3.328V8.328h1.672V10h-1.672v6.672a1.484,1.484,0,0,0,.531,1.23,1.625,1.625,0,0,0,.984.426h.156V20h-1.672a3.341,3.341,0,0,1-3.328-3.328V10h-1.672V8.328h1.672Zm18.328,10h-6.672v1.672a1.674,1.674,0,0,0,1.672,1.656h1.672a1.464,1.464,0,0,0,1.656-1.656h1.672Q294.125,20,291.188,20h-3.344a3.348,3.348,0,0,1-3.328-3.328v-5a3.354,3.354,0,0,1,3.328-3.344h3.344a3.19,3.19,0,0,1,2.348.988,3.229,3.229,0,0,1,.98,2.355Zm-6.672-1.672h3.344V11.672a1.672,1.672,0,0,0-3.344,0ZM301.172,20h-3.328V8.328h3.328v3.344A4.116,4.116,0,0,1,302.2,9.164a3.125,3.125,0,0,1,2.313-.836h1.656v3.344h-3.328a1.616,1.616,0,0,0-1.18.488,1.587,1.587,0,0,0-.492,1.168Zm19.883-8.328H319.4Q319.18,10,317.82,10a2.134,2.134,0,0,0-1.328.348,1.233,1.233,0,0,0-.445,1.035q0,.719,2.43,2.016a5.317,5.317,0,0,1,2.277,1.762,3.726,3.726,0,0,1,.3,1.488A3.348,3.348,0,0,1,317.727,20h-1.672q-3.328,0-3.328-3.328H314.4q.2,1.664,1.563,1.664a2.116,2.116,0,0,0,1.328-.352,1.244,1.244,0,0,0,.445-1.039q0-.7-2.422-2.016a5.264,5.264,0,0,1-2.285-1.758,3.735,3.735,0,0,1-.3-1.484,3.354,3.354,0,0,1,3.328-3.359h1.672Q320.852,8.328,321.055,11.672Zm11.672,0H331.07Q330.875,10,329.4,10a1.681,1.681,0,0,0-1.672,1.672v5a1.674,1.674,0,0,0,1.672,1.656q1.477,0,1.672-1.656h1.656Q332.523,20,329.4,20h-1.672a3.348,3.348,0,0,1-3.328-3.328v-5a3.354,3.354,0,0,1,3.328-3.344H329.4Q332.539,8.328,332.727,11.672Zm3.344-5V5H339.4V6.672Zm0,13.328V8.328H339.4V20Zm16.672-5H346.07v1.672a1.674,1.674,0,0,0,1.672,1.656h1.672a1.464,1.464,0,0,0,1.656-1.656h1.672Q352.352,20,349.414,20H346.07a3.348,3.348,0,0,1-3.328-3.328v-5a3.354,3.354,0,0,1,3.328-3.344h3.344a3.19,3.19,0,0,1,2.348.988,3.229,3.229,0,0,1,.98,2.355Zm-6.672-1.672h3.344V11.672a1.672,1.672,0,0,0-3.344,0Zm10,6.672V8.328H359.4V10a2.066,2.066,0,0,1,.52-1.258,1.566,1.566,0,0,1,1.152-.414h1.672a3.19,3.19,0,0,1,2.348.988,3.229,3.229,0,0,1,.98,2.355V20h-3.328V11.672a1.672,1.672,0,0,0-3.344,0V20Zm21.656-8.328H376.07Q375.875,10,374.4,10a1.681,1.681,0,0,0-1.672,1.672v5a1.674,1.674,0,0,0,1.672,1.656q1.477,0,1.672-1.656h1.656Q377.523,20,374.4,20h-1.672a3.348,3.348,0,0,1-3.328-3.328v-5a3.354,3.354,0,0,1,3.328-3.344H374.4Q377.539,8.328,377.727,11.672ZM391.07,15H384.4v1.672a1.674,1.674,0,0,0,1.672,1.656h1.672a1.464,1.464,0,0,0,1.656-1.656h1.672Q390.68,20,387.742,20H384.4a3.348,3.348,0,0,1-3.328-3.328v-5A3.354,3.354,0,0,1,384.4,8.328h3.344a3.19,3.19,0,0,1,2.348.988,3.229,3.229,0,0,1,.98,2.355ZM384.4,13.328h3.344V11.672a1.672,1.672,0,0,0-3.344,0ZM409.281,20h-3.328V11.672a1.672,1.672,0,0,0-3.344,0V20h-3.328V8.328h3.328V10a2.066,2.066,0,0,1,.52-1.258,1.566,1.566,0,0,1,1.152-.414h1.672a2.815,2.815,0,0,1,2.5,1.18,2.435,2.435,0,0,1,1.016-.887,3.47,3.47,0,0,1,1.484-.293h1.656a3.361,3.361,0,0,1,3.344,3.344V20h-3.344V11.672a1.613,1.613,0,0,0-.492-1.176,1.585,1.585,0,0,0-1.164-.5,1.681,1.681,0,0,0-1.672,1.672Zm16.672-6.672V11.672A1.687,1.687,0,0,0,424.281,10h-1.672q-1.477,0-1.656,1.672h-1.672q.383-3.344,3.328-3.344h3.344a3.19,3.19,0,0,1,2.348.988,3.229,3.229,0,0,1,.98,2.355V20h-3.328V18.328Q425.758,20,424.281,20h-1.672a3.348,3.348,0,0,1-3.328-3.328v-.016a3.355,3.355,0,0,1,3.328-3.328Zm0,1.672h-1.672a1.616,1.616,0,0,0-1.18.488,1.587,1.587,0,0,0-.492,1.168v.016a1.672,1.672,0,0,0,3.344,0Zm9.984-8.328V5h3.328V6.672Zm0,1.656h3.328V20a3.348,3.348,0,0,1-3.328,3.328h-1.672q-2.945,0-3.328-3.328h1.672q.148,1.672,1.656,1.672A1.681,1.681,0,0,0,435.938,20Zm10,0h3.344a3.19,3.19,0,0,1,2.348.988,3.229,3.229,0,0,1,.98,2.355v5A3.361,3.361,0,0,1,449.281,20h-3.344a3.348,3.348,0,0,1-3.328-3.328v-5a3.354,3.354,0,0,1,3.328-3.344Zm0,3.344v5a1.672,1.672,0,0,0,3.344,0v-5a1.672,1.672,0,0,0-3.344,0ZM459.266,20h-3.328V8.328h3.328v3.344A4.116,4.116,0,0,1,460.3,9.164a3.125,3.125,0,0,1,2.313-.836h1.656v3.344h-3.328a1.616,1.616,0,0,0-1.18.488,1.587,1.587,0,0,0-.492,1.168Zm18.227-6.672V11.672A1.687,1.687,0,0,0,475.82,10h-1.672q-1.477,0-1.656,1.672H470.82q.383-3.344,3.328-3.344h3.344a3.19,3.19,0,0,1,2.348.988,3.229,3.229,0,0,1,.98,2.355V20h-3.328V18.328Q477.3,20,475.82,20h-1.672a3.348,3.348,0,0,1-3.328-3.328v-.016a3.355,3.355,0,0,1,3.328-3.328Zm0,1.672H475.82a1.616,1.616,0,0,0-1.18.488,1.587,1.587,0,0,0-.492,1.168v.016a1.672,1.672,0,0,0,3.344,0ZM485.82,5h3.328V8.328h1.672V10h-1.672v6.672a1.484,1.484,0,0,0,.531,1.23,1.625,1.625,0,0,0,.984.426h.156V20h-1.672a3.341,3.341,0,0,1-3.328-3.328V10h-1.672V8.328h1.672ZM1.672,45V30H8.344a3.355,3.355,0,0,1,3.328,3.328v.906a3.573,3.573,0,0,1-.766,2.152,2.979,2.979,0,0,1-2.562,1.035H10a1.681,1.681,0,0,1,1.672,1.672V45H8.344V40a1.687,1.687,0,0,0-1.672-1.672H5V45ZM5,36.672H6.672A1.694,1.694,0,0,0,8.344,35V33.328a1.581,1.581,0,0,0-.5-1.168,1.62,1.62,0,0,0-1.176-.488H5ZM25,40H18.328v1.672A1.674,1.674,0,0,0,20,43.328h1.672a1.464,1.464,0,0,0,1.656-1.656H25Q24.609,45,21.672,45H18.328A3.348,3.348,0,0,1,15,41.672v-5a3.354,3.354,0,0,1,3.328-3.344h3.344a3.19,3.19,0,0,1,2.348.988A3.229,3.229,0,0,1,25,36.672Zm-6.672-1.672h3.344V36.672a1.672,1.672,0,0,0-3.344,0Zm10,6.672V33.328h3.328V35a2.066,2.066,0,0,1,.52-1.258,1.566,1.566,0,0,1,1.152-.414H35a3.19,3.19,0,0,1,2.348.988,3.229,3.229,0,0,1,.98,2.355V45H35V36.672a1.672,1.672,0,0,0-3.344,0V45Zm21.656-8.328H48.328Q48.109,35,46.75,35a2.134,2.134,0,0,0-1.328.348,1.233,1.233,0,0,0-.445,1.035q0,.719,2.43,2.016a5.317,5.317,0,0,1,2.277,1.762,3.726,3.726,0,0,1,.3,1.488A3.348,3.348,0,0,1,46.656,45H44.984q-3.328,0-3.328-3.328h1.672q.2,1.664,1.563,1.664a2.116,2.116,0,0,0,1.328-.352,1.244,1.244,0,0,0,.445-1.039q0-.7-2.422-2.016a5.264,5.264,0,0,1-2.285-1.758,3.735,3.735,0,0,1-.3-1.484,3.354,3.354,0,0,1,3.328-3.359h1.672Q49.781,33.328,49.984,36.672Zm11.672,0H60Q59.781,35,58.422,35a2.134,2.134,0,0,0-1.328.348,1.233,1.233,0,0,0-.445,1.035q0,.719,2.43,2.016a5.317,5.317,0,0,1,2.277,1.762,3.726,3.726,0,0,1,.3,1.488A3.348,3.348,0,0,1,58.328,45H56.656q-3.328,0-3.328-3.328H55q.2,1.664,1.563,1.664a2.116,2.116,0,0,0,1.328-.352,1.244,1.244,0,0,0,.445-1.039q0-.7-2.422-2.016a5.264,5.264,0,0,1-2.285-1.758,3.735,3.735,0,0,1-.3-1.484,3.354,3.354,0,0,1,3.328-3.359h1.672Q61.453,33.328,61.656,36.672ZM75,40H68.328v1.672A1.674,1.674,0,0,0,70,43.328h1.672a1.464,1.464,0,0,0,1.656-1.656H75Q74.609,45,71.672,45H68.328A3.348,3.348,0,0,1,65,41.672v-5a3.354,3.354,0,0,1,3.328-3.344h3.344a3.19,3.19,0,0,1,2.348.988A3.229,3.229,0,0,1,75,36.672Zm-6.672-1.672h3.344V36.672a1.672,1.672,0,0,0-3.344,0Zm10,6.672V30h3.328V45Zm13.344-6.672V36.672A1.687,1.687,0,0,0,90,35H88.328q-1.477,0-1.656,1.672H85q.383-3.344,3.328-3.344h3.344a3.19,3.19,0,0,1,2.348.988A3.229,3.229,0,0,1,95,36.672V45H91.672V43.328Q91.477,45,90,45H88.328A3.348,3.348,0,0,1,85,41.672v-.016a3.355,3.355,0,0,1,3.328-3.328Zm0,1.672H90a1.616,1.616,0,0,0-1.18.488,1.587,1.587,0,0,0-.492,1.168v.016a1.672,1.672,0,0,0,3.344,0Zm16.656,0h-6.672v1.672a1.674,1.674,0,0,0,1.672,1.656H105a1.464,1.464,0,0,0,1.656-1.656h1.672Q107.938,45,105,45h-3.344a3.348,3.348,0,0,1-3.328-3.328v-5a3.354,3.354,0,0,1,3.328-3.344H105a3.19,3.19,0,0,1,2.348.988,3.229,3.229,0,0,1,.98,2.355Zm-6.672-1.672H105V36.672a1.672,1.672,0,0,0-3.344,0ZM114.984,45h-3.328V33.328h3.328v3.344a4.116,4.116,0,0,1,1.031-2.508,3.125,3.125,0,0,1,2.313-.836h1.656v3.344h-3.328a1.616,1.616,0,0,0-1.18.488,1.587,1.587,0,0,0-.492,1.168Zm11.555,0V30h6.672a3.355,3.355,0,0,1,3.328,3.328V35a3.348,3.348,0,0,1-3.328,3.328h-3.344V45Zm3.328-8.328h1.672A1.694,1.694,0,0,0,133.211,35V33.328a1.581,1.581,0,0,0-.5-1.168,1.62,1.62,0,0,0-1.176-.488h-1.672ZM143.2,33.328h3.344a3.19,3.19,0,0,1,2.348.988,3.229,3.229,0,0,1,.98,2.355v5A3.361,3.361,0,0,1,146.539,45H143.2a3.348,3.348,0,0,1-3.328-3.328v-5a3.354,3.354,0,0,1,3.328-3.344Zm0,3.344v5a1.672,1.672,0,0,0,3.344,0v-5a1.672,1.672,0,0,0-3.344,0ZM153.2,45V30h3.328V45Zm8.344,1.672q.117,1.656,1.656,1.656h1.672a1.62,1.62,0,0,0,1.176-.488,1.581,1.581,0,0,0,.5-1.168V43.328Q166.344,45,164.867,45H163.2a3.348,3.348,0,0,1-3.328-3.328V33.328H163.2v8.344a1.672,1.672,0,0,0,3.344,0V33.328h3.328V46.672A3.368,3.368,0,0,1,166.539,50H163.2q-2.945,0-3.328-3.328ZM174.867,30H178.2v3.328h1.672V35H178.2v6.672a1.484,1.484,0,0,0,.531,1.23,1.625,1.625,0,0,0,.984.426h.156V45H178.2a3.341,3.341,0,0,1-3.328-3.328V35H173.2V33.328h1.672ZM193.2,40h-6.672v1.672a1.674,1.674,0,0,0,1.672,1.656h1.672a1.464,1.464,0,0,0,1.656-1.656H193.2Q192.8,45,189.867,45h-3.344a3.348,3.348,0,0,1-3.328-3.328v-5a3.354,3.354,0,0,1,3.328-3.344h3.344a3.19,3.19,0,0,1,2.348.988,3.229,3.229,0,0,1,.98,2.355Zm-6.672-1.672h3.344V36.672a1.672,1.672,0,0,0-3.344,0Zm18.328-1.656H203.2Q203,35,201.523,35a1.681,1.681,0,0,0-1.672,1.672v5a1.674,1.674,0,0,0,1.672,1.656q1.477,0,1.672-1.656h1.656Q204.648,45,201.523,45h-1.672a3.348,3.348,0,0,1-3.328-3.328v-5a3.354,3.354,0,0,1,3.328-3.344h1.672Q204.664,33.328,204.852,36.672ZM208.2,45V30h3.328v5a2.066,2.066,0,0,1,.52-1.258,1.566,1.566,0,0,1,1.152-.414h1.672a3.19,3.19,0,0,1,2.348.988,3.229,3.229,0,0,1,.98,2.355V45h-3.328V36.672a1.672,1.672,0,0,0-3.344,0V45Zm13.328,0V33.328h3.328V35a2.066,2.066,0,0,1,.52-1.258,1.566,1.566,0,0,1,1.152-.414H228.2a3.19,3.19,0,0,1,2.348.988,3.229,3.229,0,0,1,.98,2.355V45H228.2V36.672a1.672,1.672,0,0,0-3.344,0V45Zm13.328-13.328V30h3.328v1.672Zm0,13.328V33.328h3.328V45Zm15-8.328H248.2Q248,35,246.523,35a1.681,1.681,0,0,0-1.672,1.672v5a1.674,1.674,0,0,0,1.672,1.656q1.477,0,1.672-1.656h1.656Q249.648,45,246.523,45h-1.672a3.348,3.348,0,0,1-3.328-3.328v-5a3.354,3.354,0,0,1,3.328-3.344h1.672Q249.664,33.328,249.852,36.672ZM259.734,45V30h3.336V45Zm8.344,0V33.328h3.328V35a2.066,2.066,0,0,1,.52-1.258,1.566,1.566,0,0,1,1.152-.414h1.672a3.19,3.19,0,0,1,2.348.988,3.229,3.229,0,0,1,.98,2.355V45H274.75V36.672a1.672,1.672,0,0,0-3.344,0V45Zm21.656-8.328h-1.656Q287.859,35,286.5,35a2.134,2.134,0,0,0-1.328.348,1.233,1.233,0,0,0-.445,1.035q0,.719,2.43,2.016a5.317,5.317,0,0,1,2.277,1.762,3.726,3.726,0,0,1,.3,1.488A3.348,3.348,0,0,1,286.406,45h-1.672q-3.328,0-3.328-3.328h1.672q.2,1.664,1.563,1.664a2.116,2.116,0,0,0,1.328-.352,1.244,1.244,0,0,0,.445-1.039q0-.7-2.422-2.016a5.264,5.264,0,0,1-2.285-1.758,3.735,3.735,0,0,1-.3-1.484,3.354,3.354,0,0,1,3.328-3.359h1.672Q289.531,33.328,289.734,36.672ZM294.75,30h3.328v3.328h1.672V35h-1.672v6.672a1.484,1.484,0,0,0,.531,1.23,1.625,1.625,0,0,0,.984.426h.156V45h-1.672a3.341,3.341,0,0,1-3.328-3.328V35h-1.672V33.328h1.672Zm8.328,1.672V30h3.328v1.672Zm0,13.328V33.328h3.328V45Zm8.344-15h3.328v3.328h1.672V35H314.75v6.672a1.484,1.484,0,0,0,.531,1.23,1.625,1.625,0,0,0,.984.426h.156V45H314.75a3.341,3.341,0,0,1-3.328-3.328V35H309.75V33.328h1.672Zm18.328,3.328V45h-3.328V43.328Q326.227,45,324.75,45h-1.672a3.348,3.348,0,0,1-3.328-3.328V33.328h3.328v8.344a1.672,1.672,0,0,0,3.344,0V33.328Zm5-3.328h3.328v3.328h1.672V35h-1.672v6.672a1.484,1.484,0,0,0,.531,1.23,1.625,1.625,0,0,0,.984.426h.156V45h-1.672a3.341,3.341,0,0,1-3.328-3.328V35h-1.672V33.328h1.672Zm18.328,10h-6.672v1.672a1.674,1.674,0,0,0,1.672,1.656h1.672a1.464,1.464,0,0,0,1.656-1.656h1.672Q352.688,45,349.75,45h-3.344a3.348,3.348,0,0,1-3.328-3.328v-5a3.354,3.354,0,0,1,3.328-3.344h3.344a3.19,3.19,0,0,1,2.348.988,3.229,3.229,0,0,1,.98,2.355Zm-6.672-1.672h3.344V36.672a1.672,1.672,0,0,0-3.344,0Zm14.883-5h3.328v10h1.672a1.674,1.674,0,0,0,1.672-1.656V33.328h3.328v10h1.672a1.674,1.674,0,0,0,1.656-1.656V33.328h3.344V39.3a5.735,5.735,0,0,1-5.7,5.7h-4.3v-.531a4.836,4.836,0,0,1-2.367.531h-4.3Zm20,11.672V30h3.328v5a2.066,2.066,0,0,1,.52-1.258,1.566,1.566,0,0,1,1.152-.414h1.672a3.19,3.19,0,0,1,2.348.988,3.229,3.229,0,0,1,.98,2.355V45h-3.328V36.672a1.672,1.672,0,0,0-3.344,0V45Zm16.656-11.672h3.344a3.19,3.19,0,0,1,2.348.988,3.229,3.229,0,0,1,.98,2.355v5A3.361,3.361,0,0,1,401.289,45h-3.344a3.348,3.348,0,0,1-3.328-3.328v-5a3.354,3.354,0,0,1,3.328-3.344Zm0,3.344v5a1.672,1.672,0,0,0,3.344,0v-5a1.672,1.672,0,0,0-3.344,0Zm18.328,0h-1.656Q414.4,35,413.039,35a2.134,2.134,0,0,0-1.328.348,1.233,1.233,0,0,0-.445,1.035q0,.719,2.43,2.016a5.317,5.317,0,0,1,2.277,1.762,3.726,3.726,0,0,1,.3,1.488A3.348,3.348,0,0,1,412.945,45h-1.672q-3.328,0-3.328-3.328h1.672q.2,1.664,1.563,1.664a2.116,2.116,0,0,0,1.328-.352,1.244,1.244,0,0,0,.445-1.039q0-.7-2.422-2.016a5.264,5.264,0,0,1-2.285-1.758,3.735,3.735,0,0,1-.3-1.484,3.354,3.354,0,0,1,3.328-3.359h1.672Q416.07,33.328,416.273,36.672ZM429.617,40h-6.672v1.672a1.674,1.674,0,0,0,1.672,1.656h1.672a1.464,1.464,0,0,0,1.656-1.656h1.672Q429.227,45,426.289,45h-3.344a3.348,3.348,0,0,1-3.328-3.328v-5a3.354,3.354,0,0,1,3.328-3.344h3.344a3.19,3.19,0,0,1,2.348.988,3.229,3.229,0,0,1,.98,2.355Zm-6.672-1.672h3.344V36.672a1.672,1.672,0,0,0-3.344,0Zm23.211-1.656H444.5Q444.3,35,442.828,35a1.681,1.681,0,0,0-1.672,1.672v5a1.674,1.674,0,0,0,1.672,1.656q1.477,0,1.672-1.656h1.656Q445.953,45,442.828,45h-1.672a3.348,3.348,0,0,1-3.328-3.328v-5a3.354,3.354,0,0,1,3.328-3.344h1.672Q445.969,33.328,446.156,36.672Zm6.672-3.344h3.344a3.19,3.19,0,0,1,2.348.988,3.229,3.229,0,0,1,.98,2.355v5A3.361,3.361,0,0,1,456.172,45h-3.344a3.348,3.348,0,0,1-3.328-3.328v-5a3.354,3.354,0,0,1,3.328-3.344Zm0,3.344v5a1.672,1.672,0,0,0,3.344,0v-5a1.672,1.672,0,0,0-3.344,0Zm20,8.328H469.5V43.328Q469.3,45,467.828,45h-1.672a3.348,3.348,0,0,1-3.328-3.328v-5a3.354,3.354,0,0,1,3.328-3.344H469.5V30h3.328ZM469.5,35h-1.672a1.681,1.681,0,0,0-1.672,1.672v5a1.672,1.672,0,0,0,3.344,0Zm6.656-3.328V30h3.328v1.672Zm0,13.328V33.328h3.328V45Zm6.672,0V33.328h3.328V35a2.066,2.066,0,0,1,.52-1.258,1.566,1.566,0,0,1,1.152-.414H489.5a3.19,3.19,0,0,1,2.348.988,3.229,3.229,0,0,1,.98,2.355V45H489.5V36.672a1.672,1.672,0,0,0-3.344,0V45Zm23.328-11.672V46.672A3.368,3.368,0,0,1,502.828,50h-3.344q-2.945,0-3.328-3.328h1.672q.117,1.656,1.656,1.656h1.672a1.62,1.62,0,0,0,1.176-.488,1.581,1.581,0,0,0,.5-1.168V43.328Q502.633,45,501.156,45h-1.672a3.348,3.348,0,0,1-3.328-3.328v-5a3.354,3.354,0,0,1,3.328-3.344ZM502.828,35h-1.672a1.681,1.681,0,0,0-1.672,1.672v5a1.672,1.672,0,0,0,3.344,0ZM8.344,63.328V61.672A1.687,1.687,0,0,0,6.672,60H5q-1.477,0-1.656,1.672H1.672Q2.055,58.328,5,58.328H8.344a3.19,3.19,0,0,1,2.348.988,3.229,3.229,0,0,1,.98,2.355V70H8.344V68.328Q8.148,70,6.672,70H5a3.2,3.2,0,0,1-2.348-.98,3.2,3.2,0,0,1-.98-2.348v-.016a3.2,3.2,0,0,1,.984-2.348A3.207,3.207,0,0,1,5,63.328Zm0,1.672H6.672a1.616,1.616,0,0,0-1.18.488A1.587,1.587,0,0,0,5,66.656v.016a1.674,1.674,0,0,0,1.672,1.656,1.674,1.674,0,0,0,1.672-1.656ZM15,70V55h3.328v5a2.066,2.066,0,0,1,.52-1.258A1.566,1.566,0,0,1,20,58.328h1.672a3.19,3.19,0,0,1,2.348.988A3.229,3.229,0,0,1,25,61.672v5A3.361,3.361,0,0,1,21.672,70Zm3.328-1.672H20a1.674,1.674,0,0,0,1.672-1.656v-5a1.672,1.672,0,0,0-3.344,0Zm10-11.656V55h3.328v1.672Zm0,13.328V58.328h3.328V70ZM35,70V55h3.328V70Zm6.672-13.328V55H45v1.672Zm0,13.328V58.328H45V70Zm8.344-15h3.328v3.328h1.672V60H53.344v6.672a1.484,1.484,0,0,0,.531,1.23,1.625,1.625,0,0,0,.984.426h.156V70H53.344a3.341,3.341,0,0,1-3.328-3.328V60H48.344V58.328h1.672Zm8.328,1.672V55h3.328v1.672Zm0,13.328V58.328h3.328V70Zm16.672-5H68.344v1.672a1.674,1.674,0,0,0,1.672,1.656h1.672a1.464,1.464,0,0,0,1.656-1.656h1.672Q74.625,70,71.688,70H68.344a3.348,3.348,0,0,1-3.328-3.328v-5a3.354,3.354,0,0,1,3.328-3.344h3.344a3.19,3.19,0,0,1,2.348.988,3.229,3.229,0,0,1,.98,2.355Zm-6.672-1.672h3.344V61.672a1.672,1.672,0,0,0-3.344,0Zm18.328-1.656H85.016Q84.8,60,83.438,60a2.134,2.134,0,0,0-1.328.348,1.233,1.233,0,0,0-.445,1.035q0,.719,2.43,2.016a5.317,5.317,0,0,1,2.277,1.762,3.726,3.726,0,0,1,.3,1.488A3.348,3.348,0,0,1,83.344,70H81.672q-3.328,0-3.328-3.328h1.672q.2,1.664,1.563,1.664a2.116,2.116,0,0,0,1.328-.352,1.244,1.244,0,0,0,.445-1.039q0-.7-2.422-2.016a5.264,5.264,0,0,1-2.285-1.758,3.735,3.735,0,0,1-.3-1.484,3.354,3.354,0,0,1,3.328-3.359h1.672Q86.469,58.328,86.672,61.672Zm14.9,1.656V61.672A1.687,1.687,0,0,0,99.9,60H98.227q-1.477,0-1.656,1.672H94.9q.383-3.344,3.328-3.344h3.344a3.19,3.19,0,0,1,2.348.988,3.229,3.229,0,0,1,.98,2.355V70H101.57V68.328Q101.375,70,99.9,70H98.227A3.348,3.348,0,0,1,94.9,66.672v-.016a3.355,3.355,0,0,1,3.328-3.328Zm0,1.672H99.9a1.616,1.616,0,0,0-1.18.488,1.587,1.587,0,0,0-.492,1.168v.016a1.672,1.672,0,0,0,3.344,0Zm9.984,5h-3.328V58.328h3.328v3.344a4.116,4.116,0,0,1,1.031-2.508,3.125,3.125,0,0,1,2.313-.836h1.656v3.344h-3.328a1.616,1.616,0,0,0-1.18.488,1.587,1.587,0,0,0-.492,1.168Zm16.672-5h-6.672v1.672a1.674,1.674,0,0,0,1.672,1.656H124.9a1.464,1.464,0,0,0,1.656-1.656h1.672Q127.836,70,124.9,70h-3.344a3.348,3.348,0,0,1-3.328-3.328v-5a3.354,3.354,0,0,1,3.328-3.344H124.9a3.19,3.19,0,0,1,2.348.988,3.229,3.229,0,0,1,.98,2.355Zm-6.672-1.672H124.9V61.672a1.672,1.672,0,0,0-3.344,0Zm21.555,0V61.672A1.687,1.687,0,0,0,141.438,60h-1.672q-1.477,0-1.656,1.672h-1.672q.383-3.344,3.328-3.344h3.344a3.19,3.19,0,0,1,2.348.988,3.229,3.229,0,0,1,.98,2.355V70h-3.328V68.328Q142.914,70,141.438,70h-1.672a3.348,3.348,0,0,1-3.328-3.328v-.016a3.355,3.355,0,0,1,3.328-3.328Zm0,1.672h-1.672a1.616,1.616,0,0,0-1.18.488,1.587,1.587,0,0,0-.492,1.168v.016a1.672,1.672,0,0,0,3.344,0Zm6.656,5V58.328h3.328V60a2.066,2.066,0,0,1,.52-1.258,1.566,1.566,0,0,1,1.152-.414h1.672a3.19,3.19,0,0,1,2.348.988,3.229,3.229,0,0,1,.98,2.355V70h-3.328V61.672a1.672,1.672,0,0,0-3.344,0V70Zm28.211-5H171.3v1.672a1.674,1.674,0,0,0,1.672,1.656h1.672a1.464,1.464,0,0,0,1.656-1.656h1.672Q177.586,70,174.648,70H171.3a3.348,3.348,0,0,1-3.328-3.328v-5a3.354,3.354,0,0,1,3.328-3.344h3.344a3.19,3.19,0,0,1,2.348.988,3.229,3.229,0,0,1,.98,2.355ZM171.3,63.328h3.344V61.672a1.672,1.672,0,0,0-3.344,0ZM181.3,70V67.5a3.1,3.1,0,0,1,.836-2.3,4.123,4.123,0,0,1,2.492-1.023,4.1,4.1,0,0,1-2.492-1.031,3.125,3.125,0,0,1-.836-2.312v-2.5h3.328v3.344a1.587,1.587,0,0,0,.492,1.168,1.664,1.664,0,0,0,2.355,0,1.581,1.581,0,0,0,.5-1.168V58.328H191.3v2.5a3.134,3.134,0,0,1-.832,2.313,4.087,4.087,0,0,1-2.5,1.031,4.1,4.1,0,0,1,2.5,1.027,3.109,3.109,0,0,1,.832,2.3V70h-3.328V66.672a1.672,1.672,0,0,0-3.344,0V70Zm15-15h3.328v3.328H201.3V60h-1.672v6.672a1.484,1.484,0,0,0,.531,1.23,1.625,1.625,0,0,0,.984.426h.156V70h-1.672a3.341,3.341,0,0,1-3.328-3.328V60h-1.672V58.328H196.3Zm18.328,10h-6.672v1.672a1.674,1.674,0,0,0,1.672,1.656H211.3a1.464,1.464,0,0,0,1.656-1.656h1.672Q214.242,70,211.3,70h-3.344a3.348,3.348,0,0,1-3.328-3.328v-5a3.354,3.354,0,0,1,3.328-3.344H211.3a3.19,3.19,0,0,1,2.348.988,3.229,3.229,0,0,1,.98,2.355Zm-6.672-1.672H211.3V61.672a1.672,1.672,0,0,0-3.344,0Zm10,6.672V58.328h3.328V60a2.066,2.066,0,0,1,.52-1.258,1.566,1.566,0,0,1,1.152-.414h1.672a3.19,3.19,0,0,1,2.348.988,3.229,3.229,0,0,1,.98,2.355V70h-3.328V61.672a1.672,1.672,0,0,0-3.344,0V70Zm21.656-8.328h-1.656Q237.742,60,236.383,60a2.134,2.134,0,0,0-1.328.348,1.233,1.233,0,0,0-.445,1.035q0,.719,2.43,2.016a5.317,5.317,0,0,1,2.277,1.762,3.726,3.726,0,0,1,.3,1.488A3.348,3.348,0,0,1,236.289,70h-1.672q-3.328,0-3.328-3.328h1.672q.2,1.664,1.563,1.664a2.116,2.116,0,0,0,1.328-.352,1.244,1.244,0,0,0,.445-1.039q0-.7-2.422-2.016a5.264,5.264,0,0,1-2.285-1.758,3.735,3.735,0,0,1-.3-1.484,3.354,3.354,0,0,1,3.328-3.359h1.672Q239.414,58.328,239.617,61.672Zm3.344-5V55h3.328v1.672Zm0,13.328V58.328h3.328V70Zm10-11.672H256.3a3.19,3.19,0,0,1,2.348.988,3.229,3.229,0,0,1,.98,2.355v5A3.361,3.361,0,0,1,256.3,70h-3.344a3.348,3.348,0,0,1-3.328-3.328v-5a3.354,3.354,0,0,1,3.328-3.344Zm0,3.344v5a1.672,1.672,0,0,0,3.344,0v-5a1.672,1.672,0,0,0-3.344,0Zm10,8.328V58.328h3.328V60a2.066,2.066,0,0,1,.52-1.258,1.566,1.566,0,0,1,1.152-.414h1.672a3.19,3.19,0,0,1,2.348.988,3.229,3.229,0,0,1,.98,2.355V70h-3.328V61.672a1.672,1.672,0,0,0-3.344,0V70ZM284.5,58.328h3.344a3.19,3.19,0,0,1,2.348.988,3.229,3.229,0,0,1,.98,2.355v5A3.361,3.361,0,0,1,287.844,70H284.5a3.348,3.348,0,0,1-3.328-3.328v-5a3.354,3.354,0,0,1,3.328-3.344Zm0,3.344v5a1.672,1.672,0,0,0,3.344,0v-5a1.672,1.672,0,0,0-3.344,0ZM296.172,70V60H294.5V58.328h1.672V58.18a3.2,3.2,0,0,1,3.18-3.18h3.477v1.672h-1.812A1.527,1.527,0,0,0,299.5,58.18v.148h1.672V60H299.5V70Zm14.883-15h3.328v3.328h1.672V60h-1.672v6.672a1.484,1.484,0,0,0,.531,1.23,1.625,1.625,0,0,0,.984.426h.156V70h-1.672a3.341,3.341,0,0,1-3.328-3.328V60h-1.672V58.328h1.672Zm8.328,15V55h3.328v5a2.066,2.066,0,0,1,.52-1.258,1.566,1.566,0,0,1,1.152-.414h1.672a3.19,3.19,0,0,1,2.348.988,3.229,3.229,0,0,1,.98,2.355V70h-3.328V61.672a1.672,1.672,0,0,0-3.344,0V70Zm23.328-5h-6.672v1.672a1.674,1.674,0,0,0,1.672,1.656h1.672a1.464,1.464,0,0,0,1.656-1.656h1.672Q342.32,70,339.383,70h-3.344a3.348,3.348,0,0,1-3.328-3.328v-5a3.354,3.354,0,0,1,3.328-3.344h3.344a3.19,3.19,0,0,1,2.348.988,3.229,3.229,0,0,1,.98,2.355Zm-6.672-1.672h3.344V61.672a1.672,1.672,0,0,0-3.344,0ZM360.922,70h-3.328V61.672a1.672,1.672,0,0,0-3.344,0V70h-3.328V58.328h3.328V60a2.066,2.066,0,0,1,.52-1.258,1.566,1.566,0,0,1,1.152-.414h1.672a2.815,2.815,0,0,1,2.5,1.18,2.435,2.435,0,0,1,1.016-.887,3.47,3.47,0,0,1,1.484-.293h1.656a3.361,3.361,0,0,1,3.344,3.344V70H364.25V61.672a1.613,1.613,0,0,0-.492-1.176,1.585,1.585,0,0,0-1.164-.5,1.681,1.681,0,0,0-1.672,1.672Zm10-13.328V55h3.328v1.672Zm0,13.328V58.328h3.328V70Zm6.672,0V58.328h3.328V60a2.066,2.066,0,0,1,.52-1.258,1.566,1.566,0,0,1,1.152-.414h1.672a3.19,3.19,0,0,1,2.348.988,3.229,3.229,0,0,1,.98,2.355V70h-3.328V61.672a1.672,1.672,0,0,0-3.344,0V70Zm23.328,0h-3.328V68.328Q397.4,70,395.922,70H394.25a3.348,3.348,0,0,1-3.328-3.328v-5a3.354,3.354,0,0,1,3.328-3.344h3.344V55h3.328Zm-3.328-10h-1.672a1.681,1.681,0,0,0-1.672,1.672v5a1.672,1.672,0,0,0,3.344,0Zm6.656,10V66.672h3.328V70Zm13.211,0V55H420.8V70Zm13.227,0V55h3.328v5a2.066,2.066,0,0,1,.52-1.258,1.566,1.566,0,0,1,1.152-.414h1.672a3.19,3.19,0,0,1,2.348.988,3.229,3.229,0,0,1,.98,2.355v5A3.361,3.361,0,0,1,437.359,70Zm3.328-1.672h1.672a1.674,1.674,0,0,0,1.672-1.656v-5a1.672,1.672,0,0,0-3.344,0Zm20-3.328h-6.672v1.672a1.674,1.674,0,0,0,1.672,1.656h1.672a1.464,1.464,0,0,0,1.656-1.656h1.672Q453.625,70,450.688,70h-3.344a3.348,3.348,0,0,1-3.328-3.328v-5a3.354,3.354,0,0,1,3.328-3.344h3.344a3.19,3.19,0,0,1,2.348.988,3.229,3.229,0,0,1,.98,2.355Zm-6.672-1.672h3.344V61.672a1.672,1.672,0,0,0-3.344,0Zm10,6.672V55h3.328V70Zm6.672-13.328V55h3.328v1.672Zm0,13.328V58.328h3.328V70Zm16.672-5h-6.672v1.672a1.674,1.674,0,0,0,1.672,1.656h1.672a1.464,1.464,0,0,0,1.656-1.656h1.672Q480.3,70,477.359,70h-3.344a3.348,3.348,0,0,1-3.328-3.328v-5a3.354,3.354,0,0,1,3.328-3.344h3.344a3.19,3.19,0,0,1,2.348.988,3.229,3.229,0,0,1,.98,2.355Zm-6.672-1.672h3.344V61.672a1.672,1.672,0,0,0-3.344,0Zm16.672-5h3.328V64.3a5.735,5.735,0,0,1-5.7,5.7h-4.3V58.328h3.328v10h1.672a1.674,1.674,0,0,0,1.672-1.656ZM507.344,65h-6.672v1.672a1.674,1.674,0,0,0,1.672,1.656h1.672a1.464,1.464,0,0,0,1.656-1.656h1.672Q506.953,70,504.016,70h-3.344a3.348,3.348,0,0,1-3.328-3.328v-5a3.354,3.354,0,0,1,3.328-3.344h3.344a3.19,3.19,0,0,1,2.348.988,3.229,3.229,0,0,1,.98,2.355Zm-6.672-1.672h3.344V61.672a1.672,1.672,0,0,0-3.344,0ZM3.344,80H6.672v3.328H8.344V85H6.672v6.672A1.484,1.484,0,0,0,7.2,92.9a1.625,1.625,0,0,0,.984.426h.156V95H6.672a3.2,3.2,0,0,1-2.352-.98,3.209,3.209,0,0,1-.977-2.348V85H1.672V83.328H3.344Zm8.328,15V80H15v5a2.066,2.066,0,0,1,.52-1.258,1.566,1.566,0,0,1,1.152-.414h1.672a3.19,3.19,0,0,1,2.348.988,3.229,3.229,0,0,1,.98,2.355V95H18.344V86.672a1.672,1.672,0,0,0-3.344,0V95Zm20-6.672V86.672A1.687,1.687,0,0,0,30,85H28.328q-1.477,0-1.656,1.672H25q.383-3.344,3.328-3.344h3.344a3.19,3.19,0,0,1,2.348.988A3.229,3.229,0,0,1,35,86.672V95H31.672V93.328Q31.477,95,30,95H28.328A3.348,3.348,0,0,1,25,91.672v-.016a3.355,3.355,0,0,1,3.328-3.328Zm0,1.672H30a1.616,1.616,0,0,0-1.18.488,1.587,1.587,0,0,0-.492,1.168v.016a1.672,1.672,0,0,0,3.344,0ZM40,80h3.328v3.328H45V85H43.328v6.672a1.484,1.484,0,0,0,.531,1.23,1.625,1.625,0,0,0,.984.426H45V95H43.328A3.341,3.341,0,0,1,40,91.672V85H38.328V83.328H40Zm14.883,0h3.328v3.328h1.672V85H58.211v6.672a1.484,1.484,0,0,0,.531,1.23,1.625,1.625,0,0,0,.984.426h.156V95H58.211a3.341,3.341,0,0,1-3.328-3.328V85H53.211V83.328h1.672Zm8.328,15V80h3.328v5a2.066,2.066,0,0,1,.52-1.258,1.566,1.566,0,0,1,1.152-.414h1.672a3.19,3.19,0,0,1,2.348.988,3.229,3.229,0,0,1,.98,2.355V95H69.883V86.672a1.672,1.672,0,0,0-3.344,0V95Zm23.328-5H79.867v1.672a1.674,1.674,0,0,0,1.672,1.656h1.672a1.464,1.464,0,0,0,1.656-1.656h1.672Q86.148,95,83.211,95H79.867a3.348,3.348,0,0,1-3.328-3.328v-5a3.354,3.354,0,0,1,3.328-3.344h3.344a3.19,3.19,0,0,1,2.348.988,3.229,3.229,0,0,1,.98,2.355Zm-6.672-1.672h3.344V86.672a1.672,1.672,0,0,0-3.344,0Zm14.883-5h3.328V85a1.691,1.691,0,0,1,.422-1.258,1.715,1.715,0,0,1,1.25-.414h1.672a3.19,3.19,0,0,1,2.348.988,3.229,3.229,0,0,1,.98,2.355v5A3.348,3.348,0,0,1,101.422,95H98.078v3.328H94.75Zm3.328,10H99.75a1.62,1.62,0,0,0,1.176-.488,1.581,1.581,0,0,0,.5-1.168v-5a1.59,1.59,0,0,0-.5-1.176,1.62,1.62,0,0,0-1.176-.488,1.582,1.582,0,0,0-1.18.484,1.609,1.609,0,0,0-.492,1.18Zm20-10V95H114.75V93.328Q114.555,95,113.078,95h-1.672a3.348,3.348,0,0,1-3.328-3.328V83.328h3.328v8.344a1.672,1.672,0,0,0,3.344,0V83.328ZM124.734,95h-3.328V83.328h3.328v3.344a4.116,4.116,0,0,1,1.031-2.508,3.125,3.125,0,0,1,2.313-.836h1.656v3.344h-3.328a1.616,1.616,0,0,0-1.18.488,1.587,1.587,0,0,0-.492,1.168Zm6.672-11.672h3.328V85a1.691,1.691,0,0,1,.422-1.258,1.715,1.715,0,0,1,1.25-.414h1.672a3.19,3.19,0,0,1,2.348.988,3.229,3.229,0,0,1,.98,2.355v5A3.348,3.348,0,0,1,138.078,95h-3.344v3.328h-3.328Zm3.328,10h1.672a1.62,1.62,0,0,0,1.176-.488,1.581,1.581,0,0,0,.5-1.168v-5a1.59,1.59,0,0,0-.5-1.176,1.62,1.62,0,0,0-1.176-.488,1.582,1.582,0,0,0-1.18.484,1.609,1.609,0,0,0-.492,1.18Zm13.328-10h3.344a3.19,3.19,0,0,1,2.348.988,3.229,3.229,0,0,1,.98,2.355v5A3.361,3.361,0,0,1,151.406,95h-3.344a3.348,3.348,0,0,1-3.328-3.328v-5a3.354,3.354,0,0,1,3.328-3.344Zm0,3.344v5a1.672,1.672,0,0,0,3.344,0v-5a1.672,1.672,0,0,0-3.344,0Zm18.328,0h-1.656Q164.516,85,163.156,85a2.134,2.134,0,0,0-1.328.348,1.233,1.233,0,0,0-.445,1.035q0,.719,2.43,2.016a5.317,5.317,0,0,1,2.277,1.762,3.726,3.726,0,0,1,.3,1.488A3.348,3.348,0,0,1,163.063,95h-1.672q-3.328,0-3.328-3.328h1.672q.2,1.664,1.563,1.664a2.116,2.116,0,0,0,1.328-.352,1.244,1.244,0,0,0,.445-1.039q0-.7-2.422-2.016a5.264,5.264,0,0,1-2.285-1.758,3.735,3.735,0,0,1-.3-1.484,3.354,3.354,0,0,1,3.328-3.359h1.672Q166.187,83.328,166.391,86.672ZM179.734,90h-6.672v1.672a1.674,1.674,0,0,0,1.672,1.656h1.672a1.464,1.464,0,0,0,1.656-1.656h1.672Q179.344,95,176.406,95h-3.344a3.348,3.348,0,0,1-3.328-3.328v-5a3.354,3.354,0,0,1,3.328-3.344h3.344a3.19,3.19,0,0,1,2.348.988,3.229,3.229,0,0,1,.98,2.355Zm-6.672-1.672h3.344V86.672a1.672,1.672,0,0,0-3.344,0ZM187.945,95V80h3.328v5a2.066,2.066,0,0,1,.52-1.258,1.566,1.566,0,0,1,1.152-.414h1.672a3.19,3.19,0,0,1,2.348.988,3.229,3.229,0,0,1,.98,2.355v5A3.361,3.361,0,0,1,194.617,95Zm3.328-1.672h1.672a1.674,1.674,0,0,0,1.672-1.656v-5a1.672,1.672,0,0,0-3.344,0Zm20-3.328H204.6v1.672a1.674,1.674,0,0,0,1.672,1.656h1.672a1.464,1.464,0,0,0,1.656-1.656h1.672Q210.883,95,207.945,95H204.6a3.348,3.348,0,0,1-3.328-3.328v-5a3.354,3.354,0,0,1,3.328-3.344h3.344a3.19,3.19,0,0,1,2.348.988,3.229,3.229,0,0,1,.98,2.355ZM204.6,88.328h3.344V86.672a1.672,1.672,0,0,0-3.344,0ZM214.6,95V80h3.328v5a2.066,2.066,0,0,1,.52-1.258,1.566,1.566,0,0,1,1.152-.414h1.672a3.19,3.19,0,0,1,2.348.988,3.229,3.229,0,0,1,.98,2.355V95h-3.328V86.672a1.672,1.672,0,0,0-3.344,0V95ZM227.93,81.672V80h3.328v1.672Zm0,13.328V83.328h3.328V95Zm6.672,0V83.328h3.328V85a2.066,2.066,0,0,1,.52-1.258,1.566,1.566,0,0,1,1.152-.414h1.672a3.19,3.19,0,0,1,2.348.988,3.229,3.229,0,0,1,.98,2.355V95h-3.328V86.672a1.672,1.672,0,0,0-3.344,0V95Zm23.328,0H254.6V93.328Q254.406,95,252.93,95h-1.672a3.348,3.348,0,0,1-3.328-3.328v-5a3.354,3.354,0,0,1,3.328-3.344H254.6V80h3.328ZM254.6,85H252.93a1.681,1.681,0,0,0-1.672,1.672v5a1.672,1.672,0,0,0,3.344,0Zm19.867,1.672h-1.656Q272.617,85,271.141,85a1.681,1.681,0,0,0-1.672,1.672v5a1.674,1.674,0,0,0,1.672,1.656q1.477,0,1.672-1.656h1.656Q274.266,95,271.141,95h-1.672a3.348,3.348,0,0,1-3.328-3.328v-5a3.354,3.354,0,0,1,3.328-3.344h1.672Q274.281,83.328,274.469,86.672ZM281.141,95h-3.328V83.328h3.328v3.344a4.116,4.116,0,0,1,1.031-2.508,3.125,3.125,0,0,1,2.313-.836h1.656v3.344h-3.328a1.616,1.616,0,0,0-1.18.488,1.587,1.587,0,0,0-.492,1.168Zm16.672-5h-6.672v1.672a1.674,1.674,0,0,0,1.672,1.656h1.672a1.464,1.464,0,0,0,1.656-1.656h1.672Q297.422,95,294.484,95h-3.344a3.348,3.348,0,0,1-3.328-3.328v-5a3.354,3.354,0,0,1,3.328-3.344h3.344a3.19,3.19,0,0,1,2.348.988,3.229,3.229,0,0,1,.98,2.355Zm-6.672-1.672h3.344V86.672a1.672,1.672,0,0,0-3.344,0Zm16.672,0V86.672A1.687,1.687,0,0,0,306.141,85h-1.672q-1.477,0-1.656,1.672h-1.672q.383-3.344,3.328-3.344h3.344a3.19,3.19,0,0,1,2.348.988,3.229,3.229,0,0,1,.98,2.355V95h-3.328V93.328Q307.617,95,306.141,95h-1.672a3.348,3.348,0,0,1-3.328-3.328v-.016a3.355,3.355,0,0,1,3.328-3.328Zm0,1.672h-1.672a1.616,1.616,0,0,0-1.18.488,1.587,1.587,0,0,0-.492,1.168v.016a1.672,1.672,0,0,0,3.344,0Zm8.328-10h3.328v3.328h1.672V85h-1.672v6.672A1.484,1.484,0,0,0,320,92.9a1.625,1.625,0,0,0,.984.426h.156V95h-1.672a3.341,3.341,0,0,1-3.328-3.328V85h-1.672V83.328h1.672Zm8.328,1.672V80H327.8v1.672Zm0,13.328V83.328H327.8V95Zm6.672,0V83.328h3.328V85a2.066,2.066,0,0,1,.52-1.258,1.566,1.566,0,0,1,1.152-.414h1.672a3.19,3.19,0,0,1,2.348.988,3.229,3.229,0,0,1,.98,2.355V95h-3.328V86.672a1.672,1.672,0,0,0-3.344,0V95Zm23.328-11.672V96.672A3.368,3.368,0,0,1,351.141,100H347.8q-2.945,0-3.328-3.328h1.672q.117,1.656,1.656,1.656h1.672a1.62,1.62,0,0,0,1.176-.488,1.581,1.581,0,0,0,.5-1.168V93.328Q350.945,95,349.469,95H347.8a3.348,3.348,0,0,1-3.328-3.328v-5a3.354,3.354,0,0,1,3.328-3.344ZM351.141,85h-1.672a1.681,1.681,0,0,0-1.672,1.672v5a1.672,1.672,0,0,0,3.344,0Zm11.539-1.672h3.328V85a1.691,1.691,0,0,1,.422-1.258,1.715,1.715,0,0,1,1.25-.414h1.672a3.19,3.19,0,0,1,2.348.988,3.229,3.229,0,0,1,.98,2.355v5A3.348,3.348,0,0,1,369.352,95h-3.344v3.328H362.68Zm3.328,10h1.672a1.62,1.62,0,0,0,1.176-.488,1.581,1.581,0,0,0,.5-1.168v-5a1.59,1.59,0,0,0-.5-1.176,1.62,1.62,0,0,0-1.176-.488,1.582,1.582,0,0,0-1.18.484,1.609,1.609,0,0,0-.492,1.18ZM379.336,95h-3.328V83.328h3.328v3.344a4.116,4.116,0,0,1,1.031-2.508,3.125,3.125,0,0,1,2.313-.836h1.656v3.344h-3.328a1.616,1.616,0,0,0-1.18.488,1.587,1.587,0,0,0-.492,1.168Zm10-11.672h3.344a3.19,3.19,0,0,1,2.348.988,3.229,3.229,0,0,1,.98,2.355v5A3.361,3.361,0,0,1,392.68,95h-3.344a3.348,3.348,0,0,1-3.328-3.328v-5a3.354,3.354,0,0,1,3.328-3.344Zm0,3.344v5a1.672,1.672,0,0,0,3.344,0v-5a1.672,1.672,0,0,0-3.344,0Zm20-3.344V96.672A3.368,3.368,0,0,1,406.008,100h-3.344q-2.945,0-3.328-3.328h1.672q.117,1.656,1.656,1.656h1.672a1.62,1.62,0,0,0,1.176-.488,1.581,1.581,0,0,0,.5-1.168V93.328Q405.812,95,404.336,95h-1.672a3.348,3.348,0,0,1-3.328-3.328v-5a3.354,3.354,0,0,1,3.328-3.344ZM406.008,85h-1.672a1.681,1.681,0,0,0-1.672,1.672v5a1.672,1.672,0,0,0,3.344,0Zm9.984,10h-3.328V83.328h3.328v3.344a4.116,4.116,0,0,1,1.031-2.508,3.125,3.125,0,0,1,2.313-.836h1.656v3.344h-3.328a1.616,1.616,0,0,0-1.18.488,1.587,1.587,0,0,0-.492,1.168Zm13.344-6.672V86.672A1.687,1.687,0,0,0,427.664,85h-1.672q-1.477,0-1.656,1.672h-1.672q.383-3.344,3.328-3.344h3.344a3.19,3.19,0,0,1,2.348.988,3.229,3.229,0,0,1,.98,2.355V95h-3.328V93.328Q429.141,95,427.664,95h-1.672a3.348,3.348,0,0,1-3.328-3.328v-.016a3.355,3.355,0,0,1,3.328-3.328Zm0,1.672h-1.672a1.616,1.616,0,0,0-1.18.488,1.587,1.587,0,0,0-.492,1.168v.016a1.672,1.672,0,0,0,3.344,0Zm16.656,5h-3.328V86.672a1.672,1.672,0,0,0-3.344,0V95h-3.328V83.328h3.328V85a2.066,2.066,0,0,1,.52-1.258,1.566,1.566,0,0,1,1.152-.414h1.672a2.815,2.815,0,0,1,2.5,1.18,2.435,2.435,0,0,1,1.016-.887,3.47,3.47,0,0,1,1.484-.293h1.656a3.361,3.361,0,0,1,3.344,3.344V95H449.32V86.672a1.613,1.613,0,0,0-.492-1.176,1.585,1.585,0,0,0-1.164-.5,1.681,1.681,0,0,0-1.672,1.672Zm18.328-8.328h-1.656Q462.445,85,461.086,85a2.134,2.134,0,0,0-1.328.348,1.233,1.233,0,0,0-.445,1.035q0,.719,2.43,2.016a5.317,5.317,0,0,1,2.277,1.762,3.726,3.726,0,0,1,.3,1.488A3.348,3.348,0,0,1,460.992,95H459.32q-3.328,0-3.328-3.328h1.672q.2,1.664,1.563,1.664a2.116,2.116,0,0,0,1.328-.352A1.244,1.244,0,0,0,461,91.945q0-.7-2.422-2.016a5.264,5.264,0,0,1-2.285-1.758,3.735,3.735,0,0,1-.3-1.484,3.354,3.354,0,0,1,3.328-3.359h1.672Q464.117,83.328,464.32,86.672ZM10,111.672H8.344Q8.125,110,6.766,110a2.134,2.134,0,0,0-1.328.348,1.233,1.233,0,0,0-.445,1.035q0,.719,2.43,2.016A5.317,5.317,0,0,1,9.7,115.16a3.726,3.726,0,0,1,.3,1.488A3.348,3.348,0,0,1,6.672,120H5q-3.328,0-3.328-3.328H3.344q.2,1.664,1.563,1.664a2.116,2.116,0,0,0,1.328-.352,1.244,1.244,0,0,0,.445-1.039q0-.7-2.422-2.016a5.264,5.264,0,0,1-2.285-1.758,3.735,3.735,0,0,1-.3-1.484,3.233,3.233,0,0,1,.984-2.379A3.207,3.207,0,0,1,5,108.328H6.672Q9.8,108.328,10,111.672ZM13.344,120V105h3.328v5a2.066,2.066,0,0,1,.52-1.258,1.566,1.566,0,0,1,1.152-.414h1.672a3.19,3.19,0,0,1,2.348.988,3.229,3.229,0,0,1,.98,2.355V120H20.016v-8.328a1.672,1.672,0,0,0-3.344,0V120ZM30,108.328h3.344a3.19,3.19,0,0,1,2.348.988,3.229,3.229,0,0,1,.98,2.355v5A3.361,3.361,0,0,1,33.344,120H30a3.348,3.348,0,0,1-3.328-3.328v-5A3.354,3.354,0,0,1,30,108.328Zm0,3.344v5a1.672,1.672,0,0,0,3.344,0v-5a1.672,1.672,0,0,0-3.344,0Zm20-3.344V120H46.672v-1.672Q46.477,120,45,120H43.328A3.348,3.348,0,0,1,40,116.672v-8.344h3.328v8.344a1.672,1.672,0,0,0,3.344,0v-8.344ZM53.328,120V105h3.328v15ZM70,120H66.672v-1.672Q66.477,120,65,120H63.328A3.348,3.348,0,0,1,60,116.672v-5a3.354,3.354,0,0,1,3.328-3.344h3.344V105H70Zm-3.328-10H65a1.681,1.681,0,0,0-1.672,1.672v5a1.672,1.672,0,0,0,3.344,0Zm11.539,10V105h3.328v5a2.066,2.066,0,0,1,.52-1.258,1.566,1.566,0,0,1,1.152-.414h1.672a3.19,3.19,0,0,1,2.348.988,3.229,3.229,0,0,1,.98,2.355v5A3.361,3.361,0,0,1,84.883,120Zm3.328-1.672h1.672a1.674,1.674,0,0,0,1.672-1.656v-5a1.672,1.672,0,0,0-3.344,0Zm20-3.328H94.867v1.672a1.674,1.674,0,0,0,1.672,1.656h1.672a1.464,1.464,0,0,0,1.656-1.656h1.672Q101.148,120,98.211,120H94.867a3.348,3.348,0,0,1-3.328-3.328v-5a3.354,3.354,0,0,1,3.328-3.344h3.344a3.19,3.19,0,0,1,2.348.988,3.229,3.229,0,0,1,.98,2.355Zm-6.672-1.672h3.344v-1.656a1.672,1.672,0,0,0-3.344,0ZM119.75,120h-3.328v-1.672q-.2,1.672-1.672,1.672h-1.672a3.348,3.348,0,0,1-3.328-3.328v-5a3.354,3.354,0,0,1,3.328-3.344h3.344V105h3.328Zm-3.328-10H114.75a1.681,1.681,0,0,0-1.672,1.672v5a1.672,1.672,0,0,0,3.344,0Zm9.984,10h-3.328V108.328h3.328v3.344a4.116,4.116,0,0,1,1.031-2.508,3.125,3.125,0,0,1,2.313-.836h1.656v3.344h-3.328a1.616,1.616,0,0,0-1.18.488,1.587,1.587,0,0,0-.492,1.168Zm6.672-13.328V105h3.328v1.672Zm0,13.328V108.328h3.328V120Zm13.344-11.672h3.328V114.3a5.735,5.735,0,0,1-5.7,5.7h-4.3V108.328h3.328v10h1.672a1.674,1.674,0,0,0,1.672-1.656ZM163.078,115h-6.672v1.672a1.674,1.674,0,0,0,1.672,1.656h1.672a1.464,1.464,0,0,0,1.656-1.656h1.672Q162.687,120,159.75,120h-3.344a3.348,3.348,0,0,1-3.328-3.328v-5a3.354,3.354,0,0,1,3.328-3.344h3.344a3.19,3.19,0,0,1,2.348.988,3.229,3.229,0,0,1,.98,2.355Zm-6.672-1.672h3.344v-1.656a1.672,1.672,0,0,0-3.344,0Zm10,6.672V108.328h3.328V110a2.066,2.066,0,0,1,.52-1.258,1.566,1.566,0,0,1,1.152-.414h1.672a3.19,3.19,0,0,1,2.348.988,3.229,3.229,0,0,1,.98,2.355V120h-3.328v-8.328a1.672,1.672,0,0,0-3.344,0V120Zm18.211,0V105h3.328v5a2.066,2.066,0,0,1,.52-1.258,1.566,1.566,0,0,1,1.152-.414h1.672a3.19,3.19,0,0,1,2.348.988,3.229,3.229,0,0,1,.98,2.355v5A3.361,3.361,0,0,1,191.289,120Zm3.328-1.672h1.672a1.674,1.674,0,0,0,1.672-1.656v-5a1.672,1.672,0,0,0-3.344,0Zm11.672,3.344q.117,1.656,1.656,1.656h1.672a1.62,1.62,0,0,0,1.176-.488,1.581,1.581,0,0,0,.5-1.168v-3.344q-.2,1.672-1.672,1.672h-1.672a3.348,3.348,0,0,1-3.328-3.328v-8.344h3.328v8.344a1.672,1.672,0,0,0,3.344,0v-8.344h3.328v13.344A3.368,3.368,0,0,1,204.617,125h-3.344q-2.945,0-3.328-3.328Zm16.539-13.344h3.328V110a1.691,1.691,0,0,1,.422-1.258,1.715,1.715,0,0,1,1.25-.414h1.672a3.19,3.19,0,0,1,2.348.988,3.229,3.229,0,0,1,.98,2.355v5A3.348,3.348,0,0,1,222.828,120h-3.344v3.328h-3.328Zm3.328,10h1.672a1.62,1.62,0,0,0,1.176-.488,1.581,1.581,0,0,0,.5-1.168v-5a1.59,1.59,0,0,0-.5-1.176,1.62,1.62,0,0,0-1.176-.488,1.582,1.582,0,0,0-1.18.484,1.609,1.609,0,0,0-.492,1.18Zm16.672-5v-1.656A1.687,1.687,0,0,0,234.484,110h-1.672q-1.477,0-1.656,1.672h-1.672q.383-3.344,3.328-3.344h3.344a3.19,3.19,0,0,1,2.348.988,3.229,3.229,0,0,1,.98,2.355V120h-3.328v-1.672q-.2,1.672-1.672,1.672h-1.672a3.348,3.348,0,0,1-3.328-3.328v-.016a3.355,3.355,0,0,1,3.328-3.328Zm0,1.672h-1.672a1.616,1.616,0,0,0-1.18.488,1.587,1.587,0,0,0-.492,1.168v.016a1.672,1.672,0,0,0,3.344,0Zm14.984-3.328h-1.656Q249.266,110,247.906,110a2.134,2.134,0,0,0-1.328.348,1.233,1.233,0,0,0-.445,1.035q0,.719,2.43,2.016a5.317,5.317,0,0,1,2.277,1.762,3.726,3.726,0,0,1,.3,1.488A3.348,3.348,0,0,1,247.813,120h-1.672q-3.328,0-3.328-3.328h1.672q.2,1.664,1.563,1.664a2.116,2.116,0,0,0,1.328-.352,1.244,1.244,0,0,0,.445-1.039q0-.7-2.422-2.016a5.264,5.264,0,0,1-2.285-1.758,3.735,3.735,0,0,1-.3-1.484,3.354,3.354,0,0,1,3.328-3.359h1.672Q250.937,108.328,251.141,111.672Zm11.672,0h-1.656Q260.937,110,259.578,110a2.134,2.134,0,0,0-1.328.348,1.233,1.233,0,0,0-.445,1.035q0,.719,2.43,2.016a5.317,5.317,0,0,1,2.277,1.762,3.726,3.726,0,0,1,.3,1.488A3.348,3.348,0,0,1,259.484,120h-1.672q-3.328,0-3.328-3.328h1.672q.2,1.664,1.563,1.664a2.116,2.116,0,0,0,1.328-.352,1.244,1.244,0,0,0,.445-1.039q0-.7-2.422-2.016a5.264,5.264,0,0,1-2.285-1.758,3.735,3.735,0,0,1-.3-1.484,3.354,3.354,0,0,1,3.328-3.359h1.672Q262.609,108.328,262.813,111.672Zm3.344-5V105h3.328v1.672Zm0,13.328V108.328h3.328V120Zm10-11.672H279.5a3.19,3.19,0,0,1,2.348.988,3.229,3.229,0,0,1,.98,2.355v5A3.361,3.361,0,0,1,279.5,120h-3.344a3.348,3.348,0,0,1-3.328-3.328v-5a3.354,3.354,0,0,1,3.328-3.344Zm0,3.344v5a1.672,1.672,0,0,0,3.344,0v-5a1.672,1.672,0,0,0-3.344,0Zm10,8.328V108.328h3.328V110a2.066,2.066,0,0,1,.52-1.258,1.566,1.566,0,0,1,1.152-.414h1.672a3.19,3.19,0,0,1,2.348.988,3.229,3.229,0,0,1,.98,2.355V120h-3.328v-8.328a1.672,1.672,0,0,0-3.344,0V120Zm24.883-6.672v-1.656A1.687,1.687,0,0,0,309.367,110H307.7q-1.477,0-1.656,1.672h-1.672q.383-3.344,3.328-3.344h3.344a3.19,3.19,0,0,1,2.348.988,3.229,3.229,0,0,1,.98,2.355V120h-3.328v-1.672q-.2,1.672-1.672,1.672H307.7a3.348,3.348,0,0,1-3.328-3.328v-.016a3.355,3.355,0,0,1,3.328-3.328Zm0,1.672h-1.672a1.616,1.616,0,0,0-1.18.488,1.587,1.587,0,0,0-.492,1.168v.016a1.672,1.672,0,0,0,3.344,0Zm6.656,5V108.328h3.328V110a2.066,2.066,0,0,1,.52-1.258,1.566,1.566,0,0,1,1.152-.414h1.672a3.19,3.19,0,0,1,2.348.988,3.229,3.229,0,0,1,.98,2.355V120h-3.328v-8.328a1.672,1.672,0,0,0-3.344,0V120Zm23.328,0H337.7v-1.672Q337.5,120,336.023,120h-1.672a3.348,3.348,0,0,1-3.328-3.328v-5a3.354,3.354,0,0,1,3.328-3.344H337.7V105h3.328ZM337.7,110h-1.672a1.681,1.681,0,0,0-1.672,1.672v5a1.672,1.672,0,0,0,3.344,0Zm24.75,1.672h-1.656q-.2-1.672-1.672-1.672a1.681,1.681,0,0,0-1.672,1.672v5a1.674,1.674,0,0,0,1.672,1.656q1.477,0,1.672-1.656h1.656q-.2,3.328-3.328,3.328h-1.672a3.348,3.348,0,0,1-3.328-3.328v-5a3.354,3.354,0,0,1,3.328-3.344h1.672Q362.258,108.328,362.445,111.672ZM369.117,120h-3.328V108.328h3.328v3.344a4.116,4.116,0,0,1,1.031-2.508,3.125,3.125,0,0,1,2.313-.836h1.656v3.344h-3.328a1.616,1.616,0,0,0-1.18.488,1.587,1.587,0,0,0-.492,1.168Zm16.672-5h-6.672v1.672a1.674,1.674,0,0,0,1.672,1.656h1.672a1.464,1.464,0,0,0,1.656-1.656h1.672Q385.4,120,382.461,120h-3.344a3.348,3.348,0,0,1-3.328-3.328v-5a3.354,3.354,0,0,1,3.328-3.344h3.344a3.19,3.19,0,0,1,2.348.988,3.229,3.229,0,0,1,.98,2.355Zm-6.672-1.672h3.344v-1.656a1.672,1.672,0,0,0-3.344,0Zm16.672,0v-1.656A1.687,1.687,0,0,0,394.117,110h-1.672q-1.477,0-1.656,1.672h-1.672q.383-3.344,3.328-3.344h3.344a3.19,3.19,0,0,1,2.348.988,3.229,3.229,0,0,1,.98,2.355V120h-3.328v-1.672q-.2,1.672-1.672,1.672h-1.672a3.348,3.348,0,0,1-3.328-3.328v-.016a3.355,3.355,0,0,1,3.328-3.328Zm0,1.672h-1.672a1.616,1.616,0,0,0-1.18.488,1.587,1.587,0,0,0-.492,1.168v.016a1.672,1.672,0,0,0,3.344,0Zm8.328-10h3.328v3.328h1.672V110h-1.672v6.672a1.484,1.484,0,0,0,.531,1.23,1.625,1.625,0,0,0,.984.426h.156V120h-1.672a3.341,3.341,0,0,1-3.328-3.328V110h-1.672v-1.672h1.672Zm8.328,1.672V105h3.328v1.672Zm0,13.328V108.328h3.328V120Zm13.344-11.672h3.328V114.3a5.735,5.735,0,0,1-5.7,5.7h-4.3V108.328h3.328v10h1.672a1.674,1.674,0,0,0,1.672-1.656Zm6.656-1.656V105h3.328v1.672Zm0,13.328V108.328h3.328V120Zm8.344-15h3.328v3.328h1.672V110h-1.672v6.672a1.484,1.484,0,0,0,.531,1.23,1.625,1.625,0,0,0,.984.426h.156V120h-1.672a3.341,3.341,0,0,1-3.328-3.328V110h-1.672v-1.672h1.672Zm10,16.672q.117,1.656,1.656,1.656h1.672a1.62,1.62,0,0,0,1.176-.488,1.581,1.581,0,0,0,.5-1.168v-3.344q-.2,1.672-1.672,1.672h-1.672a3.348,3.348,0,0,1-3.328-3.328v-8.344h3.328v8.344a1.672,1.672,0,0,0,3.344,0v-8.344h3.328v13.344A3.368,3.368,0,0,1,455.789,125h-3.344q-2.945,0-3.328-3.328ZM462.445,120v-3.328h3.328V120ZM474,120V105h.758l7.125,7.109L489,105h1.672v15h-3.344v-9.172l-5.852,5.852-5.8-5.852V120Zm21.672,1.672q.117,1.656,1.656,1.656H499a1.62,1.62,0,0,0,1.176-.488,1.581,1.581,0,0,0,.5-1.168v-3.344Q500.477,120,499,120h-1.672A3.348,3.348,0,0,1,494,116.672v-8.344h3.328v8.344a1.672,1.672,0,0,0,3.344,0v-8.344H504v13.344A3.368,3.368,0,0,1,500.672,125h-3.344q-2.945,0-3.328-3.328Zm-494,11.656H5V135a1.691,1.691,0,0,1,.422-1.258,1.715,1.715,0,0,1,1.25-.414H8.344a3.19,3.19,0,0,1,2.348.988,3.229,3.229,0,0,1,.98,2.355v5a3.2,3.2,0,0,1-.98,2.348,3.2,3.2,0,0,1-2.348.98H5v3.328H1.672Zm3.328,10H6.672a1.62,1.62,0,0,0,1.176-.488,1.581,1.581,0,0,0,.5-1.168v-5a1.59,1.59,0,0,0-.5-1.176,1.62,1.62,0,0,0-1.176-.488,1.582,1.582,0,0,0-1.18.484A1.609,1.609,0,0,0,5,136.672Zm13.328-10h3.344a3.19,3.19,0,0,1,2.348.988,3.229,3.229,0,0,1,.98,2.355v5A3.361,3.361,0,0,1,21.672,145H18.328A3.348,3.348,0,0,1,15,141.672v-5a3.354,3.354,0,0,1,3.328-3.344Zm0,3.344v5a1.672,1.672,0,0,0,3.344,0v-5a1.672,1.672,0,0,0-3.344,0ZM31.656,145H28.328V133.328h3.328v3.344a4.116,4.116,0,0,1,1.031-2.508A3.125,3.125,0,0,1,35,133.328h1.656v3.344H33.328a1.616,1.616,0,0,0-1.18.488,1.587,1.587,0,0,0-.492,1.168ZM40,130h3.328v3.328H45V135H43.328v6.672a1.484,1.484,0,0,0,.531,1.23,1.625,1.625,0,0,0,.984.426H45V145H43.328A3.341,3.341,0,0,1,40,141.672V135H38.328v-1.672H40Zm10,15V135H48.328v-1.672H50v-.148A3.2,3.2,0,0,1,53.18,130h3.477v1.672H54.844a1.527,1.527,0,0,0-1.516,1.508v.148H55V135H53.328v10Zm11.656-11.672H65a3.19,3.19,0,0,1,2.348.988,3.229,3.229,0,0,1,.98,2.355v5A3.361,3.361,0,0,1,65,145H61.656a3.348,3.348,0,0,1-3.328-3.328v-5a3.354,3.354,0,0,1,3.328-3.344Zm0,3.344v5a1.672,1.672,0,0,0,3.344,0v-5a1.672,1.672,0,0,0-3.344,0Zm10,8.328V130h3.328v15Zm6.672-13.328V130h3.328v1.672Zm0,13.328V133.328h3.328V145Zm10-11.672h3.344a3.19,3.19,0,0,1,2.348.988,3.229,3.229,0,0,1,.98,2.355v5A3.361,3.361,0,0,1,91.672,145H88.328A3.348,3.348,0,0,1,85,141.672v-5a3.354,3.354,0,0,1,3.328-3.344Zm0,3.344v5a1.672,1.672,0,0,0,3.344,0v-5a1.672,1.672,0,0,0-3.344,0Zm23.211,0h-1.656Q109.664,135,108.3,135a2.134,2.134,0,0,0-1.328.348,1.233,1.233,0,0,0-.445,1.035q0,.719,2.43,2.016a5.317,5.317,0,0,1,2.277,1.762,3.726,3.726,0,0,1,.3,1.488A3.348,3.348,0,0,1,108.211,145h-1.672q-3.328,0-3.328-3.328h1.672q.2,1.664,1.563,1.664a2.116,2.116,0,0,0,1.328-.352,1.244,1.244,0,0,0,.445-1.039q0-.7-2.422-2.016a5.264,5.264,0,0,1-2.285-1.758,3.735,3.735,0,0,1-.3-1.484,3.354,3.354,0,0,1,3.328-3.359h1.672Q111.336,133.328,111.539,136.672ZM114.883,145V130h3.328v5a2.066,2.066,0,0,1,.52-1.258,1.566,1.566,0,0,1,1.152-.414h1.672a3.19,3.19,0,0,1,2.348.988,3.229,3.229,0,0,1,.98,2.355V145h-3.328v-8.328a1.672,1.672,0,0,0-3.344,0V145Zm16.656-11.672h3.344a3.19,3.19,0,0,1,2.348.988,3.229,3.229,0,0,1,.98,2.355v5A3.361,3.361,0,0,1,134.883,145h-3.344a3.348,3.348,0,0,1-3.328-3.328v-5a3.354,3.354,0,0,1,3.328-3.344Zm0,3.344v5a1.672,1.672,0,0,0,3.344,0v-5a1.672,1.672,0,0,0-3.344,0Zm10-3.344h3.328v10h1.672a1.674,1.674,0,0,0,1.672-1.656v-8.344h3.328v10h1.672a1.674,1.674,0,0,0,1.656-1.656v-8.344h3.344V139.3a5.735,5.735,0,0,1-5.7,5.7h-4.3v-.531a4.835,4.835,0,0,1-2.367.531h-4.3Zm28.328,3.344h-1.656q-.2-1.672-1.672-1.672a1.681,1.681,0,0,0-1.672,1.672v5a1.674,1.674,0,0,0,1.672,1.656q1.477,0,1.672-1.656h1.656q-.2,3.328-3.328,3.328h-1.672a3.348,3.348,0,0,1-3.328-3.328v-5a3.354,3.354,0,0,1,3.328-3.344h1.672Q169.68,133.328,169.867,136.672Zm10.016,1.656v-1.656A1.687,1.687,0,0,0,178.211,135h-1.672q-1.477,0-1.656,1.672h-1.672q.383-3.344,3.328-3.344h3.344a3.19,3.19,0,0,1,2.348.988,3.229,3.229,0,0,1,.98,2.355V145h-3.328v-1.672q-.2,1.672-1.672,1.672h-1.672a3.348,3.348,0,0,1-3.328-3.328v-.016a3.355,3.355,0,0,1,3.328-3.328Zm0,1.672h-1.672a1.616,1.616,0,0,0-1.18.488,1.587,1.587,0,0,0-.492,1.168v.016a1.672,1.672,0,0,0,3.344,0Zm14.984-3.328h-1.656Q192.992,135,191.633,135a2.134,2.134,0,0,0-1.328.348,1.233,1.233,0,0,0-.445,1.035q0,.719,2.43,2.016a5.317,5.317,0,0,1,2.277,1.762,3.726,3.726,0,0,1,.3,1.488A3.348,3.348,0,0,1,191.539,145h-1.672q-3.328,0-3.328-3.328h1.672q.2,1.664,1.563,1.664a2.116,2.116,0,0,0,1.328-.352,1.244,1.244,0,0,0,.445-1.039q0-.7-2.422-2.016a5.264,5.264,0,0,1-2.285-1.758,3.735,3.735,0,0,1-.3-1.484,3.354,3.354,0,0,1,3.328-3.359h1.672Q194.664,133.328,194.867,136.672ZM208.211,140h-6.672v1.672a1.674,1.674,0,0,0,1.672,1.656h1.672a1.464,1.464,0,0,0,1.656-1.656h1.672Q207.82,145,204.883,145h-3.344a3.348,3.348,0,0,1-3.328-3.328v-5a3.354,3.354,0,0,1,3.328-3.344h3.344a3.19,3.19,0,0,1,2.348.988,3.229,3.229,0,0,1,.98,2.355Zm-6.672-1.672h3.344v-1.656a1.672,1.672,0,0,0-3.344,0Zm18.328-1.656h-1.656Q217.992,135,216.633,135a2.134,2.134,0,0,0-1.328.348,1.233,1.233,0,0,0-.445,1.035q0,.719,2.43,2.016a5.317,5.317,0,0,1,2.277,1.762,3.726,3.726,0,0,1,.3,1.488A3.348,3.348,0,0,1,216.539,145h-1.672q-3.328,0-3.328-3.328h1.672q.2,1.664,1.563,1.664a2.116,2.116,0,0,0,1.328-.352,1.244,1.244,0,0,0,.445-1.039q0-.7-2.422-2.016a5.264,5.264,0,0,1-2.285-1.758,3.735,3.735,0,0,1-.3-1.484,3.354,3.354,0,0,1,3.328-3.359h1.672Q219.664,133.328,219.867,136.672Zm8.227-3.344h3.328V135a1.691,1.691,0,0,1,.422-1.258,1.715,1.715,0,0,1,1.25-.414h1.672a3.19,3.19,0,0,1,2.348.988,3.229,3.229,0,0,1,.98,2.355v5A3.348,3.348,0,0,1,234.766,145h-3.344v3.328h-3.328Zm3.328,10h1.672a1.62,1.62,0,0,0,1.176-.488,1.581,1.581,0,0,0,.5-1.168v-5a1.59,1.59,0,0,0-.5-1.176,1.62,1.62,0,0,0-1.176-.488,1.582,1.582,0,0,0-1.18.484,1.609,1.609,0,0,0-.492,1.18ZM244.75,145h-3.328V133.328h3.328v3.344a4.115,4.115,0,0,1,1.031-2.508,3.125,3.125,0,0,1,2.313-.836h1.656v3.344h-3.328a1.616,1.616,0,0,0-1.18.488,1.587,1.587,0,0,0-.492,1.168Zm10-11.672h3.344a3.19,3.19,0,0,1,2.348.988,3.229,3.229,0,0,1,.98,2.355v5A3.361,3.361,0,0,1,258.094,145H254.75a3.348,3.348,0,0,1-3.328-3.328v-5a3.354,3.354,0,0,1,3.328-3.344Zm0,3.344v5a1.672,1.672,0,0,0,3.344,0v-5a1.672,1.672,0,0,0-3.344,0Zm13.328-5V130h3.328v1.672Zm0,1.656h3.328V145a3.348,3.348,0,0,1-3.328,3.328h-1.672q-2.945,0-3.328-3.328h1.672q.148,1.672,1.656,1.672A1.681,1.681,0,0,0,268.078,145ZM284.75,140h-6.672v1.672a1.674,1.674,0,0,0,1.672,1.656h1.672a1.464,1.464,0,0,0,1.656-1.656h1.672Q284.359,145,281.422,145h-3.344a3.348,3.348,0,0,1-3.328-3.328v-5a3.354,3.354,0,0,1,3.328-3.344h3.344a3.19,3.19,0,0,1,2.348.988,3.229,3.229,0,0,1,.98,2.355Zm-6.672-1.672h3.344v-1.656a1.672,1.672,0,0,0-3.344,0Zm18.328-1.656H294.75q-.2-1.672-1.672-1.672a1.681,1.681,0,0,0-1.672,1.672v5a1.674,1.674,0,0,0,1.672,1.656q1.477,0,1.672-1.656h1.656Q296.2,145,293.078,145h-1.672a3.348,3.348,0,0,1-3.328-3.328v-5a3.354,3.354,0,0,1,3.328-3.344h1.672Q296.219,133.328,296.406,136.672ZM301.422,130h3.328v3.328h1.672V135H304.75v6.672a1.484,1.484,0,0,0,.531,1.23,1.624,1.624,0,0,0,.984.426h.156V145H304.75a3.341,3.341,0,0,1-3.328-3.328V135H299.75v-1.672h1.672Zm16.656,6.672h-1.656Q316.2,135,314.844,135a2.134,2.134,0,0,0-1.328.348,1.233,1.233,0,0,0-.445,1.035q0,.719,2.43,2.016a5.317,5.317,0,0,1,2.277,1.762,3.726,3.726,0,0,1,.3,1.488A3.348,3.348,0,0,1,314.75,145h-1.672q-3.328,0-3.328-3.328h1.672q.2,1.664,1.563,1.664a2.116,2.116,0,0,0,1.328-.352,1.244,1.244,0,0,0,.445-1.039q0-.7-2.422-2.016a5.264,5.264,0,0,1-2.285-1.758,3.735,3.735,0,0,1-.3-1.484,3.354,3.354,0,0,1,3.328-3.359h1.672Q317.875,133.328,318.078,136.672Zm9.9-6.672H331.3v3.328h1.672V135H331.3v6.672a1.484,1.484,0,0,0,.531,1.23,1.624,1.624,0,0,0,.984.426h.156V145H331.3a3.341,3.341,0,0,1-3.328-3.328V135H326.3v-1.672h1.672Zm8.328,15V130h3.328v5a2.066,2.066,0,0,1,.52-1.258,1.566,1.566,0,0,1,1.152-.414h1.672a3.19,3.19,0,0,1,2.348.988,3.229,3.229,0,0,1,.98,2.355V145h-3.328v-8.328a1.672,1.672,0,0,0-3.344,0V145Zm20-6.672v-1.656A1.687,1.687,0,0,0,354.633,135h-1.672q-1.477,0-1.656,1.672h-1.672q.383-3.344,3.328-3.344H356.3a3.19,3.19,0,0,1,2.348.988,3.229,3.229,0,0,1,.98,2.355V145H356.3v-1.672q-.2,1.672-1.672,1.672h-1.672a3.348,3.348,0,0,1-3.328-3.328v-.016a3.355,3.355,0,0,1,3.328-3.328Zm0,1.672h-1.672a1.616,1.616,0,0,0-1.18.488,1.587,1.587,0,0,0-.492,1.168v.016a1.672,1.672,0,0,0,3.344,0Zm8.328-10h3.328v3.328h1.672V135h-1.672v6.672a1.484,1.484,0,0,0,.531,1.23,1.624,1.624,0,0,0,.984.426h.156V145h-1.672a3.341,3.341,0,0,1-3.328-3.328V135h-1.672v-1.672h1.672ZM379.5,145V130h3.336v15Zm13.227-11.672h3.328V135a1.691,1.691,0,0,1,.422-1.258,1.715,1.715,0,0,1,1.25-.414H399.4a3.19,3.19,0,0,1,2.348.988,3.229,3.229,0,0,1,.98,2.355v5A3.348,3.348,0,0,1,399.4,145h-3.344v3.328h-3.328Zm3.328,10h1.672a1.62,1.62,0,0,0,1.176-.488,1.581,1.581,0,0,0,.5-1.168v-5a1.59,1.59,0,0,0-.5-1.176,1.62,1.62,0,0,0-1.176-.488,1.582,1.582,0,0,0-1.18.484,1.609,1.609,0,0,0-.492,1.18Zm20-10V145h-3.328v-1.672q-.2,1.672-1.672,1.672h-1.672a3.348,3.348,0,0,1-3.328-3.328v-8.344h3.328v8.344a1.672,1.672,0,0,0,3.344,0v-8.344ZM419.383,145V130h3.328v5a2.066,2.066,0,0,1,.52-1.258,1.566,1.566,0,0,1,1.152-.414h1.672a3.19,3.19,0,0,1,2.348.988,3.229,3.229,0,0,1,.98,2.355v5A3.361,3.361,0,0,1,426.055,145Zm3.328-1.672h1.672a1.674,1.674,0,0,0,1.672-1.656v-5a1.672,1.672,0,0,0-3.344,0Zm10,1.672V130h3.328v15Zm6.672-13.328V130h3.328v1.672Zm0,13.328V133.328h3.328V145Zm15-8.328h-1.656Q452.508,135,451.148,135a2.134,2.134,0,0,0-1.328.348,1.233,1.233,0,0,0-.445,1.035q0,.719,2.43,2.016a5.317,5.317,0,0,1,2.277,1.762,3.726,3.726,0,0,1,.3,1.488A3.348,3.348,0,0,1,451.055,145h-1.672q-3.328,0-3.328-3.328h1.672q.2,1.664,1.563,1.664a2.116,2.116,0,0,0,1.328-.352,1.244,1.244,0,0,0,.445-1.039q0-.7-2.422-2.016a5.264,5.264,0,0,1-2.285-1.758,3.735,3.735,0,0,1-.3-1.484,3.354,3.354,0,0,1,3.328-3.359h1.672Q454.18,133.328,454.383,136.672ZM457.727,145V130h3.328v5a2.066,2.066,0,0,1,.52-1.258,1.566,1.566,0,0,1,1.152-.414H464.4a3.19,3.19,0,0,1,2.348.988,3.229,3.229,0,0,1,.98,2.355V145H464.4v-8.328a1.672,1.672,0,0,0-3.344,0V145Zm23.328-5h-6.672v1.672a1.674,1.674,0,0,0,1.672,1.656h1.672a1.464,1.464,0,0,0,1.656-1.656h1.672Q480.664,145,477.727,145h-3.344a3.348,3.348,0,0,1-3.328-3.328v-5a3.354,3.354,0,0,1,3.328-3.344h3.344a3.19,3.19,0,0,1,2.348.988,3.229,3.229,0,0,1,.98,2.355Zm-6.672-1.672h3.344v-1.656a1.672,1.672,0,0,0-3.344,0Zm20,6.672h-3.328v-1.672q-.2,1.672-1.672,1.672h-1.672a3.348,3.348,0,0,1-3.328-3.328v-5a3.354,3.354,0,0,1,3.328-3.344h3.344V130h3.328Zm-3.328-10h-1.672a1.681,1.681,0,0,0-1.672,1.672v5a1.672,1.672,0,0,0,3.344,0ZM1.672,170V155H5v5a2.066,2.066,0,0,1,.52-1.258,1.566,1.566,0,0,1,1.152-.414H8.344a3.19,3.19,0,0,1,2.348.988,3.229,3.229,0,0,1,.98,2.355v5A3.361,3.361,0,0,1,8.344,170ZM5,168.328H6.672a1.674,1.674,0,0,0,1.672-1.656v-5A1.687,1.687,0,0,0,6.672,160,1.681,1.681,0,0,0,5,161.672Zm16.672-5v-1.656A1.687,1.687,0,0,0,20,160H18.328q-1.477,0-1.656,1.672H15q.383-3.344,3.328-3.344h3.344a3.19,3.19,0,0,1,2.348.988,3.229,3.229,0,0,1,.98,2.355V170H21.672v-1.672Q21.477,170,20,170H18.328A3.348,3.348,0,0,1,15,166.672v-.016a3.355,3.355,0,0,1,3.328-3.328Zm0,1.672H20a1.616,1.616,0,0,0-1.18.488,1.587,1.587,0,0,0-.492,1.168v.016a1.672,1.672,0,0,0,3.344,0Zm14.984-3.328H35Q34.781,160,33.422,160a2.134,2.134,0,0,0-1.328.348,1.233,1.233,0,0,0-.445,1.035q0,.719,2.43,2.016a5.317,5.317,0,0,1,2.277,1.762,3.726,3.726,0,0,1,.3,1.488A3.348,3.348,0,0,1,33.328,170H31.656q-3.328,0-3.328-3.328H30q.2,1.664,1.563,1.664a2.116,2.116,0,0,0,1.328-.352,1.244,1.244,0,0,0,.445-1.039q0-.7-2.422-2.016a5.264,5.264,0,0,1-2.285-1.758,3.735,3.735,0,0,1-.3-1.484,3.354,3.354,0,0,1,3.328-3.359h1.672Q36.453,158.328,36.656,161.672ZM50,165H43.328v1.672A1.674,1.674,0,0,0,45,168.328h1.672a1.464,1.464,0,0,0,1.656-1.656H50Q49.609,170,46.672,170H43.328A3.348,3.348,0,0,1,40,166.672v-5a3.354,3.354,0,0,1,3.328-3.344h3.344a3.19,3.19,0,0,1,2.348.988,3.229,3.229,0,0,1,.98,2.355Zm-6.672-1.672h3.344v-1.656a1.672,1.672,0,0,0-3.344,0Zm20,6.672H60v-1.672Q59.8,170,58.328,170H56.656a3.348,3.348,0,0,1-3.328-3.328v-5a3.354,3.354,0,0,1,3.328-3.344H60V155h3.328ZM60,160H58.328a1.681,1.681,0,0,0-1.672,1.672v5a1.672,1.672,0,0,0,3.344,0Zm14.867-1.672h3.344a3.19,3.19,0,0,1,2.348.988,3.229,3.229,0,0,1,.98,2.355v5A3.361,3.361,0,0,1,78.211,170H74.867a3.348,3.348,0,0,1-3.328-3.328v-5a3.354,3.354,0,0,1,3.328-3.344Zm0,3.344v5a1.672,1.672,0,0,0,3.344,0v-5a1.672,1.672,0,0,0-3.344,0Zm10,8.328V158.328H88.2V160a2.066,2.066,0,0,1,.52-1.258,1.566,1.566,0,0,1,1.152-.414h1.672a3.19,3.19,0,0,1,2.348.988,3.229,3.229,0,0,1,.98,2.355V170H91.539v-8.328a1.672,1.672,0,0,0-3.344,0V170Zm19.883-15h3.328v3.328h1.672V160h-1.672v6.672a1.484,1.484,0,0,0,.531,1.23,1.625,1.625,0,0,0,.984.426h.156V170h-1.672a3.341,3.341,0,0,1-3.328-3.328V160h-1.672v-1.672h1.672Zm8.328,15V155h3.328v5a2.066,2.066,0,0,1,.52-1.258,1.566,1.566,0,0,1,1.152-.414h1.672a3.19,3.19,0,0,1,2.348.988,3.229,3.229,0,0,1,.98,2.355V170H119.75v-8.328a1.672,1.672,0,0,0-3.344,0V170Zm23.328-5h-6.672v1.672a1.674,1.674,0,0,0,1.672,1.656h1.672a1.464,1.464,0,0,0,1.656-1.656h1.672Q136.016,170,133.078,170h-3.344a3.348,3.348,0,0,1-3.328-3.328v-5a3.354,3.354,0,0,1,3.328-3.344h3.344a3.19,3.19,0,0,1,2.348.988,3.229,3.229,0,0,1,.98,2.355Zm-6.672-1.672h3.344v-1.656a1.672,1.672,0,0,0-3.344,0Zm14.883-5h3.328V160a1.691,1.691,0,0,1,.422-1.258,1.715,1.715,0,0,1,1.25-.414h1.672a3.19,3.19,0,0,1,2.348.988,3.229,3.229,0,0,1,.98,2.355v5A3.348,3.348,0,0,1,151.289,170h-3.344v3.328h-3.328Zm3.328,10h1.672a1.62,1.62,0,0,0,1.176-.488,1.581,1.581,0,0,0,.5-1.168v-5a1.59,1.59,0,0,0-.5-1.176,1.62,1.62,0,0,0-1.176-.488,1.582,1.582,0,0,0-1.18.484,1.609,1.609,0,0,0-.492,1.18ZM161.273,170h-3.328V158.328h3.328v3.344a4.115,4.115,0,0,1,1.031-2.508,3.125,3.125,0,0,1,2.313-.836h1.656v3.344h-3.328a1.616,1.616,0,0,0-1.18.488,1.587,1.587,0,0,0-.492,1.168Zm6.672-13.328V155h3.328v1.672Zm0,13.328V158.328h3.328V170Zm6.672,0V158.328h3.328V160a2.066,2.066,0,0,1,.52-1.258,1.566,1.566,0,0,1,1.152-.414h1.672a3.19,3.19,0,0,1,2.348.988,3.229,3.229,0,0,1,.98,2.355V170h-3.328v-8.328a1.672,1.672,0,0,0-3.344,0V170Zm21.656-8.328h-1.656q-.2-1.672-1.672-1.672a1.681,1.681,0,0,0-1.672,1.672v5a1.674,1.674,0,0,0,1.672,1.656q1.477,0,1.672-1.656h1.656q-.2,3.328-3.328,3.328h-1.672a3.348,3.348,0,0,1-3.328-3.328v-5a3.354,3.354,0,0,1,3.328-3.344h1.672Q196.086,158.328,196.273,161.672Zm3.344-5V155h3.328v1.672Zm0,13.328V158.328h3.328V170Zm6.672-11.672h3.328V160a1.691,1.691,0,0,1,.422-1.258,1.715,1.715,0,0,1,1.25-.414h1.672a3.19,3.19,0,0,1,2.348.988,3.229,3.229,0,0,1,.98,2.355v5A3.348,3.348,0,0,1,212.961,170h-3.344v3.328h-3.328Zm3.328,10h1.672a1.62,1.62,0,0,0,1.176-.488,1.581,1.581,0,0,0,.5-1.168v-5a1.59,1.59,0,0,0-.5-1.176,1.62,1.62,0,0,0-1.176-.488,1.582,1.582,0,0,0-1.18.484,1.609,1.609,0,0,0-.492,1.18Zm10,1.672V155h3.328v15Zm16.672-5h-6.672v1.672a1.674,1.674,0,0,0,1.672,1.656h1.672a1.464,1.464,0,0,0,1.656-1.656h1.672Q235.9,170,232.961,170h-3.344a3.348,3.348,0,0,1-3.328-3.328v-5a3.354,3.354,0,0,1,3.328-3.344h3.344a3.19,3.19,0,0,1,2.348.988,3.229,3.229,0,0,1,.98,2.355Zm-6.672-1.672h3.344v-1.656a1.672,1.672,0,0,0-3.344,0Zm18.211-5h3.344a3.19,3.19,0,0,1,2.348.988,3.229,3.229,0,0,1,.98,2.355v5A3.361,3.361,0,0,1,251.172,170h-3.344a3.348,3.348,0,0,1-3.328-3.328v-5a3.354,3.354,0,0,1,3.328-3.344Zm0,3.344v5a1.672,1.672,0,0,0,3.344,0v-5a1.672,1.672,0,0,0-3.344,0ZM259.5,170V160h-1.672v-1.672H259.5v-.148a3.2,3.2,0,0,1,3.18-3.18h3.477v1.672h-1.812a1.527,1.527,0,0,0-1.516,1.508v.148H264.5V160h-1.672v10Zm13.211,0V155h3.328v5a2.066,2.066,0,0,1,.52-1.258,1.566,1.566,0,0,1,1.152-.414h1.672a3.19,3.19,0,0,1,2.348.988,3.229,3.229,0,0,1,.98,2.355v5A3.361,3.361,0,0,1,279.383,170Zm3.328-1.672h1.672a1.674,1.674,0,0,0,1.672-1.656v-5a1.672,1.672,0,0,0-3.344,0Zm20-3.328h-6.672v1.672a1.674,1.674,0,0,0,1.672,1.656h1.672a1.464,1.464,0,0,0,1.656-1.656h1.672Q295.648,170,292.711,170h-3.344a3.348,3.348,0,0,1-3.328-3.328v-5a3.354,3.354,0,0,1,3.328-3.344h3.344a3.19,3.19,0,0,1,2.348.988,3.229,3.229,0,0,1,.98,2.355Zm-6.672-1.672h3.344v-1.656a1.672,1.672,0,0,0-3.344,0Zm10,6.672V158.328H302.7V160a2.066,2.066,0,0,1,.52-1.258,1.566,1.566,0,0,1,1.152-.414h1.672a3.19,3.19,0,0,1,2.348.988,3.229,3.229,0,0,1,.98,2.355V170h-3.328v-8.328a1.672,1.672,0,0,0-3.344,0V170Zm23.328-5h-6.672v1.672a1.674,1.674,0,0,0,1.672,1.656h1.672a1.464,1.464,0,0,0,1.656-1.656H322.7Q322.3,170,319.367,170h-3.344a3.348,3.348,0,0,1-3.328-3.328v-5a3.354,3.354,0,0,1,3.328-3.344h3.344a3.19,3.19,0,0,1,2.348.988,3.229,3.229,0,0,1,.98,2.355Zm-6.672-1.672h3.344v-1.656a1.672,1.672,0,0,0-3.344,0ZM327.7,170V160h-1.672v-1.672H327.7v-.148a3.187,3.187,0,0,1,.938-2.141A3.077,3.077,0,0,1,331.023,155h3.328v1.672h-1.734a1.472,1.472,0,0,0-1.121.516,1.508,1.508,0,0,0-.473.992v.148h8.328V170h-3.328V160h-5v10Zm8.328-13.328V155h3.328v1.672ZM344.367,155H347.7v3.328h1.672V160H347.7v6.672a1.484,1.484,0,0,0,.531,1.23,1.624,1.624,0,0,0,.984.426h.156V170H347.7a3.341,3.341,0,0,1-3.328-3.328V160H342.7v-1.672h1.672Zm10,0H357.7v3.328h1.672V160H357.7v6.672a1.484,1.484,0,0,0,.531,1.23,1.624,1.624,0,0,0,.984.426h.156V170H357.7a3.341,3.341,0,0,1-3.328-3.328V160H352.7v-1.672h1.672Zm8.328,1.672V155h3.328v1.672Zm0,13.328V158.328h3.328V170Zm6.672,0V158.328H372.7V160a2.066,2.066,0,0,1,.52-1.258,1.566,1.566,0,0,1,1.152-.414h1.672a3.19,3.19,0,0,1,2.348.988,3.229,3.229,0,0,1,.98,2.355V170h-3.328v-8.328a1.672,1.672,0,0,0-3.344,0V170ZM392.7,158.328v13.344A3.368,3.368,0,0,1,389.367,175h-3.344q-2.945,0-3.328-3.328h1.672q.117,1.656,1.656,1.656H387.7a1.62,1.62,0,0,0,1.176-.488,1.581,1.581,0,0,0,.5-1.168v-3.344Q389.172,170,387.7,170h-1.672a3.348,3.348,0,0,1-3.328-3.328v-5a3.354,3.354,0,0,1,3.328-3.344ZM389.367,160H387.7a1.681,1.681,0,0,0-1.672,1.672v5a1.672,1.672,0,0,0,3.344,0Zm21.539-1.672V170h-3.328v-1.672q-.2,1.672-1.672,1.672h-1.672a3.348,3.348,0,0,1-3.328-3.328v-8.344h3.328v8.344a1.672,1.672,0,0,0,3.344,0v-8.344Zm11.656,3.344h-1.656Q420.687,160,419.328,160a2.134,2.134,0,0,0-1.328.348,1.233,1.233,0,0,0-.445,1.035q0,.719,2.43,2.016a5.317,5.317,0,0,1,2.277,1.762,3.726,3.726,0,0,1,.3,1.488A3.348,3.348,0,0,1,419.234,170h-1.672q-3.328,0-3.328-3.328h1.672q.2,1.664,1.563,1.664a2.116,2.116,0,0,0,1.328-.352,1.244,1.244,0,0,0,.445-1.039q0-.7-2.422-2.016a5.264,5.264,0,0,1-2.285-1.758,3.735,3.735,0,0,1-.3-1.484,3.354,3.354,0,0,1,3.328-3.359h1.672Q422.359,158.328,422.563,161.672ZM435.906,165h-6.672v1.672a1.674,1.674,0,0,0,1.672,1.656h1.672a1.464,1.464,0,0,0,1.656-1.656h1.672Q435.516,170,432.578,170h-3.344a3.348,3.348,0,0,1-3.328-3.328v-5a3.354,3.354,0,0,1,3.328-3.344h3.344a3.19,3.19,0,0,1,2.348.988,3.229,3.229,0,0,1,.98,2.355Zm-6.672-1.672h3.344v-1.656a1.672,1.672,0,0,0-3.344,0ZM442.563,170h-3.328V158.328h3.328v3.344a4.116,4.116,0,0,1,1.031-2.508,3.125,3.125,0,0,1,2.313-.836h1.656v3.344h-3.328a1.616,1.616,0,0,0-1.18.488,1.587,1.587,0,0,0-.492,1.168Zm15-8.328h-1.656Q455.687,160,454.328,160a2.134,2.134,0,0,0-1.328.348,1.233,1.233,0,0,0-.445,1.035q0,.719,2.43,2.016a5.317,5.317,0,0,1,2.277,1.762,3.726,3.726,0,0,1,.3,1.488A3.348,3.348,0,0,1,454.234,170h-1.672q-3.328,0-3.328-3.328h1.672q.2,1.664,1.563,1.664a2.116,2.116,0,0,0,1.328-.352,1.244,1.244,0,0,0,.445-1.039q0-.7-2.422-2.016a5.264,5.264,0,0,1-2.285-1.758,3.735,3.735,0,0,1-.3-1.484,3.354,3.354,0,0,1,3.328-3.359h1.672Q457.359,158.328,457.563,161.672Zm11.555-3.344h3.344a3.19,3.19,0,0,1,2.348.988,3.229,3.229,0,0,1,.98,2.355v5A3.361,3.361,0,0,1,472.461,170h-3.344a3.348,3.348,0,0,1-3.328-3.328v-5a3.354,3.354,0,0,1,3.328-3.344Zm0,3.344v5a1.672,1.672,0,0,0,3.344,0v-5a1.672,1.672,0,0,0-3.344,0ZM482.445,170h-3.328V158.328h3.328v3.344a4.116,4.116,0,0,1,1.031-2.508,3.125,3.125,0,0,1,2.313-.836h1.656v3.344h-3.328a1.616,1.616,0,0,0-1.18.488,1.587,1.587,0,0,0-.492,1.168ZM1.672,183.328H5v10H6.672a1.674,1.674,0,0,0,1.672-1.656v-8.344h3.328v10h1.672A1.674,1.674,0,0,0,15,191.672v-8.344h3.344V189.3a5.49,5.49,0,0,1-1.676,4.012A5.47,5.47,0,0,1,12.648,195h-4.3v-.531A4.835,4.835,0,0,1,5.977,195h-4.3Zm30,6.672H25v1.672a1.674,1.674,0,0,0,1.672,1.656h1.672A1.464,1.464,0,0,0,30,191.672h1.672Q31.281,195,28.344,195H25a3.348,3.348,0,0,1-3.328-3.328v-5A3.354,3.354,0,0,1,25,183.328h3.344a3.19,3.19,0,0,1,2.348.988,3.229,3.229,0,0,1,.98,2.355ZM25,188.328h3.344v-1.656a1.672,1.672,0,0,0-3.344,0ZM38.328,195H35V183.328h3.328v3.344a4.116,4.116,0,0,1,1.031-2.508,3.125,3.125,0,0,1,2.313-.836h1.656v3.344H40a1.616,1.616,0,0,0-1.18.488,1.587,1.587,0,0,0-.492,1.168ZM55,190H48.328v1.672A1.674,1.674,0,0,0,50,193.328h1.672a1.464,1.464,0,0,0,1.656-1.656H55Q54.609,195,51.672,195H48.328A3.348,3.348,0,0,1,45,191.672v-5a3.354,3.354,0,0,1,3.328-3.344h3.344a3.19,3.19,0,0,1,2.348.988,3.229,3.229,0,0,1,.98,2.355Zm-6.672-1.672h3.344v-1.656a1.672,1.672,0,0,0-3.344,0ZM63.211,195V180h3.328v5a2.066,2.066,0,0,1,.52-1.258,1.566,1.566,0,0,1,1.152-.414h1.672a3.19,3.19,0,0,1,2.348.988,3.229,3.229,0,0,1,.98,2.355v5A3.361,3.361,0,0,1,69.883,195Zm3.328-1.672h1.672a1.674,1.674,0,0,0,1.672-1.656v-5a1.672,1.672,0,0,0-3.344,0ZM79.867,195H76.539V183.328h3.328v3.344a4.116,4.116,0,0,1,1.031-2.508,3.125,3.125,0,0,1,2.313-.836h1.656v3.344H81.539a1.616,1.616,0,0,0-1.18.488,1.587,1.587,0,0,0-.492,1.168Zm10-11.672h3.344a3.19,3.19,0,0,1,2.348.988,3.229,3.229,0,0,1,.98,2.355v5A3.361,3.361,0,0,1,93.211,195H89.867a3.348,3.348,0,0,1-3.328-3.328v-5a3.354,3.354,0,0,1,3.328-3.344Zm0,3.344v5a1.672,1.672,0,0,0,3.344,0v-5a1.672,1.672,0,0,0-3.344,0Zm20-3.344V195h-3.328v-1.672q-.2,1.672-1.672,1.672H103.2a3.348,3.348,0,0,1-3.328-3.328v-8.344H103.2v8.344a1.672,1.672,0,0,0,3.344,0v-8.344Zm13.328,0v13.344A3.368,3.368,0,0,1,119.867,200h-3.344q-2.945,0-3.328-3.328h1.672q.117,1.656,1.656,1.656H118.2a1.62,1.62,0,0,0,1.176-.488,1.581,1.581,0,0,0,.5-1.168v-3.344Q119.672,195,118.2,195h-1.672a3.348,3.348,0,0,1-3.328-3.328v-5a3.354,3.354,0,0,1,3.328-3.344ZM119.867,185H118.2a1.681,1.681,0,0,0-1.672,1.672v5a1.672,1.672,0,0,0,3.344,0Zm6.656,10V180h3.328v5a2.066,2.066,0,0,1,.52-1.258,1.566,1.566,0,0,1,1.152-.414H133.2a3.19,3.19,0,0,1,2.348.988,3.229,3.229,0,0,1,.98,2.355V195H133.2v-8.328a1.672,1.672,0,0,0-3.344,0V195Zm15-15h3.328v3.328h1.672V185h-1.672v6.672a1.484,1.484,0,0,0,.531,1.23,1.625,1.625,0,0,0,.984.426h.156V195h-1.672a3.341,3.341,0,0,1-3.328-3.328V185h-1.672v-1.672h1.672Zm19.883,8.328v-1.656A1.687,1.687,0,0,0,159.734,185h-1.672q-1.477,0-1.656,1.672h-1.672q.383-3.344,3.328-3.344h3.344a3.19,3.19,0,0,1,2.348.988,3.229,3.229,0,0,1,.98,2.355V195h-3.328v-1.672q-.2,1.672-1.672,1.672h-1.672a3.348,3.348,0,0,1-3.328-3.328v-.016a3.355,3.355,0,0,1,3.328-3.328Zm0,1.672h-1.672a1.616,1.616,0,0,0-1.18.488,1.587,1.587,0,0,0-.492,1.168v.016a1.672,1.672,0,0,0,3.344,0Zm6.656,5V180h3.328v5a2.066,2.066,0,0,1,.52-1.258,1.566,1.566,0,0,1,1.152-.414h1.672a3.19,3.19,0,0,1,2.348.988,3.229,3.229,0,0,1,.98,2.355v5A3.361,3.361,0,0,1,174.734,195Zm3.328-1.672h1.672a1.674,1.674,0,0,0,1.672-1.656v-5a1.672,1.672,0,0,0-3.344,0Zm13.328-10h3.344a3.19,3.19,0,0,1,2.348.988,3.229,3.229,0,0,1,.98,2.355v5A3.361,3.361,0,0,1,188.063,195h-3.344a3.348,3.348,0,0,1-3.328-3.328v-5a3.354,3.354,0,0,1,3.328-3.344Zm0,3.344v5a1.672,1.672,0,0,0,3.344,0v-5a1.672,1.672,0,0,0-3.344,0Zm20-3.344V195h-3.328v-1.672Q201.2,195,199.719,195h-1.672a3.348,3.348,0,0,1-3.328-3.328v-8.344h3.328v8.344a1.672,1.672,0,0,0,3.344,0v-8.344Zm5-3.328h3.328v3.328h1.672V185h-1.672v6.672a1.484,1.484,0,0,0,.531,1.23,1.625,1.625,0,0,0,.984.426h.156V195h-1.672a3.341,3.341,0,0,1-3.328-3.328V185h-1.672v-1.672h1.672Zm13.211,15V180h3.328v5a2.066,2.066,0,0,1,.52-1.258,1.566,1.566,0,0,1,1.152-.414H229.6a3.19,3.19,0,0,1,2.348.988,3.229,3.229,0,0,1,.98,2.355v5A3.361,3.361,0,0,1,229.6,195Zm3.328-1.672h1.672a1.674,1.674,0,0,0,1.672-1.656v-5a1.672,1.672,0,0,0-3.344,0Zm11.672,3.344q.117,1.656,1.656,1.656h1.672a1.62,1.62,0,0,0,1.176-.488,1.581,1.581,0,0,0,.5-1.168v-3.344q-.2,1.672-1.672,1.672h-1.672a3.348,3.348,0,0,1-3.328-3.328v-8.344h3.328v8.344a1.672,1.672,0,0,0,3.344,0v-8.344h3.328v13.344A3.368,3.368,0,0,1,242.93,200h-3.344q-2.945,0-3.328-3.328ZM256.141,180h3.328v3.328h1.672V185h-1.672v6.672A1.484,1.484,0,0,0,260,192.9a1.624,1.624,0,0,0,.984.426h.156V195h-1.672a3.341,3.341,0,0,1-3.328-3.328V185h-1.672v-1.672h1.672Zm8.328,15V180H267.8v5a2.066,2.066,0,0,1,.52-1.258,1.566,1.566,0,0,1,1.152-.414h1.672a3.19,3.19,0,0,1,2.348.988,3.229,3.229,0,0,1,.98,2.355V195h-3.328v-8.328a1.672,1.672,0,0,0-3.344,0V195Zm23.328-5h-6.672v1.672a1.674,1.674,0,0,0,1.672,1.656h1.672a1.464,1.464,0,0,0,1.656-1.656H287.8Q287.406,195,284.469,195h-3.344a3.348,3.348,0,0,1-3.328-3.328v-5a3.354,3.354,0,0,1,3.328-3.344h3.344a3.19,3.19,0,0,1,2.348.988,3.229,3.229,0,0,1,.98,2.355Zm-6.672-1.672h3.344v-1.656a1.672,1.672,0,0,0-3.344,0ZM306.008,195H302.68v-1.672q-.2,1.672-1.672,1.672h-1.672a3.348,3.348,0,0,1-3.328-3.328v-5a3.354,3.354,0,0,1,3.328-3.344h3.344V180h3.328Zm-3.328-10h-1.672a1.681,1.681,0,0,0-1.672,1.672v5a1.672,1.672,0,0,0,3.344,0Zm16.656,5h-6.672v1.672a1.674,1.674,0,0,0,1.672,1.656h1.672a1.464,1.464,0,0,0,1.656-1.656h1.672Q318.945,195,316.008,195h-3.344a3.348,3.348,0,0,1-3.328-3.328v-5a3.354,3.354,0,0,1,3.328-3.344h3.344a3.19,3.19,0,0,1,2.348.988,3.229,3.229,0,0,1,.98,2.355Zm-6.672-1.672h3.344v-1.656a1.672,1.672,0,0,0-3.344,0Zm18.328-1.656h-1.656Q329.117,185,327.758,185a2.134,2.134,0,0,0-1.328.348,1.233,1.233,0,0,0-.445,1.035q0,.719,2.43,2.016a5.317,5.317,0,0,1,2.277,1.762,3.726,3.726,0,0,1,.3,1.488A3.348,3.348,0,0,1,327.664,195h-1.672q-3.328,0-3.328-3.328h1.672q.2,1.664,1.563,1.664a2.116,2.116,0,0,0,1.328-.352,1.244,1.244,0,0,0,.445-1.039q0-.7-2.422-2.016a5.264,5.264,0,0,1-2.285-1.758,3.735,3.735,0,0,1-.3-1.484,3.354,3.354,0,0,1,3.328-3.359h1.672Q330.789,183.328,330.992,186.672Zm3.344-5V180h3.328v1.672Zm0,13.328V183.328h3.328V195Zm10,0h-3.328V183.328h3.328v3.344a4.116,4.116,0,0,1,1.031-2.508,3.125,3.125,0,0,1,2.313-.836h1.656v3.344h-3.328a1.616,1.616,0,0,0-1.18.488,1.587,1.587,0,0,0-.492,1.168Zm16.672-5h-6.672v1.672a1.674,1.674,0,0,0,1.672,1.656h1.672a1.464,1.464,0,0,0,1.656-1.656h1.672Q360.617,195,357.68,195h-3.344a3.348,3.348,0,0,1-3.328-3.328v-5a3.354,3.354,0,0,1,3.328-3.344h3.344a3.19,3.19,0,0,1,2.348.988,3.229,3.229,0,0,1,.98,2.355Zm-6.672-1.672h3.344v-1.656a1.672,1.672,0,0,0-3.344,0ZM370.891,180h3.328v3.328h1.672V185h-1.672v6.672a1.484,1.484,0,0,0,.531,1.23,1.624,1.624,0,0,0,.984.426h.156V195h-1.672a3.341,3.341,0,0,1-3.328-3.328V185h-1.672v-1.672h1.672Zm11.656,3.328h3.344a3.19,3.19,0,0,1,2.348.988,3.229,3.229,0,0,1,.98,2.355v5A3.361,3.361,0,0,1,385.891,195h-3.344a3.348,3.348,0,0,1-3.328-3.328v-5a3.354,3.354,0,0,1,3.328-3.344Zm0,3.344v5a1.672,1.672,0,0,0,3.344,0v-5a1.672,1.672,0,0,0-3.344,0ZM407.43,190h-6.672v1.672a1.674,1.674,0,0,0,1.672,1.656H404.1a1.464,1.464,0,0,0,1.656-1.656h1.672Q407.039,195,404.1,195h-3.344a3.348,3.348,0,0,1-3.328-3.328v-5a3.354,3.354,0,0,1,3.328-3.344H404.1a3.19,3.19,0,0,1,2.348.988,3.229,3.229,0,0,1,.98,2.355Zm-6.672-1.672H404.1v-1.656a1.672,1.672,0,0,0-3.344,0Zm10,6.672v-2.5a3.1,3.1,0,0,1,.836-2.3,4.123,4.123,0,0,1,2.492-1.023,4.1,4.1,0,0,1-2.492-1.031,3.125,3.125,0,0,1-.836-2.312v-2.5h3.328v3.344a1.587,1.587,0,0,0,.492,1.168,1.664,1.664,0,0,0,2.355,0,1.581,1.581,0,0,0,.5-1.168v-3.344h3.328v2.5a3.134,3.134,0,0,1-.832,2.313,4.087,4.087,0,0,1-2.5,1.031,4.1,4.1,0,0,1,2.5,1.027,3.109,3.109,0,0,1,.832,2.3V195H417.43v-3.328a1.672,1.672,0,0,0-3.344,0V195Zm13.328-11.672h3.328V185a1.691,1.691,0,0,1,.422-1.258,1.715,1.715,0,0,1,1.25-.414h1.672a3.19,3.19,0,0,1,2.348.988,3.229,3.229,0,0,1,.98,2.355v5A3.348,3.348,0,0,1,430.758,195h-3.344v3.328h-3.328Zm3.328,10h1.672a1.62,1.62,0,0,0,1.176-.488,1.581,1.581,0,0,0,.5-1.168v-5a1.59,1.59,0,0,0-.5-1.176,1.62,1.62,0,0,0-1.176-.488,1.582,1.582,0,0,0-1.18.484,1.609,1.609,0,0,0-.492,1.18Zm10,1.672V180h3.328v15Zm10-11.672h3.344a3.19,3.19,0,0,1,2.348.988,3.229,3.229,0,0,1,.98,2.355v5A3.361,3.361,0,0,1,450.758,195h-3.344a3.348,3.348,0,0,1-3.328-3.328v-5a3.354,3.354,0,0,1,3.328-3.344Zm0,3.344v5a1.672,1.672,0,0,0,3.344,0v-5a1.672,1.672,0,0,0-3.344,0ZM460.742,195h-3.328V183.328h3.328v3.344a4.116,4.116,0,0,1,1.031-2.508,3.125,3.125,0,0,1,2.313-.836h1.656v3.344h-3.328a1.616,1.616,0,0,0-1.18.488,1.587,1.587,0,0,0-.492,1.168Zm16.672-5h-6.672v1.672a1.674,1.674,0,0,0,1.672,1.656h1.672a1.464,1.464,0,0,0,1.656-1.656h1.672Q477.023,195,474.086,195h-3.344a3.348,3.348,0,0,1-3.328-3.328v-5a3.354,3.354,0,0,1,3.328-3.344h3.344a3.19,3.19,0,0,1,2.348.988,3.229,3.229,0,0,1,.98,2.355Zm-6.672-1.672h3.344v-1.656a1.672,1.672,0,0,0-3.344,0ZM1.672,220V208.328H5V210a2.066,2.066,0,0,1,.52-1.258,1.566,1.566,0,0,1,1.152-.414H8.344a3.19,3.19,0,0,1,2.348.988,3.229,3.229,0,0,1,.98,2.355V220H8.344v-8.328A1.687,1.687,0,0,0,6.672,210,1.681,1.681,0,0,0,5,211.672V220ZM25,215H18.328v1.672A1.674,1.674,0,0,0,20,218.328h1.672a1.464,1.464,0,0,0,1.656-1.656H25Q24.609,220,21.672,220H18.328A3.348,3.348,0,0,1,15,216.672v-5a3.354,3.354,0,0,1,3.328-3.344h3.344a3.19,3.19,0,0,1,2.348.988,3.229,3.229,0,0,1,.98,2.355Zm-6.672-1.672h3.344v-1.656a1.672,1.672,0,0,0-3.344,0Zm10-5h3.328v10h1.672A1.674,1.674,0,0,0,35,216.672v-8.344h3.328v10H40a1.674,1.674,0,0,0,1.656-1.656v-8.344H45V214.3a5.735,5.735,0,0,1-5.7,5.7H35v-.531a4.835,4.835,0,0,1-2.367.531h-4.3ZM53.211,220V205h3.328v15Zm13.344-6.672v-1.656A1.687,1.687,0,0,0,64.883,210H63.211q-1.477,0-1.656,1.672H59.883q.383-3.344,3.328-3.344h3.344a3.19,3.19,0,0,1,2.348.988,3.229,3.229,0,0,1,.98,2.355V220H66.555v-1.672Q66.359,220,64.883,220H63.211a3.348,3.348,0,0,1-3.328-3.328v-.016a3.355,3.355,0,0,1,3.328-3.328Zm0,1.672H64.883a1.616,1.616,0,0,0-1.18.488,1.587,1.587,0,0,0-.492,1.168v.016a1.672,1.672,0,0,0,3.344,0Zm6.656,5V208.328h3.328V210a2.066,2.066,0,0,1,.52-1.258,1.566,1.566,0,0,1,1.152-.414h1.672a3.19,3.19,0,0,1,2.348.988,3.229,3.229,0,0,1,.98,2.355V220H79.883v-8.328a1.672,1.672,0,0,0-3.344,0V220Zm23.328-11.672v13.344A3.368,3.368,0,0,1,93.211,225H89.867q-2.945,0-3.328-3.328h1.672q.117,1.656,1.656,1.656h1.672a1.62,1.62,0,0,0,1.176-.488,1.581,1.581,0,0,0,.5-1.168v-3.344Q93.016,220,91.539,220H89.867a3.348,3.348,0,0,1-3.328-3.328v-5a3.354,3.354,0,0,1,3.328-3.344ZM93.211,210H91.539a1.681,1.681,0,0,0-1.672,1.672v5a1.672,1.672,0,0,0,3.344,0Zm16.656-1.672V220h-3.328v-1.672q-.2,1.672-1.672,1.672H103.2a3.348,3.348,0,0,1-3.328-3.328v-8.344H103.2v8.344a1.672,1.672,0,0,0,3.344,0v-8.344Zm10,5v-1.656A1.687,1.687,0,0,0,118.2,210h-1.672q-1.477,0-1.656,1.672H113.2q.383-3.344,3.328-3.344h3.344a3.19,3.19,0,0,1,2.348.988,3.229,3.229,0,0,1,.98,2.355V220h-3.328v-1.672Q119.672,220,118.2,220h-1.672a3.348,3.348,0,0,1-3.328-3.328v-.016a3.355,3.355,0,0,1,3.328-3.328Zm0,1.672H118.2a1.616,1.616,0,0,0-1.18.488,1.587,1.587,0,0,0-.492,1.168v.016a1.672,1.672,0,0,0,3.344,0Zm16.656-6.672v13.344A3.368,3.368,0,0,1,133.2,225h-3.344q-2.945,0-3.328-3.328H128.2q.117,1.656,1.656,1.656h1.672a1.62,1.62,0,0,0,1.176-.488,1.581,1.581,0,0,0,.5-1.168v-3.344Q133,220,131.523,220h-1.672a3.348,3.348,0,0,1-3.328-3.328v-5a3.354,3.354,0,0,1,3.328-3.344ZM133.2,210h-1.672a1.681,1.681,0,0,0-1.672,1.672v5a1.672,1.672,0,0,0,3.344,0Zm16.656,5H143.18v1.672a1.674,1.674,0,0,0,1.672,1.656h1.672a1.464,1.464,0,0,0,1.656-1.656h1.672Q149.461,220,146.523,220H143.18a3.348,3.348,0,0,1-3.328-3.328v-5a3.354,3.354,0,0,1,3.328-3.344h3.344a3.19,3.19,0,0,1,2.348.988,3.229,3.229,0,0,1,.98,2.355Zm-6.672-1.672h3.344v-1.656a1.672,1.672,0,0,0-3.344,0Zm18.328-1.656h-1.656Q159.633,210,158.273,210a2.134,2.134,0,0,0-1.328.348,1.233,1.233,0,0,0-.445,1.035q0,.719,2.43,2.016a5.317,5.317,0,0,1,2.277,1.762,3.726,3.726,0,0,1,.3,1.488A3.348,3.348,0,0,1,158.18,220h-1.672q-3.328,0-3.328-3.328h1.672q.2,1.664,1.563,1.664a2.116,2.116,0,0,0,1.328-.352,1.244,1.244,0,0,0,.445-1.039q0-.7-2.422-2.016a5.264,5.264,0,0,1-2.285-1.758,3.735,3.735,0,0,1-.3-1.484,3.354,3.354,0,0,1,3.328-3.359h1.672Q161.3,208.328,161.508,211.672ZM164.852,220v-3.328h3.328V220Zm13.211,0V205H181.4v15Zm8.344-15h3.328v3.328q0,2.961-3.328,3.344V210a1.551,1.551,0,0,0,1.672-1.672h-1.672Zm16.672,15H199.75v-8.328a1.672,1.672,0,0,0-3.344,0V220h-3.328V208.328h3.328V210a2.066,2.066,0,0,1,.52-1.258,1.566,1.566,0,0,1,1.152-.414h1.672a2.815,2.815,0,0,1,2.5,1.18,2.435,2.435,0,0,1,1.016-.887,3.47,3.47,0,0,1,1.484-.293h1.656a3.361,3.361,0,0,1,3.344,3.344V220h-3.344v-8.328a1.613,1.613,0,0,0-.492-1.176,1.585,1.585,0,0,0-1.164-.5,1.681,1.681,0,0,0-1.672,1.672Zm24.883-5h-6.672v1.672a1.674,1.674,0,0,0,1.672,1.656h1.672a1.464,1.464,0,0,0,1.656-1.656h1.672Q227.57,220,224.633,220h-3.344a3.348,3.348,0,0,1-3.328-3.328v-5a3.354,3.354,0,0,1,3.328-3.344h3.344a3.19,3.19,0,0,1,2.348.988,3.229,3.229,0,0,1,.98,2.355Zm-6.672-1.672h3.344v-1.656a1.672,1.672,0,0,0-3.344,0Zm20-5v15h-3.344l.016-5q-.2,1.672-1.672,1.672h-1.672a3.19,3.19,0,0,1-2.348-.988,3.229,3.229,0,0,1-.98-2.355v-5a3.355,3.355,0,0,1,3.328-3.328ZM237.961,210h-1.672a1.616,1.616,0,0,0-1.18.488,1.587,1.587,0,0,0-.492,1.168v5a1.62,1.62,0,0,0,.488,1.176,1.67,1.67,0,0,0,2.855-1.16Zm16.656-1.672V220h-3.328v-1.672q-.2,1.672-1.672,1.672h-1.672a3.348,3.348,0,0,1-3.328-3.328v-8.344h3.328v8.344a1.672,1.672,0,0,0,3.344,0v-8.344Zm3.328-1.656V205h3.328v1.672Zm0,13.328V208.328h3.328V220Zm6.672-11.672h3.328V210a1.691,1.691,0,0,1,.422-1.258,1.715,1.715,0,0,1,1.25-.414h1.672a3.19,3.19,0,0,1,2.348.988,3.229,3.229,0,0,1,.98,2.355v5A3.348,3.348,0,0,1,271.289,220h-3.344v3.328h-3.328Zm3.328,10h1.672a1.62,1.62,0,0,0,1.176-.488,1.581,1.581,0,0,0,.5-1.168v-5a1.59,1.59,0,0,0-.5-1.176,1.62,1.62,0,0,0-1.176-.488,1.582,1.582,0,0,0-1.18.484,1.609,1.609,0,0,0-.492,1.18Zm10-10h3.328V210a1.691,1.691,0,0,1,.422-1.258,1.715,1.715,0,0,1,1.25-.414h1.672a3.19,3.19,0,0,1,2.348.988,3.229,3.229,0,0,1,.98,2.355v5A3.348,3.348,0,0,1,284.617,220h-3.344v3.328h-3.328Zm3.328,10h1.672a1.62,1.62,0,0,0,1.176-.488,1.581,1.581,0,0,0,.5-1.168v-5a1.59,1.59,0,0,0-.5-1.176,1.62,1.62,0,0,0-1.176-.488,1.582,1.582,0,0,0-1.18.484,1.609,1.609,0,0,0-.492,1.18Zm20-3.328H294.6v1.672a1.674,1.674,0,0,0,1.672,1.656h1.672a1.464,1.464,0,0,0,1.656-1.656h1.672Q300.883,220,297.945,220H294.6a3.348,3.348,0,0,1-3.328-3.328v-5a3.354,3.354,0,0,1,3.328-3.344h3.344a3.19,3.19,0,0,1,2.348.988,3.229,3.229,0,0,1,.98,2.355Zm-6.672-1.672h3.344v-1.656a1.672,1.672,0,0,0-3.344,0Zm20,6.672h-3.328v-1.672Q311.078,220,309.6,220H307.93a3.348,3.348,0,0,1-3.328-3.328v-5a3.354,3.354,0,0,1,3.328-3.344h3.344V205H314.6Zm-3.328-10H309.6a1.681,1.681,0,0,0-1.672,1.672v5a1.672,1.672,0,0,0,3.344,0Zm11.539-1.672h3.328v10h1.672a1.674,1.674,0,0,0,1.672-1.656v-8.344h3.328v10h1.672a1.674,1.674,0,0,0,1.656-1.656v-8.344h3.344V214.3a5.735,5.735,0,0,1-5.7,5.7h-4.3v-.531a4.835,4.835,0,0,1-2.367.531h-4.3Zm20-1.656V205h3.328v1.672Zm0,13.328V208.328h3.328V220Zm8.344-15h3.328v3.328h1.672V210h-1.672v6.672a1.484,1.484,0,0,0,.531,1.23,1.624,1.624,0,0,0,.984.426h.156V220h-1.672a3.341,3.341,0,0,1-3.328-3.328V210h-1.672v-1.672h1.672Zm8.328,15V205h3.328v5a2.066,2.066,0,0,1,.52-1.258,1.566,1.566,0,0,1,1.152-.414h1.672a3.19,3.19,0,0,1,2.348.988,3.229,3.229,0,0,1,.98,2.355V220h-3.328v-8.328a1.672,1.672,0,0,0-3.344,0V220ZM387.7,208.328v13.344A3.368,3.368,0,0,1,384.367,225h-3.344q-2.945,0-3.328-3.328h1.672q.117,1.656,1.656,1.656H382.7a1.62,1.62,0,0,0,1.176-.488,1.581,1.581,0,0,0,.5-1.168v-3.344Q384.172,220,382.7,220h-1.672a3.348,3.348,0,0,1-3.328-3.328v-5a3.354,3.354,0,0,1,3.328-3.344ZM384.367,210H382.7a1.681,1.681,0,0,0-1.672,1.672v5a1.672,1.672,0,0,0,3.344,0Zm9.984,10h-3.328V208.328h3.328v3.344a4.116,4.116,0,0,1,1.031-2.508,3.125,3.125,0,0,1,2.313-.836h1.656v3.344h-3.328a1.616,1.616,0,0,0-1.18.488,1.587,1.587,0,0,0-.492,1.168Zm16.672-5h-6.672v1.672a1.674,1.674,0,0,0,1.672,1.656H407.7a1.464,1.464,0,0,0,1.656-1.656h1.672Q410.633,220,407.7,220h-3.344a3.348,3.348,0,0,1-3.328-3.328v-5a3.354,3.354,0,0,1,3.328-3.344H407.7a3.19,3.19,0,0,1,2.348.988,3.229,3.229,0,0,1,.98,2.355Zm-6.672-1.672H407.7v-1.656a1.672,1.672,0,0,0-3.344,0Zm16.672,0v-1.656A1.687,1.687,0,0,0,419.352,210H417.68q-1.477,0-1.656,1.672h-1.672q.383-3.344,3.328-3.344h3.344a3.19,3.19,0,0,1,2.348.988,3.229,3.229,0,0,1,.98,2.355V220h-3.328v-1.672q-.2,1.672-1.672,1.672H417.68a3.348,3.348,0,0,1-3.328-3.328v-.016a3.355,3.355,0,0,1,3.328-3.328Zm0,1.672h-1.672a1.616,1.616,0,0,0-1.18.488,1.587,1.587,0,0,0-.492,1.168v.016a1.672,1.672,0,0,0,3.344,0Zm8.328-10h3.328v3.328h1.672V210H432.68v6.672a1.484,1.484,0,0,0,.531,1.23,1.624,1.624,0,0,0,.984.426h.156V220H432.68a3.341,3.341,0,0,1-3.328-3.328V210H427.68v-1.672h1.672Zm13.211,1.672V205h3.328v1.672Zm0,13.328V208.328h3.328V220Zm16.672,0h-3.328v-1.672q-.2,1.672-1.672,1.672h-1.672a3.348,3.348,0,0,1-3.328-3.328v-5a3.354,3.354,0,0,1,3.328-3.344h3.344V205h3.328Zm-3.328-10h-1.672a1.681,1.681,0,0,0-1.672,1.672v5a1.672,1.672,0,0,0,3.344,0Zm16.656,5h-6.672v1.672a1.674,1.674,0,0,0,1.672,1.656h1.672a1.464,1.464,0,0,0,1.656-1.656h1.672Q472.172,220,469.234,220h-3.344a3.348,3.348,0,0,1-3.328-3.328v-5a3.354,3.354,0,0,1,3.328-3.344h3.344a3.19,3.19,0,0,1,2.348.988,3.229,3.229,0,0,1,.98,2.355Zm-6.672-1.672h3.344v-1.656a1.672,1.672,0,0,0-3.344,0Zm16.672,0v-1.656A1.687,1.687,0,0,0,480.891,210h-1.672q-1.477,0-1.656,1.672h-1.672q.383-3.344,3.328-3.344h3.344a3.19,3.19,0,0,1,2.348.988,3.229,3.229,0,0,1,.98,2.355V220h-3.328v-1.672q-.2,1.672-1.672,1.672h-1.672a3.348,3.348,0,0,1-3.328-3.328v-.016a3.355,3.355,0,0,1,3.328-3.328Zm0,1.672h-1.672a1.616,1.616,0,0,0-1.18.488,1.587,1.587,0,0,0-.492,1.168v.016a1.672,1.672,0,0,0,3.344,0Zm14.984-3.328h-1.656Q495.672,210,494.313,210a2.134,2.134,0,0,0-1.328.348,1.233,1.233,0,0,0-.445,1.035q0,.719,2.43,2.016a5.317,5.317,0,0,1,2.277,1.762,3.726,3.726,0,0,1,.3,1.488A3.348,3.348,0,0,1,494.219,220h-1.672q-3.328,0-3.328-3.328h1.672q.2,1.664,1.563,1.664a2.116,2.116,0,0,0,1.328-.352,1.244,1.244,0,0,0,.445-1.039q0-.7-2.422-2.016a5.264,5.264,0,0,1-2.285-1.758,3.735,3.735,0,0,1-.3-1.484,3.354,3.354,0,0,1,3.328-3.359h1.672Q497.344,208.328,497.547,211.672ZM3.344,230H6.672v3.328H8.344V235H6.672v6.672A1.484,1.484,0,0,0,7.2,242.9a1.625,1.625,0,0,0,.984.426h.156V245H6.672a3.2,3.2,0,0,1-2.352-.98,3.209,3.209,0,0,1-.977-2.348V235H1.672v-1.672H3.344ZM15,233.328h3.344a3.19,3.19,0,0,1,2.348.988,3.229,3.229,0,0,1,.98,2.355v5A3.361,3.361,0,0,1,18.344,245H15a3.348,3.348,0,0,1-3.328-3.328v-5A3.354,3.354,0,0,1,15,233.328Zm0,3.344v5a1.672,1.672,0,0,0,3.344,0v-5a1.672,1.672,0,0,0-3.344,0Zm23.211,0H36.555Q36.359,235,34.883,235a1.681,1.681,0,0,0-1.672,1.672v5a1.674,1.674,0,0,0,1.672,1.656q1.477,0,1.672-1.656h1.656Q38.008,245,34.883,245H33.211a3.348,3.348,0,0,1-3.328-3.328v-5a3.354,3.354,0,0,1,3.328-3.344h1.672Q38.023,233.328,38.211,236.672Zm6.672-3.344h3.344a3.19,3.19,0,0,1,2.348.988,3.229,3.229,0,0,1,.98,2.355v5A3.361,3.361,0,0,1,48.227,245H44.883a3.348,3.348,0,0,1-3.328-3.328v-5a3.354,3.354,0,0,1,3.328-3.344Zm0,3.344v5a1.672,1.672,0,0,0,3.344,0v-5a1.672,1.672,0,0,0-3.344,0Zm10,8.328V233.328h3.328V235a2.066,2.066,0,0,1,.52-1.258,1.566,1.566,0,0,1,1.152-.414h1.672a3.19,3.19,0,0,1,2.348.988,3.229,3.229,0,0,1,.98,2.355V245H61.555v-8.328a1.672,1.672,0,0,0-3.344,0V245Zm15-15h3.328v3.328h1.672V235H73.211v6.672a1.484,1.484,0,0,0,.531,1.23,1.625,1.625,0,0,0,.984.426h.156V245H73.211a3.341,3.341,0,0,1-3.328-3.328V235H68.211v-1.672h1.672Zm8.328,1.672V230h3.328v1.672Zm0,13.328V233.328h3.328V245Zm6.672,0V233.328h3.328V235a2.066,2.066,0,0,1,.52-1.258,1.566,1.566,0,0,1,1.152-.414h1.672a3.19,3.19,0,0,1,2.348.988,3.229,3.229,0,0,1,.98,2.355V245H91.555v-8.328a1.672,1.672,0,0,0-3.344,0V245Zm23.328-11.672V245h-3.328v-1.672q-.2,1.672-1.672,1.672h-1.672a3.348,3.348,0,0,1-3.328-3.328v-8.344h3.328v8.344a1.672,1.672,0,0,0,3.344,0v-8.344ZM121.539,240h-6.672v1.672a1.674,1.674,0,0,0,1.672,1.656h1.672a1.464,1.464,0,0,0,1.656-1.656h1.672Q121.148,245,118.211,245h-3.344a3.348,3.348,0,0,1-3.328-3.328v-5a3.354,3.354,0,0,1,3.328-3.344h3.344a3.19,3.19,0,0,1,2.348.988,3.229,3.229,0,0,1,.98,2.355Zm-6.672-1.672h3.344v-1.656a1.672,1.672,0,0,0-3.344,0Zm23.211-1.656h-1.656q-.2-1.672-1.672-1.672a1.681,1.681,0,0,0-1.672,1.672v5a1.674,1.674,0,0,0,1.672,1.656q1.477,0,1.672-1.656h1.656q-.2,3.328-3.328,3.328h-1.672a3.348,3.348,0,0,1-3.328-3.328v-5a3.354,3.354,0,0,1,3.328-3.344h1.672Q137.891,233.328,138.078,236.672ZM144.75,245h-3.328V233.328h3.328v3.344a4.115,4.115,0,0,1,1.031-2.508,3.125,3.125,0,0,1,2.313-.836h1.656v3.344h-3.328a1.616,1.616,0,0,0-1.18.488,1.587,1.587,0,0,0-.492,1.168Zm16.672-5H154.75v1.672a1.674,1.674,0,0,0,1.672,1.656h1.672a1.464,1.464,0,0,0,1.656-1.656h1.672Q161.031,245,158.094,245H154.75a3.348,3.348,0,0,1-3.328-3.328v-5a3.354,3.354,0,0,1,3.328-3.344h3.344a3.19,3.19,0,0,1,2.348.988,3.229,3.229,0,0,1,.98,2.355Zm-6.672-1.672h3.344v-1.656a1.672,1.672,0,0,0-3.344,0Zm16.672,0v-1.656A1.687,1.687,0,0,0,169.75,235h-1.672q-1.477,0-1.656,1.672H164.75q.383-3.344,3.328-3.344h3.344a3.19,3.19,0,0,1,2.348.988,3.229,3.229,0,0,1,.98,2.355V245h-3.328v-1.672q-.2,1.672-1.672,1.672h-1.672a3.348,3.348,0,0,1-3.328-3.328v-.016a3.355,3.355,0,0,1,3.328-3.328Zm0,1.672H169.75a1.616,1.616,0,0,0-1.18.488,1.587,1.587,0,0,0-.492,1.168v.016a1.672,1.672,0,0,0,3.344,0Zm8.328-10h3.328v3.328h1.672V235h-1.672v6.672a1.484,1.484,0,0,0,.531,1.23,1.625,1.625,0,0,0,.984.426h.156V245h-1.672a3.341,3.341,0,0,1-3.328-3.328V235h-1.672v-1.672h1.672Zm8.328,1.672V230h3.328v1.672Zm0,13.328V233.328h3.328V245Zm6.672,0V233.328h3.328V235a2.066,2.066,0,0,1,.52-1.258,1.566,1.566,0,0,1,1.152-.414h1.672a3.19,3.19,0,0,1,2.348.988,3.229,3.229,0,0,1,.98,2.355V245h-3.328v-8.328a1.672,1.672,0,0,0-3.344,0V245Zm23.328-11.672v13.344A3.368,3.368,0,0,1,214.75,250h-3.344q-2.945,0-3.328-3.328h1.672q.117,1.656,1.656,1.656h1.672a1.62,1.62,0,0,0,1.176-.488,1.581,1.581,0,0,0,.5-1.168v-3.344q-.2,1.672-1.672,1.672h-1.672a3.348,3.348,0,0,1-3.328-3.328v-5a3.354,3.354,0,0,1,3.328-3.344ZM214.75,235h-1.672a1.681,1.681,0,0,0-1.672,1.672v5a1.672,1.672,0,0,0,3.344,0Zm18.211,3.328v-1.656A1.687,1.687,0,0,0,231.289,235h-1.672q-1.477,0-1.656,1.672h-1.672q.383-3.344,3.328-3.344h3.344a3.19,3.19,0,0,1,2.348.988,3.229,3.229,0,0,1,.98,2.355V245h-3.328v-1.672q-.2,1.672-1.672,1.672h-1.672a3.348,3.348,0,0,1-3.328-3.328v-.016a3.355,3.355,0,0,1,3.328-3.328Zm0,1.672h-1.672a1.616,1.616,0,0,0-1.18.488,1.587,1.587,0,0,0-.492,1.168v.016a1.672,1.672,0,0,0,3.344,0Zm6.656,5V233.328h3.328V235a2.066,2.066,0,0,1,.52-1.258,1.566,1.566,0,0,1,1.152-.414h1.672a3.19,3.19,0,0,1,2.348.988,3.229,3.229,0,0,1,.98,2.355V245h-3.328v-8.328a1.672,1.672,0,0,0-3.344,0V245Zm23.328,0h-3.328v-1.672q-.2,1.672-1.672,1.672h-1.672a3.348,3.348,0,0,1-3.328-3.328v-5a3.354,3.354,0,0,1,3.328-3.344h3.344V230h3.328Zm-3.328-10h-1.672a1.681,1.681,0,0,0-1.672,1.672v5a1.672,1.672,0,0,0,3.344,0Zm13.211-5h3.328v3.328h1.672V235h-1.672v6.672a1.484,1.484,0,0,0,.531,1.23,1.624,1.624,0,0,0,.984.426h.156V245h-1.672a3.341,3.341,0,0,1-3.328-3.328V235h-1.672v-1.672h1.672Zm11.656,3.328h3.344a3.19,3.19,0,0,1,2.348.988,3.229,3.229,0,0,1,.98,2.355v5A3.361,3.361,0,0,1,287.828,245h-3.344a3.348,3.348,0,0,1-3.328-3.328v-5a3.354,3.354,0,0,1,3.328-3.344Zm0,3.344v5a1.672,1.672,0,0,0,3.344,0v-5a1.672,1.672,0,0,0-3.344,0ZM309.367,240H302.7v1.672a1.674,1.674,0,0,0,1.672,1.656h1.672a1.464,1.464,0,0,0,1.656-1.656h1.672Q308.977,245,306.039,245H302.7a3.348,3.348,0,0,1-3.328-3.328v-5a3.354,3.354,0,0,1,3.328-3.344h3.344a3.19,3.19,0,0,1,2.348.988,3.229,3.229,0,0,1,.98,2.355Zm-6.672-1.672h3.344v-1.656a1.672,1.672,0,0,0-3.344,0Zm10,6.672V233.328h3.328V235a2.066,2.066,0,0,1,.52-1.258,1.566,1.566,0,0,1,1.152-.414h1.672a3.19,3.19,0,0,1,2.348.988,3.229,3.229,0,0,1,.98,2.355V245h-3.328v-8.328a1.672,1.672,0,0,0-3.344,0V245Zm15-15h3.328v3.328H332.7V235h-1.672v6.672a1.484,1.484,0,0,0,.531,1.23,1.624,1.624,0,0,0,.984.426h.156V245h-1.672a3.341,3.341,0,0,1-3.328-3.328V235h-1.672v-1.672H327.7Zm18.328,10h-6.672v1.672a1.674,1.674,0,0,0,1.672,1.656H342.7a1.464,1.464,0,0,0,1.656-1.656h1.672Q345.633,245,342.7,245h-3.344a3.348,3.348,0,0,1-3.328-3.328v-5a3.354,3.354,0,0,1,3.328-3.344H342.7a3.19,3.19,0,0,1,2.348.988,3.229,3.229,0,0,1,.98,2.355Zm-6.672-1.672H342.7v-1.656a1.672,1.672,0,0,0-3.344,0ZM352.68,245h-3.328V233.328h3.328v3.344a4.116,4.116,0,0,1,1.031-2.508,3.125,3.125,0,0,1,2.313-.836h1.656v3.344h-3.328a1.616,1.616,0,0,0-1.18.488,1.587,1.587,0,0,0-.492,1.168Zm21.555-11.672V245h-3.328v-1.672q-.2,1.672-1.672,1.672h-1.672a3.348,3.348,0,0,1-3.328-3.328v-8.344h3.328v8.344a1.672,1.672,0,0,0,3.344,0v-8.344ZM377.563,245V233.328h3.328V235a2.066,2.066,0,0,1,.52-1.258,1.566,1.566,0,0,1,1.152-.414h1.672a3.19,3.19,0,0,1,2.348.988,3.229,3.229,0,0,1,.98,2.355V245h-3.328v-8.328a1.672,1.672,0,0,0-3.344,0V245Zm15,0V235h-1.672v-1.672h1.672v-.148a3.2,3.2,0,0,1,3.18-3.18h3.477v1.672h-1.812a1.527,1.527,0,0,0-1.516,1.508v.148h1.672V235h-1.672v10Zm15-6.672v-1.656A1.687,1.687,0,0,0,405.891,235h-1.672q-1.477,0-1.656,1.672h-1.672q.383-3.344,3.328-3.344h3.344a3.19,3.19,0,0,1,2.348.988,3.229,3.229,0,0,1,.98,2.355V245h-3.328v-1.672q-.2,1.672-1.672,1.672h-1.672a3.348,3.348,0,0,1-3.328-3.328v-.016a3.355,3.355,0,0,1,3.328-3.328Zm0,1.672h-1.672a1.616,1.616,0,0,0-1.18.488,1.587,1.587,0,0,0-.492,1.168v.016a1.672,1.672,0,0,0,3.344,0Zm16.656,5h-3.328v-8.328a1.672,1.672,0,0,0-3.344,0V245h-3.328V233.328h3.328V235a2.066,2.066,0,0,1,.52-1.258,1.566,1.566,0,0,1,1.152-.414h1.672a2.815,2.815,0,0,1,2.5,1.18,2.435,2.435,0,0,1,1.016-.887,3.47,3.47,0,0,1,1.484-.293h1.656a3.361,3.361,0,0,1,3.344,3.344V245h-3.344v-8.328a1.613,1.613,0,0,0-.492-1.176,1.585,1.585,0,0,0-1.164-.5,1.681,1.681,0,0,0-1.672,1.672Zm10-13.328V230h3.328v1.672Zm0,13.328V233.328h3.328V245Zm6.672,0V230h3.328v15Zm6.672-13.328V230h3.328v1.672Zm0,13.328V233.328h3.328V245Zm13.344-6.672v-1.656A1.687,1.687,0,0,0,459.234,235h-1.672q-1.477,0-1.656,1.672h-1.672q.383-3.344,3.328-3.344h3.344a3.19,3.19,0,0,1,2.348.988,3.229,3.229,0,0,1,.98,2.355V245h-3.328v-1.672q-.2,1.672-1.672,1.672h-1.672a3.348,3.348,0,0,1-3.328-3.328v-.016a3.355,3.355,0,0,1,3.328-3.328Zm0,1.672h-1.672a1.616,1.616,0,0,0-1.18.488,1.587,1.587,0,0,0-.492,1.168v.016a1.672,1.672,0,0,0,3.344,0Zm9.984,5h-3.328V233.328h3.328v3.344a4.116,4.116,0,0,1,1.031-2.508,3.125,3.125,0,0,1,2.313-.836h1.656v3.344h-3.328a1.616,1.616,0,0,0-1.18.488,1.587,1.587,0,0,0-.492,1.168ZM3.344,255H6.672v3.328H8.344V260H6.672v6.672A1.484,1.484,0,0,0,7.2,267.9a1.625,1.625,0,0,0,.984.426h.156V270H6.672a3.2,3.2,0,0,1-2.352-.98,3.209,3.209,0,0,1-.977-2.348V260H1.672v-1.672H3.344Zm18.328,10H15v1.672a1.674,1.674,0,0,0,1.672,1.656h1.672A1.464,1.464,0,0,0,20,266.672h1.672Q21.281,270,18.344,270H15a3.348,3.348,0,0,1-3.328-3.328v-5A3.354,3.354,0,0,1,15,258.328h3.344a3.19,3.19,0,0,1,2.348.988,3.229,3.229,0,0,1,.98,2.355ZM15,263.328h3.344v-1.656a1.672,1.672,0,0,0-3.344,0ZM28.328,270H25V258.328h3.328v3.344a4.115,4.115,0,0,1,1.031-2.508,3.125,3.125,0,0,1,2.313-.836h1.656v3.344H30a1.616,1.616,0,0,0-1.18.488,1.587,1.587,0,0,0-.492,1.168Zm10,0H35V258.328h3.328v3.344a4.115,4.115,0,0,1,1.031-2.508,3.125,3.125,0,0,1,2.313-.836h1.656v3.344H40a1.616,1.616,0,0,0-1.18.488,1.587,1.587,0,0,0-.492,1.168ZM45,256.672V255h3.328v1.672ZM45,270V258.328h3.328V270Zm8.344-15h3.328v3.328h1.672V260H56.672v6.672a1.484,1.484,0,0,0,.531,1.23,1.625,1.625,0,0,0,.984.426h.156V270H56.672a3.341,3.341,0,0,1-3.328-3.328V260H51.672v-1.672h1.672ZM65,258.328h3.344a3.19,3.19,0,0,1,2.348.988,3.229,3.229,0,0,1,.98,2.355v5A3.361,3.361,0,0,1,68.344,270H65a3.348,3.348,0,0,1-3.328-3.328v-5A3.354,3.354,0,0,1,65,258.328Zm0,3.344v5a1.672,1.672,0,0,0,3.344,0v-5a1.672,1.672,0,0,0-3.344,0ZM78.328,270H75V258.328h3.328v3.344a4.116,4.116,0,0,1,1.031-2.508,3.125,3.125,0,0,1,2.313-.836h1.656v3.344H80a1.616,1.616,0,0,0-1.18.488,1.587,1.587,0,0,0-.492,1.168ZM85,256.672V255h3.328v1.672ZM85,270V258.328h3.328V270Zm16.672-5H95v1.672a1.674,1.674,0,0,0,1.672,1.656h1.672A1.464,1.464,0,0,0,100,266.672h1.672Q101.281,270,98.344,270H95a3.348,3.348,0,0,1-3.328-3.328v-5A3.354,3.354,0,0,1,95,258.328h3.344a3.19,3.19,0,0,1,2.348.988,3.229,3.229,0,0,1,.98,2.355ZM95,263.328h3.344v-1.656a1.672,1.672,0,0,0-3.344,0Zm18.328-1.656h-1.656Q111.453,260,110.094,260a2.134,2.134,0,0,0-1.328.348,1.233,1.233,0,0,0-.445,1.035q0,.719,2.43,2.016a5.317,5.317,0,0,1,2.277,1.762,3.726,3.726,0,0,1,.3,1.488A3.348,3.348,0,0,1,110,270h-1.672Q105,270,105,266.672h1.672q.2,1.664,1.563,1.664a2.116,2.116,0,0,0,1.328-.352,1.244,1.244,0,0,0,.445-1.039q0-.7-2.422-2.016a5.264,5.264,0,0,1-2.285-1.758,3.735,3.735,0,0,1-.3-1.484,3.354,3.354,0,0,1,3.328-3.359H110Q113.125,258.328,113.328,261.672ZM116.672,270v-3.328H120V270Z" transform="translate(348 385)" fill="#a8b2d1"/>
    </g>
    <g id="Rectangle_3" data-name="Rectangle 3" transform="translate(636 149)" fill="#0a192f" stroke="#a8b2d1" stroke-width="3">
      <rect width="332" height="77" rx="17" stroke="none"/>
      <rect x="1.5" y="1.5" width="329" height="74" rx="15.5" fill="none"/>
    </g>
    <g id="Rectangle_2" data-name="Rectangle 2" transform="translate(651 135)" fill="#0a192f" stroke="#a8b2d1" stroke-width="3">
      <rect width="332" height="77" rx="17" stroke="none"/>
      <rect x="1.5" y="1.5" width="329" height="74" rx="15.5" fill="none"/>
    </g>
    <path id="Path_1" data-name="Path 1" d="M.96-2.856H9.836L11.37-7.179H24.354l1.589,4.323h8.821L18.273-44.46h-.822ZM14.219-14.7l3.671-10.443L21.45-14.7ZM48.132-35.027H55.09c2.246,0,3.616,1.8,3.616,4.043,0,2.19-1.37,4.043-3.616,4.043H48.132ZM40.243-2.856h15.5a11.8,11.8,0,0,0,11.56-12.071,9.824,9.824,0,0,0-4.054-8.029c2.465-1.741,3.506-4.885,3.616-7.917.164-7.074-4.164-12.184-11.122-12.184h-15.5Zm7.889-16.058H55.09a3.9,3.9,0,0,1,3.945,3.986,3.944,3.944,0,0,1-3.945,4.043H48.132ZM93.112-2.294c26.955,0,26.955-41.38,0-41.38S66.157-2.294,93.112-2.294Zm0-8.31c-15.669,0-15.669-24.816,0-24.816S108.781-10.6,93.112-10.6Zm55.664-6.232V-43H141v26.108c0,8.422-12.711,8.422-12.711,0V-43h-7.835v26.164C120.451,2.253,148.776,2.253,148.776-16.836Zm22.956,13.98V-34.971h9.752v-7.973H154.145v7.973H163.9V-2.856Zm49.2-23.132-15.45-17.63h-2.52V-2.856h7.944v-22.4l10.026,10.78,10.026-10.78-.055,22.4h7.944V-43.618h-2.465ZM267.939-2.856v-8.029H255.5v-8.029h10.3v-8.029H255.5v-8.029h11.779V-43H247.667V-2.856Z" transform="translate(683 197)" fill="#a8b2d1"/>
    <line id="Line_5" data-name="Line 5" x2="387" transform="translate(233.5 179.5)" fill="none" stroke="#707070" stroke-width="3" opacity="0.3"/>
  </g>
</svg>
