<?xml version="1.0"?>
<svg xmlns="http://www.w3.org/2000/svg" viewBox="0 0 64 64" width="512" height="512" fill="white"><g id="Outline"><g><path d="M57,2H7A5.006,5.006,0,0,0,2,7V35a5.006,5.006,0,0,0,5,5H9.349a1,1,0,1,0,0-2H7a3,3,0,0,1-3-3V7A3,3,0,0,1,7,4H57a3,3,0,0,1,3,3V35a3,3,0,0,1-3,3H54.651a1,1,0,0,0,0,2H57a5.006,5.006,0,0,0,5-5V7A5.006,5.006,0,0,0,57,2Z"/><path d="M6.207,19.61l10,13a1,1,0,0,0,1.586,0l10-13a1,1,0,0,0,.039-1.165l-4-6A1,1,0,0,0,23,12H11a1,1,0,0,0-.832.445l-4,6A1,1,0,0,0,6.207,19.61ZM24.969,20l-5.384,7,2.154-7Zm-2.582-2,.915-2.744L25.132,18ZM20.7,16.744,18.868,14h2.745ZM19.132,18H14.868L17,14.8ZM13.3,16.744,12.387,14h2.745ZM19.646,20,17,28.6,14.354,20ZM10.7,15.256,11.613,18H11a1,1,0,0,0,0,2h1.261l2.154,7L8.229,18.958Z"/><path d="M31,26a1,1,0,0,0,0,2h6a1,1,0,0,0,1-1V15a1,1,0,0,0-1-1H31a1,1,0,0,0-1,1v6a1,1,0,0,0,1,1h5v4Zm1-10h4v4H32Z"/><path d="M41,26a1,1,0,0,0,0,2h6a1,1,0,0,0,1-1V15a1,1,0,0,0-1-1H41a1,1,0,0,0-1,1v6a1,1,0,0,0,1,1h5v4Zm1-10h4v4H42Z"/><path d="M51,26a1,1,0,0,0,0,2h6a1,1,0,0,0,1-1V15a1,1,0,0,0-1-1H51a1,1,0,0,0-1,1v6a1,1,0,0,0,1,1h5v4Zm1-10h4v4H52Z"/><path d="M18,9V7a1,1,0,0,0-2,0V9a1,1,0,0,0,2,0Z"/><path d="M22,10a1,1,0,0,0,.9-.553l1-2a1,1,0,1,0-1.79-.894l-1,2A1,1,0,0,0,22,10Z"/><path d="M12,10A1,1,0,0,0,12.9,8.553l-1-2a1,1,0,1,0-1.79.894l1,2A1,1,0,0,0,12,10Z"/><path d="M40,38a3,3,0,1,0,3,3A3,3,0,0,0,40,38Zm0,4a1,1,0,1,1,1-1A1,1,0,0,1,40,42Z"/><path d="M46,49a3,3,0,1,0-3-3A3,3,0,0,0,46,49Zm0-4a1,1,0,1,1-1,1A1,1,0,0,1,46,45Z"/><path d="M20,50h4a1,1,0,0,0,1-1V47h2a1,1,0,0,0,1-1V42a1,1,0,0,0-1-1H25V39a1,1,0,0,0-1-1H20a1,1,0,0,0-1,1v2H17a1,1,0,0,0,0,2h3a1,1,0,0,0,1-1V40h2v2a1,1,0,0,0,1,1h2v2H24a1,1,0,0,0-1,1v2H21V46a1,1,0,0,0-1-1H17a1,1,0,0,0,0,2h2v2A1,1,0,0,0,20,50Z"/><circle cx="30" cy="38" r="1"/><circle cx="34" cy="38" r="1"/><path d="M42,33H22A11.013,11.013,0,0,0,11,44V55.729a6.271,6.271,0,0,0,12.185,2.087l1.081-3.063A10.9,10.9,0,0,0,29.529,52h4.942a10.9,10.9,0,0,0,5.263,2.753l1.081,3.063A6.271,6.271,0,0,0,53,55.729V52a1,1,0,0,0-2,0v3.729a4.271,4.271,0,0,1-8.3,1.421l-1.274-3.61a1,1,0,0,0-.793-.656A8.934,8.934,0,0,1,35.59,50.3a1,1,0,0,0-.712-.3H29.122a1,1,0,0,0-.712.3,8.934,8.934,0,0,1-5.045,2.586,1,1,0,0,0-.793.656L21.3,57.15A4.271,4.271,0,0,1,13,55.729V44a9.01,9.01,0,0,1,9-9H42a9.01,9.01,0,0,1,9,9v4a1,1,0,0,0,2,0V44A11.013,11.013,0,0,0,42,33Z"/></g></g></svg>
