<svg xmlns="http://www.w3.org/2000/svg" xmlns:xlink="http://www.w3.org/1999/xlink" width="1586" height="546" viewBox="0 0 1586 546">
  <defs>
    <filter id="Rectangle_1" x="0" y="39" width="1586" height="507" filterUnits="userSpaceOnUse">
      <feOffset dx="15" dy="15" input="SourceAlpha"/>
      <feGaussianBlur stdDeviation="10" result="blur"/>
      <feFlood flood-opacity="0.455"/>
      <feComposite operator="in" in2="blur"/>
      <feComposite in="SourceGraphic"/>
    </filter>
  </defs>
  <g id="Group_1" data-name="Group 1" transform="translate(-182 -252)">
    <g transform="matrix(1, 0, 0, 1, 182, 252)" filter="url(#Rectangle_1)">
      <rect id="Rectangle_1-2" data-name="Rectangle 1" width="1526" height="447" rx="42" transform="translate(15 54)" fill="#333f58"/>
    </g>
    <path id="Rectangle_2" data-name="Rectangle 2" d="M20,0H396a20,20,0,0,1,20,20V59a0,0,0,0,1,0,0H0a0,0,0,0,1,0,0V20A20,20,0,0,1,20,0Z" transform="translate(245 252)" fill="#333f58"/>
    <path id="Path_1" data-name="Path 1" d="M244.836,296.651s.024,16.781-20.58,22.324,28.3,8.987,28.3,8.987Z" transform="translate(0 -10)" fill="#333f58"/>
    <path id="Path_2" data-name="Path 2" d="M226.914,296.651s-.024,16.781,20.58,22.324-28.3,8.987-28.3,8.987Z" transform="translate(434 -13)" fill="#333f58"/>
    <rect id="Rectangle_3" data-name="Rectangle 3" width="1428" height="50" rx="25" transform="translate(251 328)" fill="#8892b0"/>
    <g id="Rectangle_4" data-name="Rectangle 4" transform="translate(274 348)" fill="#fff" stroke="#fff" stroke-width="1">
      <rect width="14" height="13" rx="4" stroke="none"/>
      <rect x="0.5" y="0.5" width="13" height="12" rx="3.5" fill="none"/>
    </g>
    <path id="Path_4" data-name="Path 4" d="M284.474,352.379s.048-4.9-3.365-5.04c-.11.016-3.492-.477-3.491,5.04" transform="translate(0 -4)" fill="none" stroke="#fff" stroke-width="1.7"/>
    <path id="Path_5" data-name="Path 5" d="M7.487,6.571H4.274A2.488,2.488,0,0,1,2,3.952V-25.46a2.488,2.488,0,0,1,2.274-2.62H7.487a2.488,2.488,0,0,1,2.274,2.62V3.952A2.488,2.488,0,0,1,7.487,6.571ZM33.043-15.772H21.229a2.028,2.028,0,0,0-.544.049,2.011,2.011,0,0,0-1.186-.4H16.681A1.983,1.983,0,0,0,14.7-14.14V4.644a1.983,1.983,0,0,0,1.977,1.977H19.5a1.983,1.983,0,0,0,1.977-1.977V-9.79h5.339A2.268,2.268,0,0,1,28.94-7.418V4.248a2.23,2.23,0,0,0,2.076,2.373h2.027a2.23,2.23,0,0,0,2.076-2.373v-17.7A2.215,2.215,0,0,0,33.043-15.772Zm26.4-12.21H49.157a4.462,4.462,0,0,0-4.6,4.251v11.864a.965.965,0,0,1-1.038.939H41.15a1.088,1.088,0,0,0-1.087,1.038v1.038a1.048,1.048,0,0,0,1.087.989h2.373a1,1,0,0,1,1.038.939v12.6a1.029,1.029,0,0,0,1.038.939h4.844a1,1,0,0,0,1.038-.939v-12.6a1.029,1.029,0,0,1,1.038-.939h2.422a1.035,1.035,0,0,0,1.038-.989V-9.889a1.078,1.078,0,0,0-1.038-1.038H52.519a.994.994,0,0,1-1.038-.939v-9.54a.994.994,0,0,1,1.038-.939,1.01,1.01,0,0,1,1.087.939v.741a1.035,1.035,0,0,0,1.038.989h4.795a1.083,1.083,0,0,0,1.087-.989v-6.327A1.048,1.048,0,0,0,59.439-27.981ZM77.531-16.118H63.295A3.074,3.074,0,0,0,60.032-13.2V3.754a3.068,3.068,0,0,0,3.262,2.867H77.531a3.1,3.1,0,0,0,3.262-2.867V-13.2A3.1,3.1,0,0,0,77.531-16.118ZM73.774-2.475A3.1,3.1,0,0,1,70.512.442h-.2a3.074,3.074,0,0,1-3.262-2.916V-7.022a3.068,3.068,0,0,1,3.262-2.867h.2a3.1,3.1,0,0,1,3.262,2.867ZM104.619-8.8h-3.658a2.11,2.11,0,0,1-2.126-2.126v-3.707a2.1,2.1,0,0,1,2.126-2.076h3.658a2.1,2.1,0,0,1,2.126,2.076v3.707A2.11,2.11,0,0,1,104.619-8.8Zm0,15.077h-3.658a2.11,2.11,0,0,1-2.126-2.126V.442a2.1,2.1,0,0,1,2.126-2.076h3.658A2.1,2.1,0,0,1,106.745.442V4.149A2.11,2.11,0,0,1,104.619,6.275Z" transform="translate(272 449)" fill="#64ffda"/>
    <path id="Path_8" data-name="Path 8" d="M4.95-31.5a2.875,2.875,0,0,0-2.7,3.015v14a2.917,2.917,0,0,0,2.7,3.06h7.785A2.574,2.574,0,0,1,15.435-9a2.574,2.574,0,0,1-2.7,2.43h-.09c-1.485,0-2.7-.36-2.7-.81s-1.215-.855-2.7-.855H5.085a2.875,2.875,0,0,0-2.7,3.015v2.25A2.862,2.862,0,0,0,5.085,0h14.8a2.862,2.862,0,0,0,2.7-2.97V-14.985A2.9,2.9,0,0,0,19.89-18h-6.7a2.84,2.84,0,0,1-2.745-2.97v-.63c0-1.71.99-3.015,2.2-3.015s2.205.27,2.205.54,1.215.54,2.7.54h2.34a2.847,2.847,0,0,0,2.7-3.015v-1.935a2.875,2.875,0,0,0-2.7-3.015ZM46.44-1.35,41-13.365a1.247,1.247,0,0,1,0-.81l4.5-10.845a.961.961,0,0,0-.81-1.3H39.96a.883.883,0,0,0-.855.54l-2.79,6.525c-.225.585-2.34.45-2.34-.225V-30.6a.9.9,0,0,0-.855-.9h-4.5a.865.865,0,0,0-.855.9V-.945a.865.865,0,0,0,.855.9h4.5a.9.9,0,0,0,.855-.9V-8.01c0-.495,1.89-.675,2.16-.18L39.87-.5a.788.788,0,0,0,.765.5l5.04-.045A.912.912,0,0,0,46.44-1.35Zm2.97-27.27v.225a2.138,2.138,0,0,0,2.07,2.25h2.655a2.167,2.167,0,0,0,2.07-2.25v-.225a2.208,2.208,0,0,0-2.07-2.3H51.48A2.178,2.178,0,0,0,49.41-28.62ZM51.48-.045h2.655a2.18,2.18,0,0,0,2.07-2.3V-18.405a2.222,2.222,0,0,0-2.07-2.34H51.48a2.192,2.192,0,0,0-2.07,2.34V-2.34A2.151,2.151,0,0,0,51.48-.045ZM66.195,0h-4.14a1.43,1.43,0,0,1-1.35-1.53v-28.4a1.472,1.472,0,0,1,1.35-1.575h4.14a1.5,1.5,0,0,1,1.35,1.575v28.4A1.459,1.459,0,0,1,66.195,0Zm11.34,0h-4.14a1.43,1.43,0,0,1-1.35-1.53v-28.4a1.472,1.472,0,0,1,1.35-1.575h4.14a1.5,1.5,0,0,1,1.35,1.575v28.4A1.459,1.459,0,0,1,77.535,0Zm9.99-14.04h-3.33a1.921,1.921,0,0,1-1.935-1.935V-19.35a1.911,1.911,0,0,1,1.935-1.89h3.33a1.911,1.911,0,0,1,1.935,1.89v3.375A1.921,1.921,0,0,1,87.525-14.04Zm0,13.725h-3.33A1.921,1.921,0,0,1,82.26-2.25V-5.625a1.911,1.911,0,0,1,1.935-1.89h3.33a1.911,1.911,0,0,1,1.935,1.89V-2.25A1.921,1.921,0,0,1,87.525-.315ZM125.91-31.5h-3.6a1.549,1.549,0,0,0-1.35,1.62v6.84a1.506,1.506,0,0,1-1.395,1.575h-5.4a1.472,1.472,0,0,1-1.35-1.575v-6.84a1.55,1.55,0,0,0-1.4-1.62h-3.735a1.515,1.515,0,0,0-1.35,1.62V-1.62A1.515,1.515,0,0,0,107.685,0h3.735a1.55,1.55,0,0,0,1.4-1.62V-7.155a1.43,1.43,0,0,1,1.35-1.53h5.4a1.464,1.464,0,0,1,1.395,1.53V-1.62A1.549,1.549,0,0,0,122.31,0h3.6a1.55,1.55,0,0,0,1.395-1.62V-29.88A1.55,1.55,0,0,0,125.91-31.5Zm5.895,2.115V-26.1a2,2,0,0,0,1.89,2.16h3.465a2.064,2.064,0,0,1,1.935,2.16V-2.115A2.036,2.036,0,0,0,141.03.045h3.195a2.031,2.031,0,0,0,1.89-2.16V-21.78a2.1,2.1,0,0,1,1.935-2.16h3.465a2.009,2.009,0,0,0,1.935-2.16v-3.285a2.064,2.064,0,0,0-1.935-2.16h-17.82A2.059,2.059,0,0,0,131.8-29.385Zm48.96-2.115h-3.78a1.855,1.855,0,0,0-1.8,1.215l-2.88,7.29a1.978,1.978,0,0,1-3.69-.09L166.14-30.24a1.91,1.91,0,0,0-1.845-1.26H159.93a1.914,1.914,0,0,0-1.98,1.845V-1.89A1.951,1.951,0,0,0,159.93,0h4.1A1.914,1.914,0,0,0,165.6-1.89V-10.8a1.874,1.874,0,0,1,1.935-1.845h5.49A1.874,1.874,0,0,1,174.96-10.8v8.91A1.941,1.941,0,0,0,176.895,0h3.87A1.911,1.911,0,0,0,182.7-1.89V-29.655A1.874,1.874,0,0,0,180.765-31.5Zm13.95,23.76V-29.97a1.709,1.709,0,0,0-1.8-1.53h-3.96a1.7,1.7,0,0,0-1.755,1.53V-1.53A1.7,1.7,0,0,0,188.955,0h16.74a1.709,1.709,0,0,0,1.8-1.53V-4.77a1.709,1.709,0,0,0-1.8-1.53H196.47A1.626,1.626,0,0,1,194.715-7.74Zm22.41,6.3a2.227,2.227,0,0,1-2.97,1.17l-.81-.36a2.214,2.214,0,0,1-1.17-2.925l11.43-26.46a2.28,2.28,0,0,1,2.97-1.17l.81.36a2.28,2.28,0,0,1,1.17,2.97Zm26.64-4.86a2.853,2.853,0,0,1-2.79-2.88V-22.275a2.853,2.853,0,0,1,2.79-2.88,2.68,2.68,0,0,1,2.61,2.88v.99a.711.711,0,0,0,.72.72h4.725a.711.711,0,0,0,.72-.72V-23.76c0-4.23-3.2-7.74-7.11-7.74h-5.085c-3.915,0-7.11,3.465-7.11,7.7V-7.7c0,4.23,3.2,7.7,7.11,7.7h5.085c3.915,0,7.11-3.465,7.11-7.7v-1.26a.711.711,0,0,0-.72-.72h-4.86c-.405,0-.72.225-.72.495C246.24-7.605,245.34-6.3,243.765-6.3ZM259.74-31.5a2.875,2.875,0,0,0-2.7,3.015v14a2.917,2.917,0,0,0,2.7,3.06h7.785a2.574,2.574,0,0,1,2.7,2.43,2.574,2.574,0,0,1-2.7,2.43h-.09c-1.485,0-2.7-.36-2.7-.81s-1.215-.855-2.7-.855h-2.16a2.875,2.875,0,0,0-2.7,3.015v2.25a2.862,2.862,0,0,0,2.7,2.97h14.8a2.862,2.862,0,0,0,2.7-2.97V-14.985A2.9,2.9,0,0,0,274.68-18h-6.7a2.84,2.84,0,0,1-2.745-2.97v-.63c0-1.71.99-3.015,2.205-3.015s2.2.27,2.2.54,1.215.54,2.7.54h2.34a2.847,2.847,0,0,0,2.7-3.015v-1.935a2.875,2.875,0,0,0-2.7-3.015Zm24.84,0a2.875,2.875,0,0,0-2.7,3.015v14a2.917,2.917,0,0,0,2.7,3.06h7.785a2.574,2.574,0,0,1,2.7,2.43,2.574,2.574,0,0,1-2.7,2.43h-.09c-1.485,0-2.7-.36-2.7-.81s-1.215-.855-2.7-.855h-2.16a2.875,2.875,0,0,0-2.7,3.015v2.25a2.862,2.862,0,0,0,2.7,2.97H299.52a2.862,2.862,0,0,0,2.7-2.97V-14.985A2.9,2.9,0,0,0,299.52-18h-6.705a2.84,2.84,0,0,1-2.745-2.97v-.63c0-1.71.99-3.015,2.2-3.015s2.205.27,2.205.54,1.215.54,2.7.54h2.34a2.847,2.847,0,0,0,2.7-3.015v-1.935a2.875,2.875,0,0,0-2.7-3.015Z" transform="translate(274 298)" fill="#64ffda"/>
    <path id="Path_7" data-name="Path 7" d="M21.16-26.28c.52-.8.24-1.44-.64-1.44h-4.8c-.88,0-1.4.6-1.92,1.4L9.2-20.84c-.52.76-.96.64-.96-.4V-26.2A1.683,1.683,0,0,0,6.64-28H3.6A1.683,1.683,0,0,0,2-26.2V-1.8A1.708,1.708,0,0,0,3.6,0H6.64a1.708,1.708,0,0,0,1.6-1.8v-5c0-1,.44-1.16.96-.36l4.6,5.68C14.32-.64,14.84,0,15.72,0H20.4c.88,0,1.2-.68.68-1.48L12.32-12.56a2.953,2.953,0,0,1,.04-2.88Zm12,13.04h6a1.926,1.926,0,0,0,1.84-2V-16.4a1.952,1.952,0,0,0-1.84-2h-9.8a4.154,4.154,0,0,0-3.92,4.32v9.8A4.154,4.154,0,0,0,29.36.04h9.8a1.952,1.952,0,0,0,1.84-2V-3.12a1.926,1.926,0,0,0-1.84-2h-6a1.926,1.926,0,0,1-1.84-2V-11.2A1.963,1.963,0,0,1,33.16-13.24Zm28-4.56H52.04c-.72,0-1.2-.76-1.2-1.72v-6.8A1.546,1.546,0,0,0,49.44-28H46.32A1.545,1.545,0,0,0,45-26.32V-1.68A1.545,1.545,0,0,0,46.32,0h3.12a1.547,1.547,0,0,0,1.28-1.68v-8.4c0-.92.56-1.72,1.28-1.72h3.6c.68,0,1.28.8,1.28,1.72v8.4A1.517,1.517,0,0,0,58.16,0h3a1.545,1.545,0,0,0,1.32-1.68v-14.4A1.56,1.56,0,0,0,61.16-17.8ZM83.12-9.28v-5.24c0-1.92-1.52-3.88-3.4-3.88H69.88c-1.88,0-3.4,1.96-3.4,3.88V-3.48A3.441,3.441,0,0,0,69.88,0H81.56a1.324,1.324,0,0,0,1.28-1.32V-3.44A1.334,1.334,0,0,0,81.56-4.8H72.92a1.324,1.324,0,0,1-1.28-1.32V-6.6a1.324,1.324,0,0,1,1.28-1.32h8.92A1.334,1.334,0,0,0,83.12-9.28ZM72.96-14.6h4.4a1.308,1.308,0,0,1,1.28,1.36,1.3,1.3,0,0,1-1.28,1.32h-4.4a1.3,1.3,0,0,1-1.28-1.32A1.308,1.308,0,0,1,72.96-14.6Zm29-3.52H92.4a1.641,1.641,0,0,0-.44.04A1.628,1.628,0,0,0,91-18.4H88.72a1.6,1.6,0,0,0-1.6,1.6V-1.6A1.6,1.6,0,0,0,88.72,0H91a1.6,1.6,0,0,0,1.6-1.6V-13.28h4.32a1.836,1.836,0,0,1,1.72,1.92v9.44A1.8,1.8,0,0,0,100.32,0h1.64a1.8,1.8,0,0,0,1.68-1.92V-16.24A1.793,1.793,0,0,0,101.96-18.12Zm16.84-.44a.539.539,0,0,1-.56.52h-8.12c-2.52,0-3.08,1.76-3.08,3.92V-2.96c0,3.4,2.8,2.92,3.08,2.92h6.84c2.08,0,1.92,2.04,1.92,2.32v.2c.16,2.24-1.6,2.04-1.92,2.04H113.8a.565.565,0,0,1-.56-.48V2.76a.5.5,0,0,0-.52-.48H108.2a.533.533,0,0,0-.56.48V5.12a4.271,4.271,0,0,0,4.52,3.96h8.44a3.946,3.946,0,0,0,3.84-3.96V-18.56c0-.2-.28-.44-.56-.44h-4.52A.536.536,0,0,0,118.8-18.56ZM117.48-5H114.2c-1.92.12-1.6-1.16-1.6-1.16v-5.12c0-.24-.28-1.56,1.6-1.56h3.28c1.4,0,1.2,1.32,1.2,1.56v4.84C118.68-6.16,118.84-5,117.48-5ZM133.12-.12h-2.96a1.707,1.707,0,0,1-1.72-1.72v-3a1.7,1.7,0,0,1,1.72-1.68h2.96a1.7,1.7,0,0,1,1.72,1.68v3A1.707,1.707,0,0,1,133.12-.12Zm13.44-13.12h6a1.926,1.926,0,0,0,1.84-2V-16.4a1.952,1.952,0,0,0-1.84-2h-9.8a4.154,4.154,0,0,0-3.92,4.32v9.8A4.154,4.154,0,0,0,142.76.04h9.8a1.952,1.952,0,0,0,1.84-2V-3.12a1.926,1.926,0,0,0-1.84-2h-6a1.926,1.926,0,0,1-1.84-2V-11.2A1.963,1.963,0,0,1,146.56-13.24Zm25.6-5.16H160.64A2.487,2.487,0,0,0,158-16.04V-2.32A2.483,2.483,0,0,0,160.64,0h11.52a2.508,2.508,0,0,0,2.64-2.32V-16.04A2.512,2.512,0,0,0,172.16-18.4ZM169.12-7.36A2.512,2.512,0,0,1,166.48-5h-.16a2.487,2.487,0,0,1-2.64-2.36v-3.68a2.483,2.483,0,0,1,2.64-2.32h.16a2.508,2.508,0,0,1,2.64,2.32Zm30.96-10.76H193.6a2.2,2.2,0,0,0-1.48.56,1.64,1.64,0,0,0-1.24-.56h-7.16a1.641,1.641,0,0,0-.44.04,1.54,1.54,0,0,0-.96-.32h-2.28a1.571,1.571,0,0,0-1.56,1.6V-1.6A1.571,1.571,0,0,0,180.04,0h2.28a1.6,1.6,0,0,0,1.6-1.6V-13.28h1.92a1.81,1.81,0,0,1,1.72,1.92v9.44A1.81,1.81,0,0,0,189.28,0h1.6a1.836,1.836,0,0,0,1.72-1.92V-13.28h2.44a1.81,1.81,0,0,1,1.72,1.92v9.44A1.81,1.81,0,0,0,198.48,0h1.6a1.836,1.836,0,0,0,1.72-1.92V-16.24A1.824,1.824,0,0,0,200.08-18.12ZM210.36-1.28a1.98,1.98,0,0,1-2.64,1.04L207-.56a1.968,1.968,0,0,1-1.04-2.6l10.16-23.52a2.027,2.027,0,0,1,2.64-1.04l.72.32a2.027,2.027,0,0,1,1.04,2.64ZM227.08-28a2.555,2.555,0,0,0-2.4,2.68v12.44a2.593,2.593,0,0,0,2.4,2.72H234A2.288,2.288,0,0,1,236.4-8,2.288,2.288,0,0,1,234-5.84h-.08c-1.32,0-2.4-.32-2.4-.72s-1.08-.76-2.4-.76H227.2a2.555,2.555,0,0,0-2.4,2.68v2A2.544,2.544,0,0,0,227.2,0h13.16a2.544,2.544,0,0,0,2.4-2.64V-13.32a2.581,2.581,0,0,0-2.4-2.68H234.4a2.524,2.524,0,0,1-2.44-2.64v-.56c0-1.52.88-2.68,1.96-2.68s1.96.24,1.96.48,1.08.48,2.4.48h2.08a2.53,2.53,0,0,0,2.4-2.68v-1.72a2.555,2.555,0,0,0-2.4-2.68ZM263.96-1.2l-4.84-10.68a1.108,1.108,0,0,1,0-.72l4-9.64a.854.854,0,0,0-.72-1.16h-4.2a.784.784,0,0,0-.76.48l-2.48,5.8c-.2.52-2.08.4-2.08-.2V-27.2a.8.8,0,0,0-.76-.8h-4a.769.769,0,0,0-.76.8V-.84a.769.769,0,0,0,.76.8h4a.8.8,0,0,0,.76-.8V-7.12c0-.44,1.68-.6,1.92-.16l3.32,6.84a.7.7,0,0,0,.68.44l4.48-.04A.811.811,0,0,0,263.96-1.2Zm2.64-24.24v.2a1.9,1.9,0,0,0,1.84,2h2.36a1.926,1.926,0,0,0,1.84-2v-.2a1.963,1.963,0,0,0-1.84-2.04h-2.36A1.936,1.936,0,0,0,266.6-25.44Zm1.84,25.4h2.36a1.937,1.937,0,0,0,1.84-2.04V-16.36a1.975,1.975,0,0,0-1.84-2.08h-2.36a1.949,1.949,0,0,0-1.84,2.08V-2.08A1.912,1.912,0,0,0,268.44-.04ZM281.52,0h-3.68a1.271,1.271,0,0,1-1.2-1.36V-26.6a1.308,1.308,0,0,1,1.2-1.4h3.68a1.336,1.336,0,0,1,1.2,1.4V-1.36A1.3,1.3,0,0,1,281.52,0ZM291.6,0h-3.68a1.271,1.271,0,0,1-1.2-1.36V-26.6a1.308,1.308,0,0,1,1.2-1.4h3.68a1.336,1.336,0,0,1,1.2,1.4V-1.36A1.3,1.3,0,0,1,291.6,0Zm21.12-8.6c0-2.28-1.76-1.88-2.08-1.88h-6.76a.983.983,0,0,1-1.04-.84v-2.4a.983.983,0,0,1,1.04-.84h2.48a.509.509,0,0,1,.56.48c0,.24.28.44.56.44h3.72c2.2.36,1.76-1.72,1.76-1.96v-1.24c0-.24.12-1.56-1.8-1.56H299.68c-3.48,0-2.84,1.84-2.84,2.08v7.76c0,2.24,1.76,1.84,2.08,1.84h7.24a.942.942,0,0,1,1,.84v1.04a.942.942,0,0,1-1,.84H303.4a.535.535,0,0,1-.56-.48.506.506,0,0,0-.56-.44H297.4a.506.506,0,0,0-.56.44v2.36c0,2.36,1.28,2.12,1.6,2.12h11.8c2.84,0,2.48-1.96,2.48-2.24Zm8.84,7.32a1.98,1.98,0,0,1-2.64,1.04l-.72-.32a1.968,1.968,0,0,1-1.04-2.6l10.16-23.52a2.027,2.027,0,0,1,2.64-1.04l.72.32a2.027,2.027,0,0,1,1.04,2.64ZM353.28-28h-3.2a1.376,1.376,0,0,0-1.2,1.44v6.08a1.339,1.339,0,0,1-1.24,1.4h-4.8a1.308,1.308,0,0,1-1.2-1.4v-6.08A1.378,1.378,0,0,0,340.4-28h-3.32a1.347,1.347,0,0,0-1.2,1.44V-1.44A1.347,1.347,0,0,0,337.08,0h3.32a1.378,1.378,0,0,0,1.24-1.44V-6.36a1.271,1.271,0,0,1,1.2-1.36h4.8a1.3,1.3,0,0,1,1.24,1.36v4.92A1.376,1.376,0,0,0,350.08,0h3.2a1.378,1.378,0,0,0,1.24-1.44V-26.56A1.378,1.378,0,0,0,353.28-28Zm5.24,1.88v2.92a1.78,1.78,0,0,0,1.68,1.92h3.08A1.834,1.834,0,0,1,365-19.36V-1.88A1.809,1.809,0,0,0,366.72.04h2.84a1.8,1.8,0,0,0,1.68-1.92V-19.36a1.862,1.862,0,0,1,1.72-1.92h3.08a1.785,1.785,0,0,0,1.72-1.92v-2.92a1.834,1.834,0,0,0-1.72-1.92H360.2A1.831,1.831,0,0,0,358.52-26.12ZM402.04-28h-3.36a1.649,1.649,0,0,0-1.6,1.08l-2.56,6.48a1.758,1.758,0,0,1-3.28-.08l-2.2-6.36A1.7,1.7,0,0,0,387.4-28h-3.88a1.7,1.7,0,0,0-1.76,1.64V-1.68A1.734,1.734,0,0,0,383.52,0h3.64a1.7,1.7,0,0,0,1.4-1.68V-9.6a1.666,1.666,0,0,1,1.72-1.64h4.88a1.666,1.666,0,0,1,1.72,1.64v7.92A1.725,1.725,0,0,0,398.6,0h3.44a1.7,1.7,0,0,0,1.72-1.68V-26.36A1.666,1.666,0,0,0,402.04-28Zm12.4,21.12V-26.64a1.519,1.519,0,0,0-1.6-1.36h-3.52a1.506,1.506,0,0,0-1.56,1.36V-1.36A1.506,1.506,0,0,0,409.32,0H424.2a1.519,1.519,0,0,0,1.6-1.36V-4.24a1.519,1.519,0,0,0-1.6-1.36H416A1.446,1.446,0,0,1,414.44-6.88Zm29.84-3.76a.359.359,0,0,1-.36.36H430.16a.359.359,0,0,1-.36-.36V-14.4a.359.359,0,0,1,.36-.36h13.76a.359.359,0,0,1,.36.36ZM457.64-5.6a2.536,2.536,0,0,1-2.48-2.56V-19.8a2.536,2.536,0,0,1,2.48-2.56,2.382,2.382,0,0,1,2.32,2.56v.88a.632.632,0,0,0,.64.64h4.2a.632.632,0,0,0,.64-.64v-2.2c0-3.76-2.84-6.88-6.32-6.88H454.6a6.614,6.614,0,0,0-6.32,6.84V-6.84A6.614,6.614,0,0,0,454.6,0h4.52a6.614,6.614,0,0,0,6.32-6.84V-7.96a.632.632,0,0,0-.64-.64h-4.32c-.36,0-.64.2-.64.44A2.292,2.292,0,0,1,457.64-5.6ZM471.84-28a2.555,2.555,0,0,0-2.4,2.68v12.44a2.593,2.593,0,0,0,2.4,2.72h6.92A2.288,2.288,0,0,1,481.16-8a2.288,2.288,0,0,1-2.4,2.16h-.08c-1.32,0-2.4-.32-2.4-.72s-1.08-.76-2.4-.76h-1.92a2.555,2.555,0,0,0-2.4,2.68v2A2.544,2.544,0,0,0,471.96,0h13.16a2.544,2.544,0,0,0,2.4-2.64V-13.32a2.581,2.581,0,0,0-2.4-2.68h-5.96a2.524,2.524,0,0,1-2.44-2.64v-.56c0-1.52.88-2.68,1.96-2.68s1.96.24,1.96.48,1.08.48,2.4.48h2.08a2.53,2.53,0,0,0,2.4-2.68v-1.72a2.555,2.555,0,0,0-2.4-2.68Zm22.08,0a2.555,2.555,0,0,0-2.4,2.68v12.44a2.593,2.593,0,0,0,2.4,2.72h6.92A2.288,2.288,0,0,1,503.24-8a2.288,2.288,0,0,1-2.4,2.16h-.08c-1.32,0-2.4-.32-2.4-.72s-1.08-.76-2.4-.76h-1.92a2.555,2.555,0,0,0-2.4,2.68v2A2.544,2.544,0,0,0,494.04,0H507.2a2.544,2.544,0,0,0,2.4-2.64V-13.32A2.581,2.581,0,0,0,507.2-16h-5.96a2.524,2.524,0,0,1-2.44-2.64v-.56c0-1.52.88-2.68,1.96-2.68s1.96.24,1.96.48,1.08.48,2.4.48h2.08a2.53,2.53,0,0,0,2.4-2.68v-1.72A2.555,2.555,0,0,0,507.2-28Z" transform="translate(308 367)" fill="#fff"/>
    <path id="Path_6" data-name="Path 6" d="M16.96,10H9.32A1.4,1.4,0,0,0,8,11.2L1.68,36A1.557,1.557,0,0,0,3,38.04H6.08A1.427,1.427,0,0,0,7.4,36.92l.88-3.2A1.437,1.437,0,0,1,9.6,32.6l6.72.04a1.4,1.4,0,0,1,1.32,1.16l.84,3.12a1.4,1.4,0,0,0,1.32,1.12h3.32A1.579,1.579,0,0,0,24.48,36l-6.2-24.8A1.431,1.431,0,0,0,16.96,10ZM10.92,24.36l.84-6.8a1.5,1.5,0,0,1,1.36-1.4,1.476,1.476,0,0,1,1.36,1.44l.68,6.8a1.538,1.538,0,0,1-1.36,1.8H12.32A1.621,1.621,0,0,1,10.92,24.36ZM43.8,10H35.48a3.611,3.611,0,0,0-3.72,3.44v9.6a.781.781,0,0,1-.84.76H29a.881.881,0,0,0-.88.84v.84a.848.848,0,0,0,.88.8h1.92a.806.806,0,0,1,.84.76v10.2a.833.833,0,0,0,.84.76h3.92a.806.806,0,0,0,.84-.76V27.04a.833.833,0,0,1,.84-.76h1.96a.838.838,0,0,0,.84-.8v-.84a.873.873,0,0,0-.84-.84H38.2a.8.8,0,0,1-.84-.76V15.32a.8.8,0,0,1,.84-.76.817.817,0,0,1,.88.76v.6a.838.838,0,0,0,.84.8H43.8a.876.876,0,0,0,.88-.8V10.8A.848.848,0,0,0,43.8,10Zm15.64,5.44H59.2a1.6,1.6,0,0,1-1.48-1.64V11.92A1.81,1.81,0,0,0,56,10H53.84a1.836,1.836,0,0,0-1.72,1.92V13.8a1.567,1.567,0,0,1-1.48,1.64H50.4a1.885,1.885,0,0,0-1.72,2v1.6a1.81,1.81,0,0,0,1.72,1.92h.24a1.579,1.579,0,0,1,1.48,1.68v13.4A1.848,1.848,0,0,0,53.84,38H56a1.822,1.822,0,0,0,1.72-1.96V22.64a1.606,1.606,0,0,1,1.48-1.68h.24a1.841,1.841,0,0,0,1.76-1.92v-1.6A1.916,1.916,0,0,0,59.44,15.44ZM79.92,28.72V23.48c0-1.92-1.52-3.88-3.4-3.88H66.68c-1.88,0-3.4,1.96-3.4,3.88V34.52A3.441,3.441,0,0,0,66.68,38H78.36a1.324,1.324,0,0,0,1.28-1.32V34.56a1.334,1.334,0,0,0-1.28-1.36H69.72a1.324,1.324,0,0,1-1.28-1.32V31.4a1.324,1.324,0,0,1,1.28-1.32h8.92A1.334,1.334,0,0,0,79.92,28.72ZM69.76,23.4h4.4a1.341,1.341,0,0,1,0,2.68h-4.4a1.341,1.341,0,0,1,0-2.68Zm22.72-3.64-1.72,1.16a.784.784,0,0,1-1.24-.6.763.763,0,0,0-.8-.72h-4.4a.763.763,0,0,0-.8.72V37.24a.769.769,0,0,0,.8.76h4.4a.769.769,0,0,0,.8-.76v-9.4a.726.726,0,0,1,.24-.56l3.6-2.64a.749.749,0,0,1,.56-.2h4a.763.763,0,0,0,.8-.72v-3.4a.763.763,0,0,0-.8-.72H92.96A.98.98,0,0,0,92.48,19.76Zm29.96,5h6a1.926,1.926,0,0,0,1.84-2V21.6a1.952,1.952,0,0,0-1.84-2h-9.8a4.154,4.154,0,0,0-3.92,4.32v9.8a4.154,4.154,0,0,0,3.92,4.32h9.8a1.952,1.952,0,0,0,1.84-2V34.88a1.926,1.926,0,0,0-1.84-2h-6a1.926,1.926,0,0,1-1.84-2V26.8A1.963,1.963,0,0,1,122.44,24.76Zm25.6-5.16H136.52a2.487,2.487,0,0,0-2.64,2.36V35.68A2.483,2.483,0,0,0,136.52,38h11.52a2.508,2.508,0,0,0,2.64-2.32V21.96A2.512,2.512,0,0,0,148.04,19.6ZM145,30.64A2.512,2.512,0,0,1,142.36,33h-.16a2.487,2.487,0,0,1-2.64-2.36V26.96a2.483,2.483,0,0,1,2.64-2.32h.16A2.508,2.508,0,0,1,145,26.96Zm30.96-10.76h-6.48a2.2,2.2,0,0,0-1.48.56,1.64,1.64,0,0,0-1.24-.56H159.6a1.641,1.641,0,0,0-.44.04,1.54,1.54,0,0,0-.96-.32h-2.28a1.571,1.571,0,0,0-1.56,1.6V36.4a1.571,1.571,0,0,0,1.56,1.6h2.28a1.6,1.6,0,0,0,1.6-1.6V24.72h1.92a1.81,1.81,0,0,1,1.72,1.92v9.44A1.81,1.81,0,0,0,165.16,38h1.6a1.836,1.836,0,0,0,1.72-1.92V24.72h2.44a1.81,1.81,0,0,1,1.72,1.92v9.44A1.81,1.81,0,0,0,174.36,38h1.6a1.836,1.836,0,0,0,1.72-1.92V21.76A1.824,1.824,0,0,0,175.96,19.88Zm8.52,30.84c3.36,0,3.08-2.08,3.08-4.8V38h8.28a2.487,2.487,0,0,0,2.64-2.36V21.92a2.483,2.483,0,0,0-2.64-2.32H184.32a2.508,2.508,0,0,0-2.64,2.32V48.64S181.28,50.72,184.48,50.72Zm2.88-23.76A2.512,2.512,0,0,1,190,24.6h.16a2.487,2.487,0,0,1,2.64,2.36v3.68a2.483,2.483,0,0,1-2.64,2.32H190a2.508,2.508,0,0,1-2.64-2.32Zm20,11.04h-3.68a1.271,1.271,0,0,1-1.2-1.36V11.4a1.308,1.308,0,0,1,1.2-1.4h3.68a1.336,1.336,0,0,1,1.2,1.4V36.64A1.3,1.3,0,0,1,207.36,38Zm21.84-9.28V23.48c0-1.92-1.52-3.88-3.4-3.88h-9.84c-1.88,0-3.4,1.96-3.4,3.88V34.52a3.441,3.441,0,0,0,3.4,3.48h11.68a1.324,1.324,0,0,0,1.28-1.32V34.56a1.334,1.334,0,0,0-1.28-1.36H219a1.324,1.324,0,0,1-1.28-1.32V31.4A1.324,1.324,0,0,1,219,30.08h8.92A1.334,1.334,0,0,0,229.2,28.72ZM219.04,23.4h4.4a1.341,1.341,0,0,1,0,2.68h-4.4a1.341,1.341,0,0,1,0-2.68Zm22.56-7.96h-.24a1.6,1.6,0,0,1-1.48-1.64V11.92A1.81,1.81,0,0,0,238.16,10H236a1.836,1.836,0,0,0-1.72,1.92V13.8a1.567,1.567,0,0,1-1.48,1.64h-.24a1.885,1.885,0,0,0-1.72,2v1.6a1.81,1.81,0,0,0,1.72,1.92h.24a1.579,1.579,0,0,1,1.48,1.68v13.4A1.848,1.848,0,0,0,236,38h2.16a1.822,1.822,0,0,0,1.72-1.96V22.64a1.606,1.606,0,0,1,1.48-1.68h.24a1.841,1.841,0,0,0,1.76-1.92v-1.6A1.916,1.916,0,0,0,241.6,15.44Zm4.24-2.88v.2a1.9,1.9,0,0,0,1.84,2h2.36a1.926,1.926,0,0,0,1.84-2v-.2a1.963,1.963,0,0,0-1.84-2.04h-2.36A1.936,1.936,0,0,0,245.84,12.56Zm1.84,25.4h2.36a1.937,1.937,0,0,0,1.84-2.04V21.64a1.975,1.975,0,0,0-1.84-2.08h-2.36a1.949,1.949,0,0,0-1.84,2.08V35.92A1.912,1.912,0,0,0,247.68,37.96Zm23.04-18.08h-9.56a1.641,1.641,0,0,0-.44.04,1.628,1.628,0,0,0-.96-.32h-2.28a1.6,1.6,0,0,0-1.6,1.6V36.4a1.6,1.6,0,0,0,1.6,1.6h2.28a1.6,1.6,0,0,0,1.6-1.6V24.72h4.32a1.836,1.836,0,0,1,1.72,1.92v9.44A1.8,1.8,0,0,0,269.08,38h1.64a1.8,1.8,0,0,0,1.68-1.92V21.76A1.793,1.793,0,0,0,270.72,19.88Zm16.84-.44a.539.539,0,0,1-.56.52h-8.12c-2.52,0-3.08,1.76-3.08,3.92V35.04c0,3.4,2.8,2.92,3.08,2.92h6.84c2.08,0,1.92,2.04,1.92,2.32v.2c.16,2.24-1.6,2.04-1.92,2.04h-3.16a.565.565,0,0,1-.56-.48V40.76a.5.5,0,0,0-.52-.48h-4.52a.533.533,0,0,0-.56.48v2.36a4.271,4.271,0,0,0,4.52,3.96h8.44a3.946,3.946,0,0,0,3.84-3.96V19.44c0-.2-.28-.44-.56-.44h-4.52A.536.536,0,0,0,287.56,19.44ZM286.24,33h-3.28c-1.92.12-1.6-1.16-1.6-1.16V26.72c0-.24-.28-1.56,1.6-1.56h3.28c1.4,0,1.2,1.32,1.2,1.56v4.84C287.44,31.84,287.6,33,286.24,33Zm36.72-13.4H311.44a2.487,2.487,0,0,0-2.64,2.36V35.68A2.483,2.483,0,0,0,311.44,38h11.52a2.508,2.508,0,0,0,2.64-2.32V21.96A2.512,2.512,0,0,0,322.96,19.6Zm-3.04,11.04A2.512,2.512,0,0,1,317.28,33h-.16a2.487,2.487,0,0,1-2.64-2.36V26.96a2.483,2.483,0,0,1,2.64-2.32h.16a2.508,2.508,0,0,1,2.64,2.32Zm24.12-10.76h-9.56a1.641,1.641,0,0,0-.44.04,1.628,1.628,0,0,0-.96-.32H330.8a1.6,1.6,0,0,0-1.6,1.6V36.4a1.6,1.6,0,0,0,1.6,1.6h2.28a1.6,1.6,0,0,0,1.6-1.6V24.72H339a1.836,1.836,0,0,1,1.72,1.92v9.44A1.8,1.8,0,0,0,342.4,38h1.64a1.8,1.8,0,0,0,1.68-1.92V21.76A1.793,1.793,0,0,0,344.04,19.88ZM354.6,38h-3.68a1.271,1.271,0,0,1-1.2-1.36V11.4a1.308,1.308,0,0,1,1.2-1.4h3.68a1.336,1.336,0,0,1,1.2,1.4V36.64A1.3,1.3,0,0,1,354.6,38Zm5.2-25.44v.2a1.9,1.9,0,0,0,1.84,2H364a1.926,1.926,0,0,0,1.84-2v-.2A1.963,1.963,0,0,0,364,10.52h-2.36A1.936,1.936,0,0,0,359.8,12.56Zm1.84,25.4H364a1.937,1.937,0,0,0,1.84-2.04V21.64A1.975,1.975,0,0,0,364,19.56h-2.36a1.949,1.949,0,0,0-1.84,2.08V35.92A1.912,1.912,0,0,0,361.64,37.96Zm23.04-18.08h-9.56a1.641,1.641,0,0,0-.44.04,1.628,1.628,0,0,0-.96-.32h-2.28a1.6,1.6,0,0,0-1.6,1.6V36.4a1.6,1.6,0,0,0,1.6,1.6h2.28a1.6,1.6,0,0,0,1.6-1.6V24.72h4.32a1.836,1.836,0,0,1,1.72,1.92v9.44A1.8,1.8,0,0,0,383.04,38h1.64a1.8,1.8,0,0,0,1.68-1.92V21.76A1.793,1.793,0,0,0,384.68,19.88ZM407,28.72V23.48c0-1.92-1.52-3.88-3.4-3.88h-9.84c-1.88,0-3.4,1.96-3.4,3.88V34.52a3.44,3.44,0,0,0,3.4,3.48h11.68a1.324,1.324,0,0,0,1.28-1.32V34.56a1.334,1.334,0,0,0-1.28-1.36H396.8a1.324,1.324,0,0,1-1.28-1.32V31.4a1.324,1.324,0,0,1,1.28-1.32h8.92A1.334,1.334,0,0,0,407,28.72ZM396.84,23.4h4.4a1.341,1.341,0,0,1,0,2.68h-4.4a1.341,1.341,0,0,1,0-2.68Zm33.88,1.36h6a1.926,1.926,0,0,0,1.84-2V21.6a1.952,1.952,0,0,0-1.84-2h-9.8A4.154,4.154,0,0,0,423,23.92v9.8a4.154,4.154,0,0,0,3.92,4.32h9.8a1.952,1.952,0,0,0,1.84-2V34.88a1.926,1.926,0,0,0-1.84-2h-6a1.926,1.926,0,0,1-1.84-2V26.8A1.963,1.963,0,0,1,430.72,24.76Zm25.6-5.16H444.8a2.487,2.487,0,0,0-2.64,2.36V35.68A2.483,2.483,0,0,0,444.8,38h11.52a2.508,2.508,0,0,0,2.64-2.32V21.96A2.512,2.512,0,0,0,456.32,19.6Zm-3.04,11.04A2.512,2.512,0,0,1,450.64,33h-.16a2.487,2.487,0,0,1-2.64-2.36V26.96a2.483,2.483,0,0,1,2.64-2.32h.16a2.508,2.508,0,0,1,2.64,2.32Zm20.64-9.56V31.4a1.563,1.563,0,0,1-1.6,1.52h-2a1.6,1.6,0,0,1-1.64-1.52V21.08a1.557,1.557,0,0,0-1.6-1.48h-2.92a1.557,1.557,0,0,0-1.6,1.48v15.4a1.564,1.564,0,0,0,1.6,1.52h14.28a1.574,1.574,0,0,0,1.64-1.52V21.08a1.569,1.569,0,0,0-1.64-1.48h-2.88A1.6,1.6,0,0,0,473.92,21.08Zm18.72-1.32-1.72,1.16a.784.784,0,0,1-1.24-.6.763.763,0,0,0-.8-.72h-4.4a.763.763,0,0,0-.8.72V37.24a.769.769,0,0,0,.8.76h4.4a.769.769,0,0,0,.8-.76v-9.4a.726.726,0,0,1,.24-.56l3.6-2.64a.749.749,0,0,1,.56-.2h4a.763.763,0,0,0,.8-.72v-3.4a.763.763,0,0,0-.8-.72h-4.96A.98.98,0,0,0,492.64,19.76ZM518.8,29.4c0-2.28-1.76-1.88-2.08-1.88h-6.76a.983.983,0,0,1-1.04-.84v-2.4a.983.983,0,0,1,1.04-.84h2.48a.509.509,0,0,1,.56.48c0,.24.28.44.56.44h3.72c2.2.36,1.76-1.72,1.76-1.96V21.16c0-.24.12-1.56-1.8-1.56H505.76c-3.48,0-2.84,1.84-2.84,2.08v7.76c0,2.24,1.76,1.84,2.08,1.84h7.24a.942.942,0,0,1,1,.84v1.04a.942.942,0,0,1-1,.84h-2.76a.535.535,0,0,1-.56-.48.506.506,0,0,0-.56-.44h-4.88a.506.506,0,0,0-.56.44v2.36c0,2.36,1.28,2.12,1.6,2.12h11.8c2.84,0,2.48-1.96,2.48-2.24Zm20.92-.68V23.48c0-1.92-1.52-3.88-3.4-3.88h-9.84c-1.88,0-3.4,1.96-3.4,3.88V34.52a3.441,3.441,0,0,0,3.4,3.48h11.68a1.324,1.324,0,0,0,1.28-1.32V34.56a1.334,1.334,0,0,0-1.28-1.36h-8.64a1.324,1.324,0,0,1-1.28-1.32V31.4a1.324,1.324,0,0,1,1.28-1.32h8.92A1.334,1.334,0,0,0,539.72,28.72ZM529.56,23.4h4.4a1.341,1.341,0,0,1,0,2.68h-4.4a1.341,1.341,0,0,1,0-2.68Zm30.08,6c0-2.28-1.76-1.88-2.08-1.88H550.8a.983.983,0,0,1-1.04-.84v-2.4a.983.983,0,0,1,1.04-.84h2.48a.509.509,0,0,1,.56.48c0,.24.28.44.56.44h3.72c2.2.36,1.76-1.72,1.76-1.96V21.16c0-.24.12-1.56-1.8-1.56H546.6c-3.48,0-2.84,1.84-2.84,2.08v7.76c0,2.24,1.76,1.84,2.08,1.84h7.24a.942.942,0,0,1,1,.84v1.04a.942.942,0,0,1-1,.84h-2.76a.535.535,0,0,1-.56-.48.506.506,0,0,0-.56-.44h-4.88a.506.506,0,0,0-.56.44v2.36c0,2.36,1.28,2.12,1.6,2.12h11.8c2.84,0,2.48-1.96,2.48-2.24Zm30.04-9.8H578.16a2.487,2.487,0,0,0-2.64,2.36V35.68A2.483,2.483,0,0,0,578.16,38h11.52a2.508,2.508,0,0,0,2.64-2.32V21.96A2.512,2.512,0,0,0,589.68,19.6Zm-3.04,11.04A2.512,2.512,0,0,1,584,33h-.16a2.487,2.487,0,0,1-2.64-2.36V26.96a2.483,2.483,0,0,1,2.64-2.32H584a2.508,2.508,0,0,1,2.64,2.32Zm24.12-10.76H601.2a1.641,1.641,0,0,0-.44.04,1.628,1.628,0,0,0-.96-.32h-2.28a1.6,1.6,0,0,0-1.6,1.6V36.4a1.6,1.6,0,0,0,1.6,1.6h2.28a1.6,1.6,0,0,0,1.6-1.6V24.72h4.32a1.836,1.836,0,0,1,1.72,1.92v9.44A1.8,1.8,0,0,0,609.12,38h1.64a1.8,1.8,0,0,0,1.68-1.92V21.76A1.793,1.793,0,0,0,610.76,19.88ZM645.84,10h-3.2a1.376,1.376,0,0,0-1.2,1.44v6.08a1.339,1.339,0,0,1-1.24,1.4h-4.8a1.308,1.308,0,0,1-1.2-1.4V11.44A1.378,1.378,0,0,0,632.96,10h-3.32a1.347,1.347,0,0,0-1.2,1.44V36.56a1.347,1.347,0,0,0,1.2,1.44h3.32a1.378,1.378,0,0,0,1.24-1.44V31.64a1.271,1.271,0,0,1,1.2-1.36h4.8a1.3,1.3,0,0,1,1.24,1.36v4.92a1.376,1.376,0,0,0,1.2,1.44h3.2a1.378,1.378,0,0,0,1.24-1.44V11.44A1.378,1.378,0,0,0,645.84,10Zm5.24,1.88V14.8a1.78,1.78,0,0,0,1.68,1.92h3.08a1.834,1.834,0,0,1,1.72,1.92V36.12a1.81,1.81,0,0,0,1.72,1.92h2.84a1.8,1.8,0,0,0,1.68-1.92V18.64a1.862,1.862,0,0,1,1.72-1.92h3.08a1.785,1.785,0,0,0,1.72-1.92V11.88a1.834,1.834,0,0,0-1.72-1.92H652.76A1.831,1.831,0,0,0,651.08,11.88ZM694.6,10h-3.36a1.649,1.649,0,0,0-1.6,1.08l-2.56,6.48a1.758,1.758,0,0,1-3.28-.08l-2.2-6.36A1.7,1.7,0,0,0,679.96,10h-3.88a1.7,1.7,0,0,0-1.76,1.64V36.32A1.734,1.734,0,0,0,676.08,38h3.64a1.7,1.7,0,0,0,1.4-1.68V28.4a1.666,1.666,0,0,1,1.72-1.64h4.88a1.666,1.666,0,0,1,1.72,1.64v7.92A1.725,1.725,0,0,0,691.16,38h3.44a1.7,1.7,0,0,0,1.72-1.68V11.64A1.666,1.666,0,0,0,694.6,10ZM707,31.12V11.36A1.519,1.519,0,0,0,705.4,10h-3.52a1.506,1.506,0,0,0-1.56,1.36V36.64A1.506,1.506,0,0,0,701.88,38h14.88a1.519,1.519,0,0,0,1.6-1.36V33.76a1.519,1.519,0,0,0-1.6-1.36h-8.2A1.446,1.446,0,0,1,707,31.12Zm19.92,5.6a1.98,1.98,0,0,1-2.64,1.04l-.72-.32a1.968,1.968,0,0,1-1.04-2.6l10.16-23.52a2.027,2.027,0,0,1,2.64-1.04l.72.32a2.027,2.027,0,0,1,1.04,2.64ZM750.6,32.4a2.536,2.536,0,0,1-2.48-2.56V18.2a2.536,2.536,0,0,1,2.48-2.56,2.382,2.382,0,0,1,2.32,2.56v.88a.632.632,0,0,0,.64.64h4.2a.632.632,0,0,0,.64-.64v-2.2c0-3.76-2.84-6.88-6.32-6.88h-4.52a6.614,6.614,0,0,0-6.32,6.84V31.16A6.614,6.614,0,0,0,747.56,38h4.52a6.613,6.613,0,0,0,6.32-6.84V30.04a.632.632,0,0,0-.64-.64h-4.32c-.36,0-.64.2-.64.44A2.292,2.292,0,0,1,750.6,32.4ZM764.8,10a2.555,2.555,0,0,0-2.4,2.68V25.12a2.593,2.593,0,0,0,2.4,2.72h6.92a2.172,2.172,0,1,1,0,4.32h-.08c-1.32,0-2.4-.32-2.4-.72s-1.08-.76-2.4-.76h-1.92a2.555,2.555,0,0,0-2.4,2.68v2a2.544,2.544,0,0,0,2.4,2.64h13.16a2.544,2.544,0,0,0,2.4-2.64V24.68a2.581,2.581,0,0,0-2.4-2.68h-5.96a2.524,2.524,0,0,1-2.44-2.64V18.8c0-1.52.88-2.68,1.96-2.68s1.96.24,1.96.48,1.08.48,2.4.48h2.08a2.53,2.53,0,0,0,2.4-2.68V12.68a2.555,2.555,0,0,0-2.4-2.68Zm22.08,0a2.555,2.555,0,0,0-2.4,2.68V25.12a2.593,2.593,0,0,0,2.4,2.72h6.92a2.172,2.172,0,1,1,0,4.32h-.08c-1.32,0-2.4-.32-2.4-.72s-1.08-.76-2.4-.76H787a2.555,2.555,0,0,0-2.4,2.68v2A2.544,2.544,0,0,0,787,38h13.16a2.544,2.544,0,0,0,2.4-2.64V24.68a2.581,2.581,0,0,0-2.4-2.68H794.2a2.524,2.524,0,0,1-2.44-2.64V18.8c0-1.52.88-2.68,1.96-2.68s1.96.24,1.96.48,1.08.48,2.4.48h2.08a2.53,2.53,0,0,0,2.4-2.68V12.68a2.555,2.555,0,0,0-2.4-2.68Zm33.48,9.6a1.784,1.784,0,0,0-1.8,1.76v3.32a.539.539,0,0,0,.52.56h3.2a.539.539,0,0,0,.52-.56.5.5,0,0,1,.52-.48h6.72a.509.509,0,0,1,.56.48v2.4a.567.567,0,0,1-.56.52h-9a2.234,2.234,0,0,0-2.48,2.48V36.2a1.793,1.793,0,0,0,1.8,1.8H834.4a1.793,1.793,0,0,0,1.8-1.8V21.36a1.784,1.784,0,0,0-1.8-1.76Zm9.6,14.4h-5.72a.5.5,0,0,1-.52-.52v-1a.539.539,0,0,1,.52-.56h5.72a.547.547,0,0,1,.56.56v1A.515.515,0,0,1,829.96,34Zm24.8-14.12H845.2a1.641,1.641,0,0,0-.44.04,1.628,1.628,0,0,0-.96-.32h-2.28a1.6,1.6,0,0,0-1.6,1.6V36.4a1.6,1.6,0,0,0,1.6,1.6h2.28a1.6,1.6,0,0,0,1.6-1.6V24.72h4.32a1.836,1.836,0,0,1,1.72,1.92v9.44A1.8,1.8,0,0,0,853.12,38h1.64a1.8,1.8,0,0,0,1.68-1.92V21.76A1.793,1.793,0,0,0,854.76,19.88Zm19.68-9.8c-3.36,0-3.08,1.88-3.08,4.32v7.12h-8.28a2.417,2.417,0,0,0-2.64,2.12V36a2.389,2.389,0,0,0,2.64,2.08H874.6A2.414,2.414,0,0,0,877.24,36V11.96S877.64,10.08,874.44,10.08Zm-2.88,21.36a2.443,2.443,0,0,1-2.64,2.16h-.16a2.418,2.418,0,0,1-2.64-2.16V28.16a2.417,2.417,0,0,1,2.64-2.12h.16a2.443,2.443,0,0,1,2.64,2.12ZM916.28,19.6h-3.76a1.1,1.1,0,0,0-1.2.92V32.36c0,.52-.56.92-1.24.92h-1.6c-.68,0-1.24-.4-1.24-.92V28.8a1.1,1.1,0,0,0-1.2-.96h-1.6a1.138,1.138,0,0,0-1.24.96v3.56c0,.52-.52.92-1.24.92H900.4c-.68,0-1.24-.4-1.24-.92V20.52c0-.48-.56-.92-1.24-.92h-3.44c-.68,0-1.24.44-1.24.92V37.04a1.138,1.138,0,0,0,1.24.96h7.48c.72,0,1.24-.44,1.24-.96s.56-.92,1.24-.92h1.6c.68,0,1.2.4,1.2.92a1.138,1.138,0,0,0,1.24.96h7.8a1.138,1.138,0,0,0,1.24-.96V20.52C917.52,20.04,916.96,19.6,916.28,19.6Zm19,0H923.76a2.487,2.487,0,0,0-2.64,2.36V35.68A2.483,2.483,0,0,0,923.76,38h11.52a2.508,2.508,0,0,0,2.64-2.32V21.96A2.512,2.512,0,0,0,935.28,19.6Zm-3.04,11.04A2.512,2.512,0,0,1,929.6,33h-.16a2.487,2.487,0,0,1-2.64-2.36V26.96a2.483,2.483,0,0,1,2.64-2.32h.16a2.508,2.508,0,0,1,2.64,2.32Zm17.84-10.88-1.72,1.16a.784.784,0,0,1-1.24-.6.763.763,0,0,0-.8-.72h-4.4a.763.763,0,0,0-.8.72V37.24a.769.769,0,0,0,.8.76h4.4a.769.769,0,0,0,.8-.76v-9.4a.726.726,0,0,1,.24-.56l3.6-2.64a.749.749,0,0,1,.56-.2h4a.763.763,0,0,0,.8-.72v-3.4a.763.763,0,0,0-.8-.72h-4.96A.98.98,0,0,0,950.08,19.76ZM977.52,36.8l-4.84-10.68a1.109,1.109,0,0,1,0-.72l4-9.64a.854.854,0,0,0-.72-1.16h-4.2a.785.785,0,0,0-.76.48l-2.48,5.8c-.2.52-2.08.4-2.08-.2V10.8a.8.8,0,0,0-.76-.8h-4a.769.769,0,0,0-.76.8V37.16a.769.769,0,0,0,.76.8h4a.8.8,0,0,0,.76-.8V30.88c0-.44,1.68-.6,1.92-.16l3.32,6.84a.7.7,0,0,0,.68.44l4.48-.04A.811.811,0,0,0,977.52,36.8Zm2.64-24.24v.2a1.9,1.9,0,0,0,1.84,2h2.36a1.926,1.926,0,0,0,1.84-2v-.2a1.963,1.963,0,0,0-1.84-2.04H982A1.936,1.936,0,0,0,980.16,12.56ZM982,37.96h2.36a1.937,1.937,0,0,0,1.84-2.04V21.64a1.975,1.975,0,0,0-1.84-2.08H982a1.949,1.949,0,0,0-1.84,2.08V35.92A1.912,1.912,0,0,0,982,37.96Zm23.04-18.08h-9.56a1.641,1.641,0,0,0-.44.04,1.628,1.628,0,0,0-.96-.32H991.8a1.6,1.6,0,0,0-1.6,1.6V36.4a1.6,1.6,0,0,0,1.6,1.6h2.28a1.6,1.6,0,0,0,1.6-1.6V24.72H1000a1.836,1.836,0,0,1,1.72,1.92v9.44A1.8,1.8,0,0,0,1003.4,38h1.64a1.8,1.8,0,0,0,1.68-1.92V21.76A1.793,1.793,0,0,0,1005.04,19.88Zm16.84-.44a.539.539,0,0,1-.56.52h-8.12c-2.52,0-3.08,1.76-3.08,3.92V35.04c0,3.4,2.8,2.92,3.08,2.92h6.84c2.08,0,1.92,2.04,1.92,2.32v.2c.16,2.24-1.6,2.04-1.92,2.04h-3.16a.565.565,0,0,1-.56-.48V40.76a.5.5,0,0,0-.52-.48h-4.52a.533.533,0,0,0-.56.48v2.36a4.271,4.271,0,0,0,4.52,3.96h8.44a3.946,3.946,0,0,0,3.84-3.96V19.44c0-.2-.28-.44-.56-.44h-4.52A.536.536,0,0,0,1021.88,19.44ZM1020.56,33h-3.28c-1.92.12-1.6-1.16-1.6-1.16V26.72c0-.24-.28-1.56,1.6-1.56h3.28c1.4,0,1.2,1.32,1.2,1.56v4.84C1021.76,31.84,1021.92,33,1020.56,33Zm36.72-13.4h-11.52a2.487,2.487,0,0,0-2.64,2.36V35.68a2.483,2.483,0,0,0,2.64,2.32h11.52a2.508,2.508,0,0,0,2.64-2.32V21.96A2.512,2.512,0,0,0,1057.28,19.6Zm-3.04,11.04A2.512,2.512,0,0,1,1051.6,33h-.16a2.487,2.487,0,0,1-2.64-2.36V26.96a2.483,2.483,0,0,1,2.64-2.32h.16a2.508,2.508,0,0,1,2.64,2.32Zm24.12-10.76h-9.56a1.641,1.641,0,0,0-.44.04,1.627,1.627,0,0,0-.96-.32h-2.28a1.6,1.6,0,0,0-1.6,1.6V36.4a1.6,1.6,0,0,0,1.6,1.6h2.28a1.6,1.6,0,0,0,1.6-1.6V24.72h4.32a1.836,1.836,0,0,1,1.72,1.92v9.44a1.8,1.8,0,0,0,1.68,1.92h1.64a1.8,1.8,0,0,0,1.68-1.92V21.76A1.793,1.793,0,0,0,1078.36,19.88Zm27.44-4.44h-.24a1.6,1.6,0,0,1-1.48-1.64V11.92a1.81,1.81,0,0,0-1.72-1.92h-2.16a1.836,1.836,0,0,0-1.72,1.92V13.8a1.567,1.567,0,0,1-1.48,1.64h-.24a1.885,1.885,0,0,0-1.72,2v1.6a1.81,1.81,0,0,0,1.72,1.92h.24a1.579,1.579,0,0,1,1.48,1.68v13.4A1.848,1.848,0,0,0,1100.2,38h2.16a1.822,1.822,0,0,0,1.72-1.96V22.64a1.606,1.606,0,0,1,1.48-1.68h.24a1.841,1.841,0,0,0,1.76-1.92v-1.6A1.916,1.916,0,0,0,1105.8,15.44Zm21.12,4.76h-9.12c-.72,0-1.2-.76-1.2-1.72v-6.8a1.546,1.546,0,0,0-1.4-1.68h-3.12a1.545,1.545,0,0,0-1.32,1.68V36.32a1.545,1.545,0,0,0,1.32,1.68h3.12a1.547,1.547,0,0,0,1.28-1.68v-8.4c0-.92.56-1.72,1.28-1.72h3.6c.68,0,1.28.8,1.28,1.72v8.4a1.517,1.517,0,0,0,1.28,1.68h3a1.545,1.545,0,0,0,1.32-1.68V21.92A1.56,1.56,0,0,0,1126.92,20.2Zm5.32-7.64v.2a1.9,1.9,0,0,0,1.84,2h2.36a1.926,1.926,0,0,0,1.84-2v-.2a1.963,1.963,0,0,0-1.84-2.04h-2.36A1.936,1.936,0,0,0,1132.24,12.56Zm1.84,25.4h2.36a1.937,1.937,0,0,0,1.84-2.04V21.64a1.975,1.975,0,0,0-1.84-2.08h-2.36a1.949,1.949,0,0,0-1.84,2.08V35.92A1.912,1.912,0,0,0,1134.08,37.96Zm24.12-8.56c0-2.28-1.76-1.88-2.08-1.88h-6.76a.983.983,0,0,1-1.04-.84v-2.4a.983.983,0,0,1,1.04-.84h2.48a.509.509,0,0,1,.56.48c0,.24.28.44.56.44h3.72c2.2.36,1.76-1.72,1.76-1.96V21.16c0-.24.12-1.56-1.8-1.56h-11.48c-3.48,0-2.84,1.84-2.84,2.08v7.76c0,2.24,1.76,1.84,2.08,1.84h7.24a.942.942,0,0,1,1,.84v1.04a.942.942,0,0,1-1,.84h-2.76a.535.535,0,0,1-.56-.48.506.506,0,0,0-.56-.44h-4.88a.506.506,0,0,0-.56.44v2.36c0,2.36,1.28,2.12,1.6,2.12h11.8c2.84,0,2.48-1.96,2.48-2.24ZM25.04,67.6H21.28a1.1,1.1,0,0,0-1.2.92V80.36c0,.52-.56.92-1.24.92h-1.6c-.68,0-1.24-.4-1.24-.92V76.8a1.1,1.1,0,0,0-1.2-.96H13.2a1.138,1.138,0,0,0-1.24.96v3.56c0,.52-.52.92-1.24.92H9.16c-.68,0-1.24-.4-1.24-.92V68.52c0-.48-.56-.92-1.24-.92H3.24c-.68,0-1.24.44-1.24.92V85.04A1.138,1.138,0,0,0,3.24,86h7.48c.72,0,1.24-.44,1.24-.96s.56-.92,1.24-.92h1.6c.68,0,1.2.4,1.2.92a1.138,1.138,0,0,0,1.24.96h7.8a1.138,1.138,0,0,0,1.24-.96V68.52C26.28,68.04,25.72,67.6,25.04,67.6Zm21.88,9.12V71.48c0-1.92-1.52-3.88-3.4-3.88H33.68c-1.88,0-3.4,1.96-3.4,3.88V82.52A3.441,3.441,0,0,0,33.68,86H45.36a1.324,1.324,0,0,0,1.28-1.32V82.56a1.334,1.334,0,0,0-1.28-1.36H36.72a1.324,1.324,0,0,1-1.28-1.32V79.4a1.324,1.324,0,0,1,1.28-1.32h8.92A1.334,1.334,0,0,0,46.92,76.72ZM36.76,71.4h4.4a1.341,1.341,0,0,1,0,2.68h-4.4a1.341,1.341,0,0,1,0-2.68ZM50.92,59.88V83.92A2.414,2.414,0,0,0,53.56,86H65.08a2.389,2.389,0,0,0,2.64-2.08V71.56a2.417,2.417,0,0,0-2.64-2.12H56.8V62.32c0-2.44.28-4.32-3.08-4.32C50.52,58,50.92,59.88,50.92,59.88Zm5.68,16.2a2.443,2.443,0,0,1,2.64-2.12h.16a2.417,2.417,0,0,1,2.64,2.12v3.28a2.418,2.418,0,0,1-2.64,2.16h-.16a2.443,2.443,0,0,1-2.64-2.16ZM87.64,77.4c0-2.28-1.76-1.88-2.08-1.88H78.8a.983.983,0,0,1-1.04-.84v-2.4a.983.983,0,0,1,1.04-.84h2.48a.509.509,0,0,1,.56.48c0,.24.28.44.56.44h3.72c2.2.36,1.76-1.72,1.76-1.96V69.16c0-.24.12-1.56-1.8-1.56H74.6c-3.48,0-2.84,1.84-2.84,2.08v7.76c0,2.24,1.76,1.84,2.08,1.84h7.24a.942.942,0,0,1,1,.84v1.04a.942.942,0,0,1-1,.84H78.32a.535.535,0,0,1-.56-.48.506.506,0,0,0-.56-.44H72.32a.506.506,0,0,0-.56.44v2.36c0,2.36,1.28,2.12,1.6,2.12h11.8c2.84,0,2.48-1.96,2.48-2.24Zm4.28-16.84v.2a1.9,1.9,0,0,0,1.84,2h2.36a1.926,1.926,0,0,0,1.84-2v-.2a1.963,1.963,0,0,0-1.84-2.04H93.76A1.936,1.936,0,0,0,91.92,60.56Zm1.84,25.4h2.36a1.937,1.937,0,0,0,1.84-2.04V69.64a1.975,1.975,0,0,0-1.84-2.08H93.76a1.949,1.949,0,0,0-1.84,2.08V83.92A1.912,1.912,0,0,0,93.76,85.96Zm18.96-22.52h-.24A1.6,1.6,0,0,1,111,61.8V59.92A1.81,1.81,0,0,0,109.28,58h-2.16a1.836,1.836,0,0,0-1.72,1.92V61.8a1.567,1.567,0,0,1-1.48,1.64h-.24a1.885,1.885,0,0,0-1.72,2v1.6a1.81,1.81,0,0,0,1.72,1.92h.24a1.579,1.579,0,0,1,1.48,1.68v13.4A1.848,1.848,0,0,0,107.12,86h2.16A1.822,1.822,0,0,0,111,84.04V70.64a1.606,1.606,0,0,1,1.48-1.68h.24a1.841,1.841,0,0,0,1.76-1.92v-1.6A1.916,1.916,0,0,0,112.72,63.44ZM133.2,76.72V71.48c0-1.92-1.52-3.88-3.4-3.88h-9.84c-1.88,0-3.4,1.96-3.4,3.88V82.52a3.441,3.441,0,0,0,3.4,3.48h11.68a1.324,1.324,0,0,0,1.28-1.32V82.56a1.334,1.334,0,0,0-1.28-1.36H123a1.324,1.324,0,0,1-1.28-1.32V79.4A1.324,1.324,0,0,1,123,78.08h8.92A1.334,1.334,0,0,0,133.2,76.72ZM123.04,71.4h4.4a1.341,1.341,0,0,1,0,2.68h-4.4a1.341,1.341,0,0,1,0-2.68Zm19.56,9.88v4.56a1.135,1.135,0,0,1-.28.68l-4.84,4.88a1.042,1.042,0,0,0,0,1.4,1.032,1.032,0,0,0,1.24.12l9.36-6.4a.973.973,0,0,0,.44-.8V81.28a.982.982,0,0,0-1-.96h-3.96A.973.973,0,0,0,142.6,81.28Zm26.36,4.68h-2.6a2.013,2.013,0,0,1-1.84-2.12V60.04a2.013,2.013,0,0,1,1.84-2.12h2.6a2.013,2.013,0,0,1,1.84,2.12v23.8A2.013,2.013,0,0,1,168.96,85.96Zm34-17.76h-9.12c-.72,0-1.2-.76-1.2-1.72v-6.8a1.546,1.546,0,0,0-1.4-1.68h-3.12a1.545,1.545,0,0,0-1.32,1.68V84.32A1.545,1.545,0,0,0,188.12,86h3.12a1.547,1.547,0,0,0,1.28-1.68v-8.4c0-.92.56-1.72,1.28-1.72h3.6c.68,0,1.28.8,1.28,1.72v8.4A1.517,1.517,0,0,0,199.96,86h3a1.545,1.545,0,0,0,1.32-1.68V69.92A1.56,1.56,0,0,0,202.96,68.2Zm7.12-.6a1.784,1.784,0,0,0-1.8,1.76v3.32a.539.539,0,0,0,.52.56H212a.539.539,0,0,0,.52-.56.5.5,0,0,1,.52-.48h6.72a.509.509,0,0,1,.56.48v2.4a.567.567,0,0,1-.56.52h-9a2.234,2.234,0,0,0-2.48,2.48V84.2a1.793,1.793,0,0,0,1.8,1.8h14.04a1.793,1.793,0,0,0,1.8-1.8V69.36a1.784,1.784,0,0,0-1.8-1.76Zm9.6,14.4h-5.72a.5.5,0,0,1-.52-.52v-1a.539.539,0,0,1,.52-.56h5.72a.547.547,0,0,1,.56.56v1A.515.515,0,0,1,219.68,82Zm20.28,4,6.64-16.88a1.166,1.166,0,0,0-1.16-1.52h-3.48a1.239,1.239,0,0,0-1.16.76l-2.88,7.36a1.272,1.272,0,0,1-2.32,0l-2.88-7.36a1.219,1.219,0,0,0-1.16-.76h-3.48a1.125,1.125,0,0,0-1.16,1.52L233.56,86Zm24.56-9.28V71.48c0-1.92-1.52-3.88-3.4-3.88h-9.84c-1.88,0-3.4,1.96-3.4,3.88V82.52a3.441,3.441,0,0,0,3.4,3.48h11.68a1.324,1.324,0,0,0,1.28-1.32V82.56a1.334,1.334,0,0,0-1.28-1.36h-8.64a1.324,1.324,0,0,1-1.28-1.32V79.4a1.324,1.324,0,0,1,1.28-1.32h8.92A1.334,1.334,0,0,0,264.52,76.72ZM254.36,71.4h4.4a1.341,1.341,0,0,1,0,2.68h-4.4a1.341,1.341,0,0,1,0-2.68Zm26.16-11.52V83.92A2.414,2.414,0,0,0,283.16,86h11.52a2.389,2.389,0,0,0,2.64-2.08V71.56a2.417,2.417,0,0,0-2.64-2.12H286.4V62.32c0-2.44.28-4.32-3.08-4.32C280.12,58,280.52,59.88,280.52,59.88Zm5.68,16.2a2.443,2.443,0,0,1,2.64-2.12H289a2.417,2.417,0,0,1,2.64,2.12v3.28A2.418,2.418,0,0,1,289,81.52h-.16a2.443,2.443,0,0,1-2.64-2.16Zm26.48-7V79.4a1.563,1.563,0,0,1-1.6,1.52h-2a1.6,1.6,0,0,1-1.64-1.52V69.08a1.557,1.557,0,0,0-1.6-1.48h-2.92a1.557,1.557,0,0,0-1.6,1.48v15.4a1.564,1.564,0,0,0,1.6,1.52H317.2a1.574,1.574,0,0,0,1.64-1.52V69.08a1.569,1.569,0,0,0-1.64-1.48h-2.88A1.6,1.6,0,0,0,312.68,69.08Zm10.16-8.52v.2a1.9,1.9,0,0,0,1.84,2h2.36a1.926,1.926,0,0,0,1.84-2v-.2a1.963,1.963,0,0,0-1.84-2.04h-2.36A1.936,1.936,0,0,0,322.84,60.56Zm1.84,25.4h2.36a1.937,1.937,0,0,0,1.84-2.04V69.64a1.975,1.975,0,0,0-1.84-2.08h-2.36a1.949,1.949,0,0,0-1.84,2.08V83.92A1.912,1.912,0,0,0,324.68,85.96Zm13.08.04h-3.68a1.271,1.271,0,0,1-1.2-1.36V59.4a1.308,1.308,0,0,1,1.2-1.4h3.68a1.336,1.336,0,0,1,1.2,1.4V84.64A1.3,1.3,0,0,1,337.76,86Zm15.96-22.56h-.24A1.6,1.6,0,0,1,352,61.8V59.92A1.81,1.81,0,0,0,350.28,58h-2.16a1.836,1.836,0,0,0-1.72,1.92V61.8a1.567,1.567,0,0,1-1.48,1.64h-.24a1.885,1.885,0,0,0-1.72,2v1.6a1.81,1.81,0,0,0,1.72,1.92h.24a1.579,1.579,0,0,1,1.48,1.68v13.4A1.848,1.848,0,0,0,348.12,86h2.16A1.822,1.822,0,0,0,352,84.04V70.64a1.606,1.606,0,0,1,1.48-1.68h.24a1.841,1.841,0,0,0,1.76-1.92v-1.6A1.916,1.916,0,0,0,353.72,63.44Zm19.56,4.16a1.784,1.784,0,0,0-1.8,1.76v3.32a.539.539,0,0,0,.52.56h3.2a.539.539,0,0,0,.52-.56.5.5,0,0,1,.52-.48h6.72a.509.509,0,0,1,.56.48v2.4a.567.567,0,0,1-.56.52h-9a2.234,2.234,0,0,0-2.48,2.48V84.2a1.793,1.793,0,0,0,1.8,1.8h14.04a1.793,1.793,0,0,0,1.8-1.8V69.36a1.784,1.784,0,0,0-1.8-1.76Zm9.6,14.4h-5.72a.5.5,0,0,1-.52-.52v-1a.539.539,0,0,1,.52-.56h5.72a.547.547,0,0,1,.56.56v1A.515.515,0,0,1,382.88,82Zm37.88-4.6c0-2.28-1.76-1.88-2.08-1.88h-6.76a.983.983,0,0,1-1.04-.84v-2.4a.983.983,0,0,1,1.04-.84h2.48a.509.509,0,0,1,.56.48c0,.24.28.44.56.44h3.72c2.2.36,1.76-1.72,1.76-1.96V69.16c0-.24.12-1.56-1.8-1.56H407.72c-3.48,0-2.84,1.84-2.84,2.08v7.76c0,2.24,1.76,1.84,2.08,1.84h7.24a.942.942,0,0,1,1,.84v1.04a.942.942,0,0,1-1,.84h-2.76a.535.535,0,0,1-.56-.48.506.506,0,0,0-.56-.44h-4.88a.506.506,0,0,0-.56.44v2.36c0,2.36,1.28,2.12,1.6,2.12h11.8c2.84,0,2.48-1.96,2.48-2.24ZM433.4,63.44h-.24a1.6,1.6,0,0,1-1.48-1.64V59.92A1.81,1.81,0,0,0,429.96,58H427.8a1.836,1.836,0,0,0-1.72,1.92V61.8a1.567,1.567,0,0,1-1.48,1.64h-.24a1.885,1.885,0,0,0-1.72,2v1.6a1.81,1.81,0,0,0,1.72,1.92h.24a1.579,1.579,0,0,1,1.48,1.68v13.4A1.848,1.848,0,0,0,427.8,86h2.16a1.822,1.822,0,0,0,1.72-1.96V70.64a1.606,1.606,0,0,1,1.48-1.68h.24a1.841,1.841,0,0,0,1.76-1.92v-1.6A1.916,1.916,0,0,0,433.4,63.44Zm17.12,5.64V79.4a1.563,1.563,0,0,1-1.6,1.52h-2a1.6,1.6,0,0,1-1.64-1.52V69.08a1.557,1.557,0,0,0-1.6-1.48h-2.92a1.557,1.557,0,0,0-1.6,1.48v15.4a1.564,1.564,0,0,0,1.6,1.52h14.28a1.574,1.574,0,0,0,1.64-1.52V69.08a1.569,1.569,0,0,0-1.64-1.48h-2.88A1.6,1.6,0,0,0,450.52,69.08Zm18.72-1.32-1.72,1.16a.784.784,0,0,1-1.24-.6.763.763,0,0,0-.8-.72h-4.4a.763.763,0,0,0-.8.72V85.24a.769.769,0,0,0,.8.76h4.4a.769.769,0,0,0,.8-.76v-9.4a.726.726,0,0,1,.24-.56l3.6-2.64a.749.749,0,0,1,.56-.2h4a.763.763,0,0,0,.8-.72v-3.4a.763.763,0,0,0-.8-.72h-4.96A.98.98,0,0,0,469.24,67.76Zm22.4-9.68c-3.36,0-3.08,1.88-3.08,4.32v7.12h-8.28a2.417,2.417,0,0,0-2.64,2.12V84a2.389,2.389,0,0,0,2.64,2.08H491.8A2.414,2.414,0,0,0,494.44,84V59.96S494.84,58.08,491.64,58.08Zm-2.88,21.36a2.443,2.443,0,0,1-2.64,2.16h-.16a2.418,2.418,0,0,1-2.64-2.16V76.16a2.417,2.417,0,0,1,2.64-2.12h.16a2.443,2.443,0,0,1,2.64,2.12Zm22.2-11.8-3.08,6.24a1.2,1.2,0,0,1-2.2,0L502.6,67.6a1.175,1.175,0,0,0-1.08-.72l-3.04-.04a1.282,1.282,0,0,0-1.12,1.84L503.68,82a1.277,1.277,0,0,1,.12.56V94.88a1.281,1.281,0,0,0,1.24,1.28h3.48a1.281,1.281,0,0,0,1.24-1.28V82.56a1.277,1.277,0,0,1,.12-.56l6.48-13.24a1.282,1.282,0,0,0-1.12-1.84h-3.16A1.231,1.231,0,0,0,510.96,67.64ZM547.16,58h-8.32a3.611,3.611,0,0,0-3.72,3.44v9.6a.781.781,0,0,1-.84.76h-1.92a.881.881,0,0,0-.88.84v.84a.848.848,0,0,0,.88.8h1.92a.806.806,0,0,1,.84.76v10.2a.833.833,0,0,0,.84.76h3.92a.806.806,0,0,0,.84-.76V75.04a.833.833,0,0,1,.84-.76h1.96a.838.838,0,0,0,.84-.8v-.84a.873.873,0,0,0-.84-.84h-1.96a.8.8,0,0,1-.84-.76V63.32a.8.8,0,0,1,.84-.76.817.817,0,0,1,.88.76v.6a.838.838,0,0,0,.84.8h3.88a.876.876,0,0,0,.88-.8V58.8A.848.848,0,0,0,547.16,58Zm14.64,9.6H550.28a2.487,2.487,0,0,0-2.64,2.36V83.68A2.483,2.483,0,0,0,550.28,86H561.8a2.508,2.508,0,0,0,2.64-2.32V69.96A2.512,2.512,0,0,0,561.8,67.6Zm-3.04,11.04A2.512,2.512,0,0,1,556.12,81h-.16a2.487,2.487,0,0,1-2.64-2.36V74.96a2.483,2.483,0,0,1,2.64-2.32h.16a2.508,2.508,0,0,1,2.64,2.32Zm20.64-9.56V79.4a1.563,1.563,0,0,1-1.6,1.52h-2a1.6,1.6,0,0,1-1.64-1.52V69.08a1.557,1.557,0,0,0-1.6-1.48h-2.92a1.557,1.557,0,0,0-1.6,1.48v15.4a1.563,1.563,0,0,0,1.6,1.52h14.28a1.574,1.574,0,0,0,1.64-1.52V69.08a1.569,1.569,0,0,0-1.64-1.48h-2.88A1.6,1.6,0,0,0,579.4,69.08Zm25-1.2h-9.56a1.781,1.781,0,0,1-1.4-.28h-2.28a1.6,1.6,0,0,0-1.6,1.6V84.4a1.6,1.6,0,0,0,1.6,1.6h2.28a1.6,1.6,0,0,0,1.6-1.6V72.72h4.32a1.836,1.836,0,0,1,1.72,1.92v9.44A1.8,1.8,0,0,0,602.76,86h1.64a1.8,1.8,0,0,0,1.68-1.92V69.76A1.793,1.793,0,0,0,604.4,67.88Zm19.68-9.8c-3.36,0-3.08,1.88-3.08,4.32v7.12h-8.28a2.417,2.417,0,0,0-2.64,2.12V84a2.389,2.389,0,0,0,2.64,2.08h11.52A2.414,2.414,0,0,0,626.88,84V59.96S627.28,58.08,624.08,58.08ZM621.2,79.44a2.443,2.443,0,0,1-2.64,2.16h-.16a2.418,2.418,0,0,1-2.64-2.16V76.16a2.417,2.417,0,0,1,2.64-2.12h.16a2.443,2.443,0,0,1,2.64,2.12ZM632.68,67.6a1.784,1.784,0,0,0-1.8,1.76v3.32a.539.539,0,0,0,.52.56h3.2a.539.539,0,0,0,.52-.56.5.5,0,0,1,.52-.48h6.72a.509.509,0,0,1,.56.48v2.4a.567.567,0,0,1-.56.52h-9a2.234,2.234,0,0,0-2.48,2.48V84.2a1.793,1.793,0,0,0,1.8,1.8h14.04a1.793,1.793,0,0,0,1.8-1.8V69.36a1.784,1.784,0,0,0-1.8-1.76Zm9.6,14.4h-5.72a.5.5,0,0,1-.52-.52v-1a.539.539,0,0,1,.52-.56h5.72a.547.547,0,0,1,.56.56v1A.515.515,0,0,1,642.28,82ZM661,63.44h-.24a1.6,1.6,0,0,1-1.48-1.64V59.92A1.809,1.809,0,0,0,657.56,58H655.4a1.836,1.836,0,0,0-1.72,1.92V61.8a1.567,1.567,0,0,1-1.48,1.64h-.24a1.885,1.885,0,0,0-1.72,2v1.6a1.81,1.81,0,0,0,1.72,1.92h.24a1.579,1.579,0,0,1,1.48,1.68v13.4A1.848,1.848,0,0,0,655.4,86h2.16a1.822,1.822,0,0,0,1.72-1.96V70.64a1.606,1.606,0,0,1,1.48-1.68H661a1.841,1.841,0,0,0,1.76-1.92v-1.6A1.916,1.916,0,0,0,661,63.44Zm4.24-2.88v.2a1.9,1.9,0,0,0,1.84,2h2.36a1.926,1.926,0,0,0,1.84-2v-.2a1.963,1.963,0,0,0-1.84-2.04h-2.36A1.936,1.936,0,0,0,665.24,60.56Zm1.84,25.4h2.36a1.937,1.937,0,0,0,1.84-2.04V69.64a1.975,1.975,0,0,0-1.84-2.08h-2.36a1.949,1.949,0,0,0-1.84,2.08V83.92A1.912,1.912,0,0,0,667.08,85.96ZM689.04,67.6H677.52a2.487,2.487,0,0,0-2.64,2.36V83.68A2.483,2.483,0,0,0,677.52,86h11.52a2.508,2.508,0,0,0,2.64-2.32V69.96A2.512,2.512,0,0,0,689.04,67.6ZM686,78.64A2.512,2.512,0,0,1,683.36,81h-.16a2.487,2.487,0,0,1-2.64-2.36V74.96a2.483,2.483,0,0,1,2.64-2.32h.16A2.508,2.508,0,0,1,686,74.96Zm24.12-10.76h-9.56a1.781,1.781,0,0,1-1.4-.28h-2.28a1.6,1.6,0,0,0-1.6,1.6V84.4a1.6,1.6,0,0,0,1.6,1.6h2.28a1.6,1.6,0,0,0,1.6-1.6V72.72h4.32a1.836,1.836,0,0,1,1.72,1.92v9.44A1.8,1.8,0,0,0,708.48,86h1.64a1.8,1.8,0,0,0,1.68-1.92V69.76A1.793,1.793,0,0,0,710.12,67.88ZM743.48,58h-8.32a3.611,3.611,0,0,0-3.72,3.44v9.6a.781.781,0,0,1-.84.76h-1.92a.881.881,0,0,0-.88.84v.84a.848.848,0,0,0,.88.8h1.92a.806.806,0,0,1,.84.76v10.2a.833.833,0,0,0,.84.76h3.92a.806.806,0,0,0,.84-.76V75.04a.833.833,0,0,1,.84-.76h1.96a.838.838,0,0,0,.84-.8v-.84a.873.873,0,0,0-.84-.84h-1.96a.8.8,0,0,1-.84-.76V63.32a.8.8,0,0,1,.84-.76.817.817,0,0,1,.88.76v.6a.838.838,0,0,0,.84.8h3.88a.876.876,0,0,0,.88-.8V58.8A.848.848,0,0,0,743.48,58Zm14.64,9.6H746.6a2.487,2.487,0,0,0-2.64,2.36V83.68A2.483,2.483,0,0,0,746.6,86h11.52a2.508,2.508,0,0,0,2.64-2.32V69.96A2.512,2.512,0,0,0,758.12,67.6Zm-3.04,11.04A2.512,2.512,0,0,1,752.44,81h-.16a2.487,2.487,0,0,1-2.64-2.36V74.96a2.483,2.483,0,0,1,2.64-2.32h.16a2.508,2.508,0,0,1,2.64,2.32Zm17.84-10.88-1.72,1.16a.784.784,0,0,1-1.24-.6.763.763,0,0,0-.8-.72h-4.4a.763.763,0,0,0-.8.72V85.24a.769.769,0,0,0,.8.76h4.4a.769.769,0,0,0,.8-.76v-9.4a.726.726,0,0,1,.24-.56l3.6-2.64a.749.749,0,0,1,.56-.2h4a.763.763,0,0,0,.8-.72v-3.4a.763.763,0,0,0-.8-.72H773.4A.98.98,0,0,0,772.92,67.76Zm32-4.32h-.24a1.6,1.6,0,0,1-1.48-1.64V59.92A1.809,1.809,0,0,0,801.48,58h-2.16a1.836,1.836,0,0,0-1.72,1.92V61.8a1.567,1.567,0,0,1-1.48,1.64h-.24a1.885,1.885,0,0,0-1.72,2v1.6a1.81,1.81,0,0,0,1.72,1.92h.24a1.579,1.579,0,0,1,1.48,1.68v13.4A1.848,1.848,0,0,0,799.32,86h2.16a1.822,1.822,0,0,0,1.72-1.96V70.64a1.606,1.606,0,0,1,1.48-1.68h.24a1.841,1.841,0,0,0,1.76-1.92v-1.6A1.916,1.916,0,0,0,804.92,63.44Zm21.12,4.76h-9.12c-.72,0-1.2-.76-1.2-1.72v-6.8a1.546,1.546,0,0,0-1.4-1.68H811.2a1.545,1.545,0,0,0-1.32,1.68V84.32A1.545,1.545,0,0,0,811.2,86h3.12a1.547,1.547,0,0,0,1.28-1.68v-8.4c0-.92.56-1.72,1.28-1.72h3.6c.68,0,1.28.8,1.28,1.72v8.4A1.517,1.517,0,0,0,823.04,86h3a1.545,1.545,0,0,0,1.32-1.68V69.92A1.56,1.56,0,0,0,826.04,68.2ZM848,76.72V71.48c0-1.92-1.52-3.88-3.4-3.88h-9.84c-1.88,0-3.4,1.96-3.4,3.88V82.52a3.441,3.441,0,0,0,3.4,3.48h11.68a1.324,1.324,0,0,0,1.28-1.32V82.56a1.334,1.334,0,0,0-1.28-1.36H837.8a1.324,1.324,0,0,1-1.28-1.32V79.4a1.324,1.324,0,0,1,1.28-1.32h8.92A1.334,1.334,0,0,0,848,76.72ZM837.84,71.4h4.4a1.341,1.341,0,0,1,0,2.68h-4.4a1.341,1.341,0,0,1,0-2.68ZM868.88,86H865.2a1.271,1.271,0,0,1-1.2-1.36V59.4a1.308,1.308,0,0,1,1.2-1.4h3.68a1.336,1.336,0,0,1,1.2,1.4V84.64A1.3,1.3,0,0,1,868.88,86Zm7-18.4a1.784,1.784,0,0,0-1.8,1.76v3.32a.539.539,0,0,0,.52.56h3.2a.539.539,0,0,0,.52-.56.5.5,0,0,1,.52-.48h6.72a.509.509,0,0,1,.56.48v2.4a.567.567,0,0,1-.56.52h-9a2.234,2.234,0,0,0-2.48,2.48V84.2a1.793,1.793,0,0,0,1.8,1.8h14.04a1.793,1.793,0,0,0,1.8-1.8V69.36a1.784,1.784,0,0,0-1.8-1.76Zm9.6,14.4h-5.72a.5.5,0,0,1-.52-.52v-1a.539.539,0,0,1,.52-.56h5.72a.547.547,0,0,1,.56.56v1A.515.515,0,0,1,885.48,82Zm24.8-14.12h-9.56a1.781,1.781,0,0,1-1.4-.28h-2.28a1.6,1.6,0,0,0-1.6,1.6V84.4a1.6,1.6,0,0,0,1.6,1.6h2.28a1.6,1.6,0,0,0,1.6-1.6V72.72h4.32a1.836,1.836,0,0,1,1.72,1.92v9.44A1.8,1.8,0,0,0,908.64,86h1.64a1.8,1.8,0,0,0,1.68-1.92V69.76A1.793,1.793,0,0,0,910.28,67.88Zm16.84-.44a.539.539,0,0,1-.56.52h-8.12c-2.52,0-3.08,1.76-3.08,3.92V83.04c0,3.4,2.8,2.92,3.08,2.92h6.84c2.08,0,1.92,2.04,1.92,2.32v.2c.16,2.24-1.6,2.04-1.92,2.04h-3.16a.565.565,0,0,1-.56-.48V88.76a.5.5,0,0,0-.52-.48h-4.52a.533.533,0,0,0-.56.48v2.36a4.271,4.271,0,0,0,4.52,3.96h8.44a3.946,3.946,0,0,0,3.84-3.96V67.44c0-.2-.28-.44-.56-.44h-4.52A.536.536,0,0,0,927.12,67.44ZM925.8,81h-3.28c-1.92.12-1.6-1.16-1.6-1.16V74.72c0-.24-.28-1.56,1.6-1.56h3.28c1.4,0,1.2,1.32,1.2,1.56v4.84C927,79.84,927.16,81,925.8,81Zm22.32-11.92V79.4a1.563,1.563,0,0,1-1.6,1.52h-2a1.6,1.6,0,0,1-1.64-1.52V69.08a1.557,1.557,0,0,0-1.6-1.48h-2.92a1.557,1.557,0,0,0-1.6,1.48v15.4a1.563,1.563,0,0,0,1.6,1.52h14.28a1.574,1.574,0,0,0,1.64-1.52V69.08a1.569,1.569,0,0,0-1.64-1.48h-2.88A1.6,1.6,0,0,0,948.12,69.08Zm11.96-1.48a1.784,1.784,0,0,0-1.8,1.76v3.32a.539.539,0,0,0,.52.56H962a.539.539,0,0,0,.52-.56.5.5,0,0,1,.52-.48h6.72a.509.509,0,0,1,.56.48v2.4a.567.567,0,0,1-.56.52h-9a2.234,2.234,0,0,0-2.48,2.48V84.2a1.793,1.793,0,0,0,1.8,1.8h14.04a1.793,1.793,0,0,0,1.8-1.8V69.36a1.784,1.784,0,0,0-1.8-1.76Zm9.6,14.4h-5.72a.5.5,0,0,1-.52-.52v-1a.539.539,0,0,1,.52-.56h5.72a.547.547,0,0,1,.56.56v1A.515.515,0,0,1,969.68,82ZM990.8,67.44a.539.539,0,0,1-.56.52h-8.12c-2.52,0-3.08,1.76-3.08,3.92V83.04c0,3.4,2.8,2.92,3.08,2.92h6.84c2.08,0,1.92,2.04,1.92,2.32v.2c.16,2.24-1.6,2.04-1.92,2.04H985.8a.565.565,0,0,1-.56-.48V88.76a.5.5,0,0,0-.52-.48H980.2a.533.533,0,0,0-.56.48v2.36a4.271,4.271,0,0,0,4.52,3.96h8.44a3.946,3.946,0,0,0,3.84-3.96V67.44c0-.2-.28-.44-.56-.44h-4.52A.536.536,0,0,0,990.8,67.44ZM989.48,81H986.2c-1.92.12-1.6-1.16-1.6-1.16V74.72c0-.24-.28-1.56,1.6-1.56h3.28c1.4,0,1.2,1.32,1.2,1.56v4.84C990.68,79.84,990.84,81,989.48,81Zm27.6-4.28V71.48c0-1.92-1.52-3.88-3.4-3.88h-9.84c-1.88,0-3.4,1.96-3.4,3.88V82.52a3.441,3.441,0,0,0,3.4,3.48h11.68a1.324,1.324,0,0,0,1.28-1.32V82.56a1.334,1.334,0,0,0-1.28-1.36h-8.64a1.324,1.324,0,0,1-1.28-1.32V79.4a1.324,1.324,0,0,1,1.28-1.32h8.92A1.334,1.334,0,0,0,1017.08,76.72Zm-10.16-5.32h4.4a1.341,1.341,0,0,1,0,2.68h-4.4a1.341,1.341,0,0,1,0-2.68Zm18.84,14.48h-2.96a1.707,1.707,0,0,1-1.72-1.72v-3a1.7,1.7,0,0,1,1.72-1.68h2.96a1.7,1.7,0,0,1,1.72,1.68v3A1.707,1.707,0,0,1,1025.76,85.88Zm22.16.08h-2.6a2.013,2.013,0,0,1-1.84-2.12V60.04a2.013,2.013,0,0,1,1.84-2.12h2.6a2.013,2.013,0,0,1,1.84,2.12v23.8A2.013,2.013,0,0,1,1047.92,85.96ZM1088.8,67.6h-3.76a1.1,1.1,0,0,0-1.2.92V80.36c0,.52-.56.92-1.24.92H1081c-.68,0-1.24-.4-1.24-.92V76.8a1.1,1.1,0,0,0-1.2-.96h-1.6a1.138,1.138,0,0,0-1.24.96v3.56c0,.52-.52.92-1.24.92h-1.56c-.68,0-1.24-.4-1.24-.92V68.52c0-.48-.56-.92-1.24-.92H1067c-.68,0-1.24.44-1.24.92V85.04A1.138,1.138,0,0,0,1067,86h7.48c.72,0,1.24-.44,1.24-.96s.56-.92,1.24-.92h1.6c.68,0,1.2.4,1.2.92A1.138,1.138,0,0,0,1081,86h7.8a1.138,1.138,0,0,0,1.24-.96V68.52C1090.04,68.04,1089.48,67.6,1088.8,67.6Zm5.24-7.04v.2a1.9,1.9,0,0,0,1.84,2h2.36a1.926,1.926,0,0,0,1.84-2v-.2a1.963,1.963,0,0,0-1.84-2.04h-2.36A1.936,1.936,0,0,0,1094.04,60.56Zm1.84,25.4h2.36a1.937,1.937,0,0,0,1.84-2.04V69.64a1.975,1.975,0,0,0-1.84-2.08h-2.36a1.949,1.949,0,0,0-1.84,2.08V83.92A1.912,1.912,0,0,0,1095.88,85.96Zm13.08.04h-3.68a1.271,1.271,0,0,1-1.2-1.36V59.4a1.308,1.308,0,0,1,1.2-1.4h3.68a1.336,1.336,0,0,1,1.2,1.4V84.64A1.3,1.3,0,0,1,1108.96,86Zm10.08,0h-3.68a1.271,1.271,0,0,1-1.2-1.36V59.4a1.308,1.308,0,0,1,1.2-1.4h3.68a1.336,1.336,0,0,1,1.2,1.4V84.64A1.3,1.3,0,0,1,1119.04,86Zm17.2-26.12V83.92a2.414,2.414,0,0,0,2.64,2.08h11.52a2.389,2.389,0,0,0,2.64-2.08V71.56a2.417,2.417,0,0,0-2.64-2.12h-8.28V62.32c0-2.44.28-4.32-3.08-4.32C1135.84,58,1136.24,59.88,1136.24,59.88Zm5.68,16.2a2.443,2.443,0,0,1,2.64-2.12h.16a2.417,2.417,0,0,1,2.64,2.12v3.28a2.418,2.418,0,0,1-2.64,2.16h-.16a2.443,2.443,0,0,1-2.64-2.16Zm31.76.64V71.48c0-1.92-1.52-3.88-3.4-3.88h-9.84c-1.88,0-3.4,1.96-3.4,3.88V82.52a3.441,3.441,0,0,0,3.4,3.48h11.68a1.324,1.324,0,0,0,1.28-1.32V82.56a1.334,1.334,0,0,0-1.28-1.36h-8.64a1.324,1.324,0,0,1-1.28-1.32V79.4a1.324,1.324,0,0,1,1.28-1.32h8.92A1.334,1.334,0,0,0,1173.68,76.72Zm-10.16-5.32h4.4a1.341,1.341,0,0,1,0,2.68h-4.4a1.341,1.341,0,0,1,0-2.68Zm25.32-3.96a.539.539,0,0,1-.56.52h-8.12c-2.52,0-3.08,1.76-3.08,3.92V83.04c0,3.4,2.8,2.92,3.08,2.92H1187c2.08,0,1.92,2.04,1.92,2.32v.2c.16,2.24-1.6,2.04-1.92,2.04h-3.16a.565.565,0,0,1-.56-.48V88.76a.5.5,0,0,0-.52-.48h-4.52a.533.533,0,0,0-.56.48v2.36a4.271,4.271,0,0,0,4.52,3.96h8.44a3.946,3.946,0,0,0,3.84-3.96V67.44c0-.2-.28-.44-.56-.44h-4.52A.536.536,0,0,0,1188.84,67.44ZM1187.52,81h-3.28c-1.92.12-1.6-1.16-1.6-1.16V74.72c0-.24-.28-1.56,1.6-1.56h3.28c1.4,0,1.2,1.32,1.2,1.56v4.84C1188.72,79.84,1188.88,81,1187.52,81Zm10.96-20.44v.2a1.9,1.9,0,0,0,1.84,2h2.36a1.926,1.926,0,0,0,1.84-2v-.2a1.963,1.963,0,0,0-1.84-2.04h-2.36A1.936,1.936,0,0,0,1198.48,60.56Zm1.84,25.4h2.36a1.937,1.937,0,0,0,1.84-2.04V69.64a1.975,1.975,0,0,0-1.84-2.08h-2.36a1.949,1.949,0,0,0-1.84,2.08V83.92A1.912,1.912,0,0,0,1200.32,85.96Zm23.04-18.08h-9.56a1.781,1.781,0,0,1-1.4-.28h-2.28a1.6,1.6,0,0,0-1.6,1.6V84.4a1.6,1.6,0,0,0,1.6,1.6h2.28a1.6,1.6,0,0,0,1.6-1.6V72.72h4.32a1.836,1.836,0,0,1,1.72,1.92v9.44a1.8,1.8,0,0,0,1.68,1.92h1.64a1.8,1.8,0,0,0,1.68-1.92V69.76A1.793,1.793,0,0,0,1223.36,67.88ZM25.04,115.6H21.28a1.1,1.1,0,0,0-1.2.92v11.84c0,.52-.56.92-1.24.92h-1.6c-.68,0-1.24-.4-1.24-.92V124.8a1.1,1.1,0,0,0-1.2-.96H13.2a1.138,1.138,0,0,0-1.24.96v3.56c0,.52-.52.92-1.24.92H9.16c-.68,0-1.24-.4-1.24-.92V116.52c0-.48-.56-.92-1.24-.92H3.24c-.68,0-1.24.44-1.24.92v16.52a1.138,1.138,0,0,0,1.24.96h7.48c.72,0,1.24-.44,1.24-.96s.56-.92,1.24-.92h1.6c.68,0,1.2.4,1.2.92a1.138,1.138,0,0,0,1.24.96h7.8a1.138,1.138,0,0,0,1.24-.96V116.52C26.28,116.04,25.72,115.6,25.04,115.6Zm19,0H32.52a2.487,2.487,0,0,0-2.64,2.36v13.72A2.483,2.483,0,0,0,32.52,134H44.04a2.508,2.508,0,0,0,2.64-2.32V117.96A2.512,2.512,0,0,0,44.04,115.6ZM41,126.64A2.512,2.512,0,0,1,38.36,129H38.2a2.487,2.487,0,0,1-2.64-2.36v-3.68a2.483,2.483,0,0,1,2.64-2.32h.16A2.508,2.508,0,0,1,41,122.96Zm17.84-10.88-1.72,1.16a.784.784,0,0,1-1.24-.6.763.763,0,0,0-.8-.72h-4.4a.763.763,0,0,0-.8.72v16.92a.769.769,0,0,0,.8.76h4.4a.769.769,0,0,0,.8-.76v-9.4a.726.726,0,0,1,.24-.56l3.6-2.64a.749.749,0,0,1,.56-.2h4a.763.763,0,0,0,.8-.72v-3.4a.763.763,0,0,0-.8-.72H59.32A.98.98,0,0,0,58.84,115.76ZM86.28,132.8l-4.84-10.68a1.108,1.108,0,0,1,0-.72l4-9.64a.854.854,0,0,0-.72-1.16h-4.2a.784.784,0,0,0-.76.48l-2.48,5.8c-.2.52-2.08.4-2.08-.2V106.8a.8.8,0,0,0-.76-.8h-4a.769.769,0,0,0-.76.8v26.36a.769.769,0,0,0,.76.8h4a.8.8,0,0,0,.76-.8v-6.28c0-.44,1.68-.6,1.92-.16l3.32,6.84a.7.7,0,0,0,.68.44l4.48-.04A.811.811,0,0,0,86.28,132.8Zm2.64-24.24v.2a1.9,1.9,0,0,0,1.84,2h2.36a1.926,1.926,0,0,0,1.84-2v-.2a1.963,1.963,0,0,0-1.84-2.04H90.76A1.936,1.936,0,0,0,88.92,108.56Zm1.84,25.4h2.36a1.937,1.937,0,0,0,1.84-2.04V117.64a1.975,1.975,0,0,0-1.84-2.08H90.76a1.949,1.949,0,0,0-1.84,2.08v14.28A1.912,1.912,0,0,0,90.76,133.96Zm23.04-18.08h-9.56a1.641,1.641,0,0,0-.44.04,1.628,1.628,0,0,0-.96-.32h-2.28a1.6,1.6,0,0,0-1.6,1.6v15.2a1.6,1.6,0,0,0,1.6,1.6h2.28a1.6,1.6,0,0,0,1.6-1.6V120.72h4.32a1.836,1.836,0,0,1,1.72,1.92v9.44a1.8,1.8,0,0,0,1.68,1.92h1.64a1.8,1.8,0,0,0,1.68-1.92V117.76A1.793,1.793,0,0,0,113.8,115.88Zm16.84-.44a.539.539,0,0,1-.56.52h-8.12c-2.52,0-3.08,1.76-3.08,3.92v11.16c0,3.4,2.8,2.92,3.08,2.92h6.84c2.08,0,1.92,2.04,1.92,2.32v.2c.16,2.24-1.6,2.04-1.92,2.04h-3.16a.565.565,0,0,1-.56-.48v-1.28a.5.5,0,0,0-.52-.48h-4.52a.533.533,0,0,0-.56.48v2.36a4.271,4.271,0,0,0,4.52,3.96h8.44a3.946,3.946,0,0,0,3.84-3.96V115.44c0-.2-.28-.44-.56-.44H131.2A.536.536,0,0,0,130.64,115.44ZM129.32,129h-3.28c-1.92.12-1.6-1.16-1.6-1.16v-5.12c0-.24-.28-1.56,1.6-1.56h3.28c1.4,0,1.2,1.32,1.2,1.56v4.84C130.52,127.84,130.68,129,129.32,129Zm46-13.4h-3.76a1.1,1.1,0,0,0-1.2.92v11.84c0,.52-.56.92-1.24.92h-1.6c-.68,0-1.24-.4-1.24-.92V124.8a1.1,1.1,0,0,0-1.2-.96h-1.6a1.138,1.138,0,0,0-1.24.96v3.56c0,.52-.52.92-1.24.92h-1.56c-.68,0-1.24-.4-1.24-.92V116.52c0-.48-.56-.92-1.24-.92h-3.44c-.68,0-1.24.44-1.24.92v16.52a1.138,1.138,0,0,0,1.24.96H161c.72,0,1.24-.44,1.24-.96s.56-.92,1.24-.92h1.6c.68,0,1.2.4,1.2.92a1.138,1.138,0,0,0,1.24.96h7.8a1.138,1.138,0,0,0,1.24-.96V116.52C176.56,116.04,176,115.6,175.32,115.6Zm5.24-7.04v.2a1.9,1.9,0,0,0,1.84,2h2.36a1.926,1.926,0,0,0,1.84-2v-.2a1.963,1.963,0,0,0-1.84-2.04H182.4A1.936,1.936,0,0,0,180.56,108.56Zm1.84,25.4h2.36a1.937,1.937,0,0,0,1.84-2.04V117.64a1.975,1.975,0,0,0-1.84-2.08H182.4a1.949,1.949,0,0,0-1.84,2.08v14.28A1.912,1.912,0,0,0,182.4,133.96Zm18.96-22.52h-.24a1.6,1.6,0,0,1-1.48-1.64v-1.88a1.81,1.81,0,0,0-1.72-1.92h-2.16a1.836,1.836,0,0,0-1.72,1.92v1.88a1.567,1.567,0,0,1-1.48,1.64h-.24a1.885,1.885,0,0,0-1.72,2v1.6a1.81,1.81,0,0,0,1.72,1.92h.24a1.579,1.579,0,0,1,1.48,1.68v13.4a1.848,1.848,0,0,0,1.72,1.96h2.16a1.822,1.822,0,0,0,1.72-1.96v-13.4a1.606,1.606,0,0,1,1.48-1.68h.24a1.841,1.841,0,0,0,1.76-1.92v-1.6A1.916,1.916,0,0,0,201.36,111.44Zm21.12,4.76h-9.12c-.72,0-1.2-.76-1.2-1.72v-6.8a1.546,1.546,0,0,0-1.4-1.68h-3.12a1.545,1.545,0,0,0-1.32,1.68v24.64a1.545,1.545,0,0,0,1.32,1.68h3.12a1.547,1.547,0,0,0,1.28-1.68v-8.4c0-.92.56-1.72,1.28-1.72h3.6c.68,0,1.28.8,1.28,1.72v8.4a1.517,1.517,0,0,0,1.28,1.68h3a1.545,1.545,0,0,0,1.32-1.68v-14.4A1.56,1.56,0,0,0,222.48,116.2Zm25.04,4.56h6a1.926,1.926,0,0,0,1.84-2V117.6a1.952,1.952,0,0,0-1.84-2h-9.8a4.154,4.154,0,0,0-3.92,4.32v9.8a4.154,4.154,0,0,0,3.92,4.32h9.8a1.952,1.952,0,0,0,1.84-2v-1.16a1.926,1.926,0,0,0-1.84-2h-6a1.926,1.926,0,0,1-1.84-2V122.8A1.963,1.963,0,0,1,247.52,120.76Zm27.76,4.64c0-2.28-1.76-1.88-2.08-1.88h-6.76a.983.983,0,0,1-1.04-.84v-2.4a.983.983,0,0,1,1.04-.84h2.48a.509.509,0,0,1,.56.48c0,.24.28.44.56.44h3.72c2.2.36,1.76-1.72,1.76-1.96v-1.24c0-.24.12-1.56-1.8-1.56H262.24c-3.48,0-2.84,1.84-2.84,2.08v7.76c0,2.24,1.76,1.84,2.08,1.84h7.24a.942.942,0,0,1,1,.84v1.04a.942.942,0,0,1-1,.84h-2.76a.535.535,0,0,1-.56-.48.506.506,0,0,0-.56-.44h-4.88a.506.506,0,0,0-.56.44v2.36c0,2.36,1.28,2.12,1.6,2.12h11.8c2.84,0,2.48-1.96,2.48-2.24Zm20.2,0c0-2.28-1.76-1.88-2.08-1.88h-6.76a.983.983,0,0,1-1.04-.84v-2.4a.983.983,0,0,1,1.04-.84h2.48a.509.509,0,0,1,.56.48c0,.24.28.44.56.44h3.72c2.2.36,1.76-1.72,1.76-1.96v-1.24c0-.24.12-1.56-1.8-1.56H282.44c-3.48,0-2.84,1.84-2.84,2.08v7.76c0,2.24,1.76,1.84,2.08,1.84h7.24a.942.942,0,0,1,1,.84v1.04a.942.942,0,0,1-1,.84h-2.76a.535.535,0,0,1-.56-.48.506.506,0,0,0-.56-.44h-4.88a.506.506,0,0,0-.56.44v2.36c0,2.36,1.28,2.12,1.6,2.12H293c2.84,0,2.48-1.96,2.48-2.24ZM327.44,106h-8.32a3.611,3.611,0,0,0-3.72,3.44v9.6a.781.781,0,0,1-.84.76h-1.92a.881.881,0,0,0-.88.84v.84a.848.848,0,0,0,.88.8h1.92a.806.806,0,0,1,.84.76v10.2a.833.833,0,0,0,.84.76h3.92a.806.806,0,0,0,.84-.76v-10.2a.833.833,0,0,1,.84-.76h1.96a.838.838,0,0,0,.84-.8v-.84a.873.873,0,0,0-.84-.84h-1.96a.8.8,0,0,1-.84-.76v-7.72a.8.8,0,0,1,.84-.76.817.817,0,0,1,.88.76v.6a.838.838,0,0,0,.84.8h3.88a.876.876,0,0,0,.88-.8V106.8A.848.848,0,0,0,327.44,106Zm11.04,9.76-1.72,1.16a.784.784,0,0,1-1.24-.6.763.763,0,0,0-.8-.72h-4.4a.763.763,0,0,0-.8.72v16.92a.769.769,0,0,0,.8.76h4.4a.769.769,0,0,0,.8-.76v-9.4a.726.726,0,0,1,.24-.56l3.6-2.64a.749.749,0,0,1,.56-.2h4a.763.763,0,0,0,.8-.72v-3.4a.763.763,0,0,0-.8-.72h-4.96A.98.98,0,0,0,338.48,115.76Zm10.28-.16a1.784,1.784,0,0,0-1.8,1.76v3.32a.539.539,0,0,0,.52.56h3.2a.539.539,0,0,0,.52-.56.5.5,0,0,1,.52-.48h6.72a.509.509,0,0,1,.56.48v2.4a.567.567,0,0,1-.56.52h-9a2.234,2.234,0,0,0-2.48,2.48v6.12a1.793,1.793,0,0,0,1.8,1.8H362.8a1.793,1.793,0,0,0,1.8-1.8V117.36a1.784,1.784,0,0,0-1.8-1.76Zm9.6,14.4h-5.72a.5.5,0,0,1-.52-.52v-1a.539.539,0,0,1,.52-.56h5.72a.547.547,0,0,1,.56.56v1A.515.515,0,0,1,358.36,130ZM390,115.88h-6.48a2.2,2.2,0,0,0-1.48.56,1.64,1.64,0,0,0-1.24-.56h-7.16a1.641,1.641,0,0,0-.44.04,1.54,1.54,0,0,0-.96-.32h-2.28a1.571,1.571,0,0,0-1.56,1.6v15.2a1.571,1.571,0,0,0,1.56,1.6h2.28a1.6,1.6,0,0,0,1.6-1.6V120.72h1.92a1.81,1.81,0,0,1,1.72,1.92v9.44A1.81,1.81,0,0,0,379.2,134h1.6a1.836,1.836,0,0,0,1.72-1.92V120.72h2.44a1.809,1.809,0,0,1,1.72,1.92v9.44A1.81,1.81,0,0,0,388.4,134H390a1.836,1.836,0,0,0,1.72-1.92V117.76A1.824,1.824,0,0,0,390,115.88Zm22.36,8.84v-5.24c0-1.92-1.52-3.88-3.4-3.88h-9.84c-1.88,0-3.4,1.96-3.4,3.88v11.04a3.44,3.44,0,0,0,3.4,3.48H410.8a1.324,1.324,0,0,0,1.28-1.32v-2.12a1.334,1.334,0,0,0-1.28-1.36h-8.64a1.324,1.324,0,0,1-1.28-1.32v-.48a1.324,1.324,0,0,1,1.28-1.32h8.92A1.334,1.334,0,0,0,412.36,124.72ZM402.2,119.4h4.4a1.341,1.341,0,0,1,0,2.68h-4.4a1.341,1.341,0,0,1,0-2.68Zm37.2-3.8h-3.76a1.1,1.1,0,0,0-1.2.92v11.84c0,.52-.56.92-1.24.92h-1.6c-.68,0-1.24-.4-1.24-.92V124.8a1.1,1.1,0,0,0-1.2-.96h-1.6a1.138,1.138,0,0,0-1.24.96v3.56c0,.52-.52.92-1.24.92h-1.56c-.68,0-1.24-.4-1.24-.92V116.52c0-.48-.56-.92-1.24-.92H417.6c-.68,0-1.24.44-1.24.92v16.52a1.138,1.138,0,0,0,1.24.96h7.48c.72,0,1.24-.44,1.24-.96s.56-.92,1.24-.92h1.6c.68,0,1.2.4,1.2.92a1.138,1.138,0,0,0,1.24.96h7.8a1.138,1.138,0,0,0,1.24-.96V116.52C440.64,116.04,440.08,115.6,439.4,115.6Zm19,0H446.88a2.487,2.487,0,0,0-2.64,2.36v13.72a2.483,2.483,0,0,0,2.64,2.32H458.4a2.508,2.508,0,0,0,2.64-2.32V117.96A2.512,2.512,0,0,0,458.4,115.6Zm-3.04,11.04a2.512,2.512,0,0,1-2.64,2.36h-.16a2.487,2.487,0,0,1-2.64-2.36v-3.68a2.483,2.483,0,0,1,2.64-2.32h.16a2.508,2.508,0,0,1,2.64,2.32Zm17.84-10.88-1.72,1.16a.784.784,0,0,1-1.24-.6.763.763,0,0,0-.8-.72h-4.4a.763.763,0,0,0-.8.72v16.92a.769.769,0,0,0,.8.76h4.4a.769.769,0,0,0,.8-.76v-9.4a.726.726,0,0,1,.24-.56l3.6-2.64a.749.749,0,0,1,.56-.2h4a.763.763,0,0,0,.8-.72v-3.4a.763.763,0,0,0-.8-.72h-4.96A.98.98,0,0,0,473.2,115.76Zm27.44,17.04-4.84-10.68a1.108,1.108,0,0,1,0-.72l4-9.64a.854.854,0,0,0-.72-1.16h-4.2a.784.784,0,0,0-.76.48l-2.48,5.8c-.2.52-2.08.4-2.08-.2V106.8a.8.8,0,0,0-.76-.8h-4a.769.769,0,0,0-.76.8v26.36a.769.769,0,0,0,.76.8h4a.8.8,0,0,0,.76-.8v-6.28c0-.44,1.68-.6,1.92-.16l3.32,6.84a.7.7,0,0,0,.68.44l4.48-.04A.811.811,0,0,0,500.64,132.8Zm18.56-7.4c0-2.28-1.76-1.88-2.08-1.88h-6.76a.983.983,0,0,1-1.04-.84v-2.4a.983.983,0,0,1,1.04-.84h2.48a.509.509,0,0,1,.56.48c0,.24.28.44.56.44h3.72c2.2.36,1.76-1.72,1.76-1.96v-1.24c0-.24.12-1.56-1.8-1.56H506.16c-3.48,0-2.84,1.84-2.84,2.08v7.76c0,2.24,1.76,1.84,2.08,1.84h7.24a.942.942,0,0,1,1,.84v1.04a.942.942,0,0,1-1,.84h-2.76a.535.535,0,0,1-.56-.48.506.506,0,0,0-.56-.44h-4.88a.506.506,0,0,0-.56.44v2.36c0,2.36,1.28,2.12,1.6,2.12h11.8c2.84,0,2.48-1.96,2.48-2.24Zm32.2,0c0-2.28-1.76-1.88-2.08-1.88h-6.76a.983.983,0,0,1-1.04-.84v-2.4a.983.983,0,0,1,1.04-.84h2.48a.509.509,0,0,1,.56.48c0,.24.28.44.56.44h3.72c2.2.36,1.76-1.72,1.76-1.96v-1.24c0-.24.12-1.56-1.8-1.56H538.36c-3.48,0-2.84,1.84-2.84,2.08v7.76c0,2.24,1.76,1.84,2.08,1.84h7.24a.942.942,0,0,1,1,.84v1.04a.942.942,0,0,1-1,.84h-2.76a.535.535,0,0,1-.56-.48.506.506,0,0,0-.56-.44h-4.88a.506.506,0,0,0-.56.44v2.36c0,2.36,1.28,2.12,1.6,2.12h11.8c2.84,0,2.48-1.96,2.48-2.24Zm15.64-8.32V127.4a1.563,1.563,0,0,1-1.6,1.52h-2a1.6,1.6,0,0,1-1.64-1.52V117.08a1.557,1.557,0,0,0-1.6-1.48h-2.92a1.557,1.557,0,0,0-1.6,1.48v15.4a1.563,1.563,0,0,0,1.6,1.52h14.28a1.574,1.574,0,0,0,1.64-1.52v-15.4a1.569,1.569,0,0,0-1.64-1.48h-2.88A1.6,1.6,0,0,0,567.04,117.08Zm17.88,3.68h6a1.926,1.926,0,0,0,1.84-2V117.6a1.952,1.952,0,0,0-1.84-2h-9.8a4.154,4.154,0,0,0-3.92,4.32v9.8a4.154,4.154,0,0,0,3.92,4.32h9.8a1.952,1.952,0,0,0,1.84-2v-1.16a1.926,1.926,0,0,0-1.84-2h-6a1.926,1.926,0,0,1-1.84-2V122.8A1.963,1.963,0,0,1,584.92,120.76Zm28-4.56H603.8c-.72,0-1.2-.76-1.2-1.72v-6.8a1.546,1.546,0,0,0-1.4-1.68h-3.12a1.545,1.545,0,0,0-1.32,1.68v24.64a1.545,1.545,0,0,0,1.32,1.68h3.12a1.547,1.547,0,0,0,1.28-1.68v-8.4c0-.92.56-1.72,1.28-1.72h3.6c.68,0,1.28.8,1.28,1.72v8.4a1.517,1.517,0,0,0,1.28,1.68h3a1.545,1.545,0,0,0,1.32-1.68v-14.4A1.56,1.56,0,0,0,612.92,116.2Zm19.12-.6a1.784,1.784,0,0,0-1.8,1.76v3.32a.539.539,0,0,0,.52.56h3.2a.539.539,0,0,0,.52-.56.5.5,0,0,1,.52-.48h6.72a.509.509,0,0,1,.56.48v2.4a.567.567,0,0,1-.56.52h-9a2.234,2.234,0,0,0-2.48,2.48v6.12a1.793,1.793,0,0,0,1.8,1.8h14.04a1.793,1.793,0,0,0,1.8-1.8V117.36a1.784,1.784,0,0,0-1.8-1.76Zm9.6,14.4h-5.72a.5.5,0,0,1-.52-.52v-1a.539.539,0,0,1,.52-.56h5.72a.547.547,0,0,1,.56.56v1A.515.515,0,0,1,641.64,130Zm25.88-4.6c0-2.28-1.76-1.88-2.08-1.88h-6.76a.983.983,0,0,1-1.04-.84v-2.4a.983.983,0,0,1,1.04-.84h2.48a.509.509,0,0,1,.56.48c0,.24.28.44.56.44H666c2.2.36,1.76-1.72,1.76-1.96v-1.24c0-.24.12-1.56-1.8-1.56H654.48c-3.48,0-2.84,1.84-2.84,2.08v7.76c0,2.24,1.76,1.84,2.08,1.84h7.24a.942.942,0,0,1,1,.84v1.04a.942.942,0,0,1-1,.84H658.2a.535.535,0,0,1-.56-.48.506.506,0,0,0-.56-.44H652.2a.506.506,0,0,0-.56.44v2.36c0,2.36,1.28,2.12,1.6,2.12h11.8c2.84,0,2.48-1.96,2.48-2.24Zm16.28-17.52v24.04a2.414,2.414,0,0,0,2.64,2.08h11.52a2.389,2.389,0,0,0,2.64-2.08V119.56a2.417,2.417,0,0,0-2.64-2.12h-8.28v-7.12c0-2.44.28-4.32-3.08-4.32C683.4,106,683.8,107.88,683.8,107.88Zm5.68,16.2a2.443,2.443,0,0,1,2.64-2.12h.16a2.417,2.417,0,0,1,2.64,2.12v3.28a2.418,2.418,0,0,1-2.64,2.16h-.16a2.443,2.443,0,0,1-2.64-2.16Zm28.88-8.48H706.84a2.487,2.487,0,0,0-2.64,2.36v13.72a2.483,2.483,0,0,0,2.64,2.32h11.52a2.508,2.508,0,0,0,2.64-2.32V117.96A2.512,2.512,0,0,0,718.36,115.6Zm-3.04,11.04a2.512,2.512,0,0,1-2.64,2.36h-.16a2.487,2.487,0,0,1-2.64-2.36v-3.68a2.483,2.483,0,0,1,2.64-2.32h.16a2.508,2.508,0,0,1,2.64,2.32Zm23.04-11.04H726.84a2.487,2.487,0,0,0-2.64,2.36v13.72a2.483,2.483,0,0,0,2.64,2.32h11.52a2.508,2.508,0,0,0,2.64-2.32V117.96A2.512,2.512,0,0,0,738.36,115.6Zm-3.04,11.04a2.512,2.512,0,0,1-2.64,2.36h-.16a2.487,2.487,0,0,1-2.64-2.36v-3.68a2.483,2.483,0,0,1,2.64-2.32h.16a2.508,2.508,0,0,1,2.64,2.32Zm20.04-15.2h-.24a1.6,1.6,0,0,1-1.48-1.64v-1.88a1.809,1.809,0,0,0-1.72-1.92h-2.16a1.836,1.836,0,0,0-1.72,1.92v1.88a1.567,1.567,0,0,1-1.48,1.64h-.24a1.885,1.885,0,0,0-1.72,2v1.6a1.81,1.81,0,0,0,1.72,1.92h.24a1.579,1.579,0,0,1,1.48,1.68v13.4a1.848,1.848,0,0,0,1.72,1.96h2.16a1.822,1.822,0,0,0,1.72-1.96v-13.4a1.606,1.606,0,0,1,1.48-1.68h.24a1.841,1.841,0,0,0,1.76-1.92v-1.6A1.916,1.916,0,0,0,755.36,111.44Zm21.68,13.96c0-2.28-1.76-1.88-2.08-1.88H768.2a.983.983,0,0,1-1.04-.84v-2.4a.983.983,0,0,1,1.04-.84h2.48a.509.509,0,0,1,.56.48c0,.24.28.44.56.44h3.72c2.2.36,1.76-1.72,1.76-1.96v-1.24c0-.24.12-1.56-1.8-1.56H764c-3.48,0-2.84,1.84-2.84,2.08v7.76c0,2.24,1.76,1.84,2.08,1.84h7.24a.942.942,0,0,1,1,.84v1.04a.942.942,0,0,1-1,.84h-2.76a.535.535,0,0,1-.56-.48.506.506,0,0,0-.56-.44h-4.88a.506.506,0,0,0-.56.44v2.36c0,2.36,1.28,2.12,1.6,2.12h11.8c2.84,0,2.48-1.96,2.48-2.24Zm12.64-13.96h-.24a1.6,1.6,0,0,1-1.48-1.64v-1.88a1.809,1.809,0,0,0-1.72-1.92h-2.16a1.836,1.836,0,0,0-1.72,1.92v1.88a1.567,1.567,0,0,1-1.48,1.64h-.24a1.885,1.885,0,0,0-1.72,2v1.6a1.81,1.81,0,0,0,1.72,1.92h.24a1.579,1.579,0,0,1,1.48,1.68v13.4a1.848,1.848,0,0,0,1.72,1.96h2.16a1.822,1.822,0,0,0,1.72-1.96v-13.4a1.606,1.606,0,0,1,1.48-1.68h.24a1.841,1.841,0,0,0,1.76-1.92v-1.6A1.916,1.916,0,0,0,789.68,111.44ZM804,115.76l-1.72,1.16a.784.784,0,0,1-1.24-.6.763.763,0,0,0-.8-.72h-4.4a.763.763,0,0,0-.8.72v16.92a.769.769,0,0,0,.8.76h4.4a.769.769,0,0,0,.8-.76v-9.4a.726.726,0,0,1,.24-.56l3.6-2.64a.749.749,0,0,1,.56-.2h4a.763.763,0,0,0,.8-.72v-3.4a.763.763,0,0,0-.8-.72h-4.96A.98.98,0,0,0,804,115.76Zm10.28-.16a1.784,1.784,0,0,0-1.8,1.76v3.32a.539.539,0,0,0,.52.56h3.2a.539.539,0,0,0,.52-.56.5.5,0,0,1,.52-.48h6.72a.509.509,0,0,1,.56.48v2.4a.567.567,0,0,1-.56.52h-9a2.234,2.234,0,0,0-2.48,2.48v6.12a1.793,1.793,0,0,0,1.8,1.8h14.04a1.793,1.793,0,0,0,1.8-1.8V117.36a1.784,1.784,0,0,0-1.8-1.76Zm9.6,14.4h-5.72a.5.5,0,0,1-.52-.52v-1a.539.539,0,0,1,.52-.56h5.72a.547.547,0,0,1,.56.56v1A.515.515,0,0,1,823.88,130Zm12.76,16.72c3.36,0,3.08-2.08,3.08-4.8V134H848a2.487,2.487,0,0,0,2.64-2.36V117.92A2.483,2.483,0,0,0,848,115.6H836.48a2.508,2.508,0,0,0-2.64,2.32v26.72S833.44,146.72,836.64,146.72Zm2.88-23.76a2.512,2.512,0,0,1,2.64-2.36h.16a2.487,2.487,0,0,1,2.64,2.36v3.68a2.483,2.483,0,0,1-2.64,2.32h-.16a2.508,2.508,0,0,1-2.64-2.32Zm28.92-7.36a1.784,1.784,0,0,0-1.8,1.76v3.32a.539.539,0,0,0,.52.56h3.2a.539.539,0,0,0,.52-.56.5.5,0,0,1,.52-.48h6.72a.509.509,0,0,1,.56.48v2.4a.567.567,0,0,1-.56.52h-9a2.234,2.234,0,0,0-2.48,2.48v6.12a1.793,1.793,0,0,0,1.8,1.8h14.04a1.793,1.793,0,0,0,1.8-1.8V117.36a1.784,1.784,0,0,0-1.8-1.76Zm9.6,14.4h-5.72a.5.5,0,0,1-.52-.52v-1a.539.539,0,0,1,.52-.56h5.72a.547.547,0,0,1,.56.56v1A.515.515,0,0,1,878.04,130Zm24.8-14.12h-9.56a1.781,1.781,0,0,1-1.4-.28H889.6a1.6,1.6,0,0,0-1.6,1.6v15.2a1.6,1.6,0,0,0,1.6,1.6h2.28a1.6,1.6,0,0,0,1.6-1.6V120.72h4.32a1.836,1.836,0,0,1,1.72,1.92v9.44A1.8,1.8,0,0,0,901.2,134h1.64a1.8,1.8,0,0,0,1.68-1.92V117.76A1.793,1.793,0,0,0,902.84,115.88Zm19.68-9.8c-3.36,0-3.08,1.88-3.08,4.32v7.12h-8.28a2.417,2.417,0,0,0-2.64,2.12V132a2.389,2.389,0,0,0,2.64,2.08h11.52a2.414,2.414,0,0,0,2.64-2.08V107.96S925.72,106.08,922.52,106.08Zm-2.88,21.36A2.443,2.443,0,0,1,917,129.6h-.16a2.418,2.418,0,0,1-2.64-2.16v-3.28a2.417,2.417,0,0,1,2.64-2.12H917a2.443,2.443,0,0,1,2.64,2.12Zm34.48-19.4v17.52a2.057,2.057,0,0,1-2.04,2.08h-2.2a2.057,2.057,0,0,1-2.04-2.08V108.04a2.083,2.083,0,0,0-2.08-2.04h-2.4a2.075,2.075,0,0,0-2.04,2.04v23.88a2.083,2.083,0,0,0,2.04,2.08H958.6a2.049,2.049,0,0,0,2-2.08V108.04a2.04,2.04,0,0,0-2-2.04h-2.44A2.075,2.075,0,0,0,954.12,108.04Zm14.92,25.92h-2.6a2.013,2.013,0,0,1-1.84-2.12v-23.8a2.013,2.013,0,0,1,1.84-2.12h2.6a2.013,2.013,0,0,1,1.84,2.12v23.8A2.013,2.013,0,0,1,969.04,133.96Zm25-26.24c.52-.8.24-1.44-.64-1.44h-4.8c-.88,0-1.4.6-1.92,1.4l-4.6,5.48c-.52.76-.96.64-.96-.4V107.8a1.683,1.683,0,0,0-1.6-1.8h-3.04a1.683,1.683,0,0,0-1.6,1.8v24.4a1.708,1.708,0,0,0,1.6,1.8h3.04a1.708,1.708,0,0,0,1.6-1.8v-5c0-1,.44-1.16.96-.36l4.6,5.68c.52.84,1.04,1.48,1.92,1.48h4.68c.88,0,1.2-.68.68-1.48l-8.76-11.08a2.953,2.953,0,0,1,.04-2.88Zm4.28.84v.2a1.9,1.9,0,0,0,1.84,2h2.36a1.926,1.926,0,0,0,1.84-2v-.2a1.963,1.963,0,0,0-1.84-2.04h-2.36A1.936,1.936,0,0,0,998.32,108.56Zm1.84,25.4h2.36a1.937,1.937,0,0,0,1.84-2.04V117.64a1.975,1.975,0,0,0-1.84-2.08h-2.36a1.949,1.949,0,0,0-1.84,2.08v14.28A1.912,1.912,0,0,0,1000.16,133.96Zm18.96-22.52h-.24a1.6,1.6,0,0,1-1.48-1.64v-1.88a1.809,1.809,0,0,0-1.72-1.92h-2.16a1.836,1.836,0,0,0-1.72,1.92v1.88a1.567,1.567,0,0,1-1.48,1.64h-.24a1.885,1.885,0,0,0-1.72,2v1.6a1.81,1.81,0,0,0,1.72,1.92h.24a1.579,1.579,0,0,1,1.48,1.68v13.4a1.848,1.848,0,0,0,1.72,1.96h2.16a1.822,1.822,0,0,0,1.72-1.96v-13.4a1.606,1.606,0,0,1,1.48-1.68h.24a1.841,1.841,0,0,0,1.76-1.92v-1.6A1.916,1.916,0,0,0,1019.12,111.44Zm19.56,4.16a1.784,1.784,0,0,0-1.8,1.76v3.32a.539.539,0,0,0,.52.56h3.2a.539.539,0,0,0,.52-.56.5.5,0,0,1,.52-.48h6.72a.509.509,0,0,1,.56.48v2.4a.567.567,0,0,1-.56.52h-9a2.234,2.234,0,0,0-2.48,2.48v6.12a1.793,1.793,0,0,0,1.8,1.8h14.04a1.793,1.793,0,0,0,1.8-1.8V117.36a1.784,1.784,0,0,0-1.8-1.76Zm9.6,14.4h-5.72a.5.5,0,0,1-.52-.52v-1a.539.539,0,0,1,.52-.56h5.72a.547.547,0,0,1,.56.56v1A.515.515,0,0,1,1048.28,130Zm25.88-4.6c0-2.28-1.76-1.88-2.08-1.88h-6.76a.983.983,0,0,1-1.04-.84v-2.4a.983.983,0,0,1,1.04-.84h2.48a.509.509,0,0,1,.56.48c0,.24.28.44.56.44h3.72c2.2.36,1.76-1.72,1.76-1.96v-1.24c0-.24.12-1.56-1.8-1.56h-11.48c-3.48,0-2.84,1.84-2.84,2.08v7.76c0,2.24,1.76,1.84,2.08,1.84h7.24a.942.942,0,0,1,1,.84v1.04a.942.942,0,0,1-1,.84h-2.76a.535.535,0,0,1-.56-.48.506.506,0,0,0-.56-.44h-4.88a.506.506,0,0,0-.56.44v2.36c0,2.36,1.28,2.12,1.6,2.12h11.8c2.84,0,2.48-1.96,2.48-2.24Zm26.04-13.96h-.24a1.6,1.6,0,0,1-1.48-1.64v-1.88a1.81,1.81,0,0,0-1.72-1.92h-2.16a1.836,1.836,0,0,0-1.72,1.92v1.88a1.567,1.567,0,0,1-1.48,1.64h-.24a1.885,1.885,0,0,0-1.72,2v1.6a1.81,1.81,0,0,0,1.72,1.92h.24a1.579,1.579,0,0,1,1.48,1.68v13.4a1.848,1.848,0,0,0,1.72,1.96h2.16a1.822,1.822,0,0,0,1.72-1.96v-13.4a1.606,1.606,0,0,1,1.48-1.68h.24a1.841,1.841,0,0,0,1.76-1.92v-1.6A1.916,1.916,0,0,0,1100.2,111.44Zm21.12,4.76h-9.12c-.72,0-1.2-.76-1.2-1.72v-6.8a1.546,1.546,0,0,0-1.4-1.68h-3.12a1.545,1.545,0,0,0-1.32,1.68v24.64a1.545,1.545,0,0,0,1.32,1.68h3.12a1.547,1.547,0,0,0,1.28-1.68v-8.4c0-.92.56-1.72,1.28-1.72h3.6c.68,0,1.28.8,1.28,1.72v8.4a1.517,1.517,0,0,0,1.28,1.68h3a1.545,1.545,0,0,0,1.32-1.68v-14.4A1.56,1.56,0,0,0,1121.32,116.2Zm21.96,8.52v-5.24c0-1.92-1.52-3.88-3.4-3.88h-9.84c-1.88,0-3.4,1.96-3.4,3.88v11.04a3.441,3.441,0,0,0,3.4,3.48h11.68a1.324,1.324,0,0,0,1.28-1.32v-2.12a1.334,1.334,0,0,0-1.28-1.36h-8.64a1.324,1.324,0,0,1-1.28-1.32v-.48a1.324,1.324,0,0,1,1.28-1.32H1142A1.334,1.334,0,0,0,1143.28,124.72Zm-10.16-5.32h4.4a1.341,1.341,0,0,1,0,2.68h-4.4a1.341,1.341,0,0,1,0-2.68Zm26.68-3.76-3.08,6.24a1.2,1.2,0,0,1-2.2,0l-3.08-6.28a1.175,1.175,0,0,0-1.08-.72l-3.04-.04a1.282,1.282,0,0,0-1.12,1.84l6.32,13.32a1.278,1.278,0,0,1,.12.56v12.32a1.281,1.281,0,0,0,1.24,1.28h3.48a1.281,1.281,0,0,0,1.24-1.28V130.56a1.278,1.278,0,0,1,.12-.56l6.48-13.24a1.282,1.282,0,0,0-1.12-1.84h-3.16A1.231,1.231,0,0,0,1159.8,115.64Zm43.56-.04h-3.76a1.1,1.1,0,0,0-1.2.92v11.84c0,.52-.56.92-1.24.92h-1.6c-.68,0-1.24-.4-1.24-.92V124.8a1.1,1.1,0,0,0-1.2-.96h-1.6a1.138,1.138,0,0,0-1.24.96v3.56c0,.52-.52.92-1.24.92h-1.56c-.68,0-1.24-.4-1.24-.92V116.52c0-.48-.56-.92-1.24-.92h-3.44c-.68,0-1.24.44-1.24.92v16.52a1.138,1.138,0,0,0,1.24.96h7.48c.72,0,1.24-.44,1.24-.96s.56-.92,1.24-.92h1.6c.68,0,1.2.4,1.2.92a1.138,1.138,0,0,0,1.24.96h7.8a1.138,1.138,0,0,0,1.24-.96V116.52C1204.6,116.04,1204.04,115.6,1203.36,115.6Zm21.88,9.12v-5.24c0-1.92-1.52-3.88-3.4-3.88H1212c-1.88,0-3.4,1.96-3.4,3.88v11.04A3.441,3.441,0,0,0,1212,134h11.68a1.324,1.324,0,0,0,1.28-1.32v-2.12a1.334,1.334,0,0,0-1.28-1.36h-8.64a1.324,1.324,0,0,1-1.28-1.32v-.48a1.324,1.324,0,0,1,1.28-1.32h8.92A1.334,1.334,0,0,0,1225.24,124.72Zm-10.16-5.32h4.4a1.341,1.341,0,0,1,0,2.68h-4.4a1.341,1.341,0,0,1,0-2.68Zm22.72-3.64-1.72,1.16a.784.784,0,0,1-1.24-.6.763.763,0,0,0-.8-.72h-4.4a.763.763,0,0,0-.8.72v16.92a.769.769,0,0,0,.8.76h4.4a.769.769,0,0,0,.8-.76v-9.4a.727.727,0,0,1,.24-.56l3.6-2.64a.749.749,0,0,1,.56-.2h4a.763.763,0,0,0,.8-.72v-3.4a.763.763,0,0,0-.8-.72h-4.96A.98.98,0,0,0,1237.8,115.76Zm25.2,8.96v-5.24c0-1.92-1.52-3.88-3.4-3.88h-9.84c-1.88,0-3.4,1.96-3.4,3.88v11.04a3.441,3.441,0,0,0,3.4,3.48h11.68a1.324,1.324,0,0,0,1.28-1.32v-2.12a1.334,1.334,0,0,0-1.28-1.36h-8.64a1.324,1.324,0,0,1-1.28-1.32v-.48a1.324,1.324,0,0,1,1.28-1.32h8.92A1.334,1.334,0,0,0,1263,124.72Zm-10.16-5.32h4.4a1.341,1.341,0,0,1,0,2.68h-4.4a1.341,1.341,0,0,1,0-2.68Zm-1236,44.48H7.28a1.641,1.641,0,0,0-.44.04,1.628,1.628,0,0,0-.96-.32H3.6A1.6,1.6,0,0,0,2,165.2v15.2A1.6,1.6,0,0,0,3.6,182H5.88a1.6,1.6,0,0,0,1.6-1.6V168.72H11.8a1.836,1.836,0,0,1,1.72,1.92v9.44A1.8,1.8,0,0,0,15.2,182h1.64a1.8,1.8,0,0,0,1.68-1.92V165.76A1.793,1.793,0,0,0,16.84,163.88Zm19.44-.28H24.76a2.487,2.487,0,0,0-2.64,2.36v13.72A2.483,2.483,0,0,0,24.76,182H36.28a2.508,2.508,0,0,0,2.64-2.32V165.96A2.512,2.512,0,0,0,36.28,163.6Zm-3.04,11.04A2.512,2.512,0,0,1,30.6,177h-.16a2.487,2.487,0,0,1-2.64-2.36v-3.68a2.483,2.483,0,0,1,2.64-2.32h.16a2.508,2.508,0,0,1,2.64,2.32Zm20.04-15.2h-.24a1.6,1.6,0,0,1-1.48-1.64v-1.88A1.81,1.81,0,0,0,49.84,154H47.68a1.836,1.836,0,0,0-1.72,1.92v1.88a1.567,1.567,0,0,1-1.48,1.64h-.24a1.885,1.885,0,0,0-1.72,2v1.6a1.81,1.81,0,0,0,1.72,1.92h.24a1.579,1.579,0,0,1,1.48,1.68v13.4A1.848,1.848,0,0,0,47.68,182h2.16a1.822,1.822,0,0,0,1.72-1.96v-13.4a1.606,1.606,0,0,1,1.48-1.68h.24a1.841,1.841,0,0,0,1.76-1.92v-1.6A1.916,1.916,0,0,0,53.28,159.44Zm29.12,5.64V175.4a1.564,1.564,0,0,1-1.6,1.52h-2a1.6,1.6,0,0,1-1.64-1.52V165.08a1.557,1.557,0,0,0-1.6-1.48H72.64a1.557,1.557,0,0,0-1.6,1.48v15.4a1.564,1.564,0,0,0,1.6,1.52H86.92a1.574,1.574,0,0,0,1.64-1.52v-15.4a1.569,1.569,0,0,0-1.64-1.48H84.04A1.6,1.6,0,0,0,82.4,165.08Zm18.88-5.64h-.24a1.6,1.6,0,0,1-1.48-1.64v-1.88A1.81,1.81,0,0,0,97.84,154H95.68a1.836,1.836,0,0,0-1.72,1.92v1.88a1.567,1.567,0,0,1-1.48,1.64h-.24a1.885,1.885,0,0,0-1.72,2v1.6a1.81,1.81,0,0,0,1.72,1.92h.24a1.579,1.579,0,0,1,1.48,1.68v13.4A1.848,1.848,0,0,0,95.68,182h2.16a1.822,1.822,0,0,0,1.72-1.96v-13.4a1.606,1.606,0,0,1,1.48-1.68h.24a1.841,1.841,0,0,0,1.76-1.92v-1.6A1.916,1.916,0,0,0,101.28,159.44Zm4.24-2.88v.2a1.9,1.9,0,0,0,1.84,2h2.36a1.926,1.926,0,0,0,1.84-2v-.2a1.963,1.963,0,0,0-1.84-2.04h-2.36A1.936,1.936,0,0,0,105.52,156.56Zm1.84,25.4h2.36a1.937,1.937,0,0,0,1.84-2.04V165.64a1.975,1.975,0,0,0-1.84-2.08h-2.36a1.949,1.949,0,0,0-1.84,2.08v14.28A1.912,1.912,0,0,0,107.36,181.96Zm13.08.04h-3.68a1.271,1.271,0,0,1-1.2-1.36V155.4a1.308,1.308,0,0,1,1.2-1.4h3.68a1.336,1.336,0,0,1,1.2,1.4v25.24A1.3,1.3,0,0,1,120.44,182Zm5.2-25.44v.2a1.9,1.9,0,0,0,1.84,2h2.36a1.926,1.926,0,0,0,1.84-2v-.2a1.963,1.963,0,0,0-1.84-2.04h-2.36A1.936,1.936,0,0,0,125.64,156.56Zm1.84,25.4h2.36a1.937,1.937,0,0,0,1.84-2.04V165.64a1.975,1.975,0,0,0-1.84-2.08h-2.36a1.949,1.949,0,0,0-1.84,2.08v14.28A1.912,1.912,0,0,0,127.48,181.96Zm21.88-18.28H136.84a1.064,1.064,0,0,0-1.16,1.04v2.52a1.059,1.059,0,0,0,1.16,1h5.72c.96,0,1.48.44.84,1.12l-7.4,7.6a1.075,1.075,0,0,0-.32.72V181a1.1,1.1,0,0,0,1.16,1.08h12.52a1.084,1.084,0,0,0,1.12-1.08l-.04-2.24a1.084,1.084,0,0,0-1.12-1.08h-4.64c-.96,0-1.44-.8-.8-1.4l6.2-7.64a1.044,1.044,0,0,0,.28-.68l.12-3.24A1.052,1.052,0,0,0,149.36,163.68Zm21.76,9.04v-5.24c0-1.92-1.52-3.88-3.4-3.88h-9.84c-1.88,0-3.4,1.96-3.4,3.88v11.04a3.441,3.441,0,0,0,3.4,3.48h11.68a1.324,1.324,0,0,0,1.28-1.32v-2.12a1.334,1.334,0,0,0-1.28-1.36h-8.64a1.324,1.324,0,0,1-1.28-1.32v-.48a1.324,1.324,0,0,1,1.28-1.32h8.92A1.334,1.334,0,0,0,171.12,172.72Zm-10.16-5.32h4.4a1.341,1.341,0,0,1,0,2.68h-4.4a1.341,1.341,0,0,1,0-2.68Zm28.16-13.32c-3.36,0-3.08,1.88-3.08,4.32v7.12h-8.28a2.417,2.417,0,0,0-2.64,2.12V180a2.389,2.389,0,0,0,2.64,2.08h11.52a2.414,2.414,0,0,0,2.64-2.08V155.96S192.32,154.08,189.12,154.08Zm-2.88,21.36a2.443,2.443,0,0,1-2.64,2.16h-.16a2.418,2.418,0,0,1-2.64-2.16v-3.28a2.417,2.417,0,0,1,2.64-2.12h.16a2.443,2.443,0,0,1,2.64,2.12Zm44.72-11.84H227.2a1.1,1.1,0,0,0-1.2.92v11.84c0,.52-.56.92-1.24.92h-1.6c-.68,0-1.24-.4-1.24-.92V172.8a1.1,1.1,0,0,0-1.2-.96h-1.6a1.138,1.138,0,0,0-1.24.96v3.56c0,.52-.52.92-1.24.92h-1.56c-.68,0-1.24-.4-1.24-.92V164.52c0-.48-.56-.92-1.24-.92h-3.44c-.68,0-1.24.44-1.24.92v16.52a1.138,1.138,0,0,0,1.24.96h7.48c.72,0,1.24-.44,1.24-.96s.56-.92,1.24-.92h1.6c.68,0,1.2.4,1.2.92a1.138,1.138,0,0,0,1.24.96h7.8a1.138,1.138,0,0,0,1.24-.96V164.52C232.2,164.04,231.64,163.6,230.96,163.6Zm21.4.6h-9.12c-.72,0-1.2-.76-1.2-1.72v-6.8a1.546,1.546,0,0,0-1.4-1.68h-3.12a1.545,1.545,0,0,0-1.32,1.68v24.64a1.545,1.545,0,0,0,1.32,1.68h3.12a1.547,1.547,0,0,0,1.28-1.68v-8.4c0-.92.56-1.72,1.28-1.72h3.6c.68,0,1.28.8,1.28,1.72v8.4a1.517,1.517,0,0,0,1.28,1.68h3a1.545,1.545,0,0,0,1.32-1.68v-14.4A1.56,1.56,0,0,0,252.36,164.2Zm21.96,8.52v-5.24c0-1.92-1.52-3.88-3.4-3.88h-9.84c-1.88,0-3.4,1.96-3.4,3.88v11.04a3.44,3.44,0,0,0,3.4,3.48h11.68a1.324,1.324,0,0,0,1.28-1.32v-2.12a1.334,1.334,0,0,0-1.28-1.36h-8.64a1.324,1.324,0,0,1-1.28-1.32v-.48a1.324,1.324,0,0,1,1.28-1.32h8.92A1.334,1.334,0,0,0,274.32,172.72Zm-10.16-5.32h4.4a1.341,1.341,0,0,1,0,2.68h-4.4a1.341,1.341,0,0,1,0-2.68Zm29-3.52H283.6a1.781,1.781,0,0,1-1.4-.28h-2.28a1.6,1.6,0,0,0-1.6,1.6v15.2a1.6,1.6,0,0,0,1.6,1.6h2.28a1.6,1.6,0,0,0,1.6-1.6V168.72h4.32a1.836,1.836,0,0,1,1.72,1.92v9.44a1.8,1.8,0,0,0,1.68,1.92h1.64a1.8,1.8,0,0,0,1.68-1.92V165.76A1.793,1.793,0,0,0,293.16,163.88Zm25.4,4.88h6a1.926,1.926,0,0,0,1.84-2V165.6a1.952,1.952,0,0,0-1.84-2h-9.8a4.154,4.154,0,0,0-3.92,4.32v9.8a4.154,4.154,0,0,0,3.92,4.32h9.8a1.952,1.952,0,0,0,1.84-2v-1.16a1.926,1.926,0,0,0-1.84-2h-6a1.926,1.926,0,0,1-1.84-2V170.8A1.963,1.963,0,0,1,318.56,168.76Zm20.4-5-1.72,1.16a.784.784,0,0,1-1.24-.6.763.763,0,0,0-.8-.72h-4.4a.763.763,0,0,0-.8.72v16.92a.769.769,0,0,0,.8.76h4.4a.769.769,0,0,0,.8-.76v-9.4a.726.726,0,0,1,.24-.56l3.6-2.64a.749.749,0,0,1,.56-.2h4a.763.763,0,0,0,.8-.72v-3.4a.763.763,0,0,0-.8-.72h-4.96A.98.98,0,0,0,338.96,163.76Zm25.2,8.96v-5.24c0-1.92-1.52-3.88-3.4-3.88h-9.84c-1.88,0-3.4,1.96-3.4,3.88v11.04a3.44,3.44,0,0,0,3.4,3.48H362.6a1.324,1.324,0,0,0,1.28-1.32v-2.12a1.334,1.334,0,0,0-1.28-1.36h-8.64a1.324,1.324,0,0,1-1.28-1.32v-.48a1.324,1.324,0,0,1,1.28-1.32h8.92A1.334,1.334,0,0,0,364.16,172.72ZM354,167.4h4.4a1.341,1.341,0,0,1,0,2.68H354a1.341,1.341,0,0,1,0-2.68Zm15.96-3.8a1.784,1.784,0,0,0-1.8,1.76v3.32a.539.539,0,0,0,.52.56h3.2a.539.539,0,0,0,.52-.56.5.5,0,0,1,.52-.48h6.72a.509.509,0,0,1,.56.48v2.4a.567.567,0,0,1-.56.52h-9a2.234,2.234,0,0,0-2.48,2.48v6.12a1.793,1.793,0,0,0,1.8,1.8H384a1.793,1.793,0,0,0,1.8-1.8V165.36a1.784,1.784,0,0,0-1.8-1.76Zm9.6,14.4h-5.72a.5.5,0,0,1-.52-.52v-1a.539.539,0,0,1,.52-.56h5.72a.547.547,0,0,1,.56.56v1A.515.515,0,0,1,379.56,178Zm18.72-18.56h-.24a1.6,1.6,0,0,1-1.48-1.64v-1.88a1.81,1.81,0,0,0-1.72-1.92h-2.16a1.836,1.836,0,0,0-1.72,1.92v1.88a1.567,1.567,0,0,1-1.48,1.64h-.24a1.885,1.885,0,0,0-1.72,2v1.6a1.81,1.81,0,0,0,1.72,1.92h.24a1.579,1.579,0,0,1,1.48,1.68v13.4a1.848,1.848,0,0,0,1.72,1.96h2.16a1.822,1.822,0,0,0,1.72-1.96v-13.4a1.606,1.606,0,0,1,1.48-1.68h.24a1.841,1.841,0,0,0,1.76-1.92v-1.6A1.916,1.916,0,0,0,398.28,159.44Zm4.24-2.88v.2a1.9,1.9,0,0,0,1.84,2h2.36a1.926,1.926,0,0,0,1.84-2v-.2a1.963,1.963,0,0,0-1.84-2.04h-2.36A1.936,1.936,0,0,0,402.52,156.56Zm1.84,25.4h2.36a1.937,1.937,0,0,0,1.84-2.04V165.64a1.975,1.975,0,0,0-1.84-2.08h-2.36a1.949,1.949,0,0,0-1.84,2.08v14.28A1.912,1.912,0,0,0,404.36,181.96Zm23.04-18.08h-9.56a1.781,1.781,0,0,1-1.4-.28h-2.28a1.6,1.6,0,0,0-1.6,1.6v15.2a1.6,1.6,0,0,0,1.6,1.6h2.28a1.6,1.6,0,0,0,1.6-1.6V168.72h4.32a1.836,1.836,0,0,1,1.72,1.92v9.44a1.8,1.8,0,0,0,1.68,1.92h1.64a1.8,1.8,0,0,0,1.68-1.92V165.76A1.793,1.793,0,0,0,427.4,163.88Zm16.84-.44a.539.539,0,0,1-.56.52h-8.12c-2.52,0-3.08,1.76-3.08,3.92v11.16c0,3.4,2.8,2.92,3.08,2.92h6.84c2.08,0,1.92,2.04,1.92,2.32v.2c.16,2.24-1.6,2.04-1.92,2.04h-3.16a.565.565,0,0,1-.56-.48v-1.28a.5.5,0,0,0-.52-.48h-4.52a.533.533,0,0,0-.56.48v2.36a4.271,4.271,0,0,0,4.52,3.96h8.44a3.946,3.946,0,0,0,3.84-3.96V163.44c0-.2-.28-.44-.56-.44H444.8A.536.536,0,0,0,444.24,163.44ZM442.92,177h-3.28c-1.92.12-1.6-1.16-1.6-1.16v-5.12c0-.24-.28-1.56,1.6-1.56h3.28c1.4,0,1.2,1.32,1.2,1.56v4.84C444.12,175.84,444.28,177,442.92,177Zm32.72-17.56h-.24a1.6,1.6,0,0,1-1.48-1.64v-1.88A1.81,1.81,0,0,0,472.2,154h-2.16a1.836,1.836,0,0,0-1.72,1.92v1.88a1.567,1.567,0,0,1-1.48,1.64h-.24a1.885,1.885,0,0,0-1.72,2v1.6a1.81,1.81,0,0,0,1.72,1.92h.24a1.579,1.579,0,0,1,1.48,1.68v13.4a1.848,1.848,0,0,0,1.72,1.96h2.16a1.822,1.822,0,0,0,1.72-1.96v-13.4a1.606,1.606,0,0,1,1.48-1.68h.24a1.841,1.841,0,0,0,1.76-1.92v-1.6A1.916,1.916,0,0,0,475.64,159.44Zm21.12,4.76h-9.12c-.72,0-1.2-.76-1.2-1.72v-6.8a1.546,1.546,0,0,0-1.4-1.68h-3.12a1.545,1.545,0,0,0-1.32,1.68v24.64a1.545,1.545,0,0,0,1.32,1.68h3.12a1.547,1.547,0,0,0,1.28-1.68v-8.4c0-.92.56-1.72,1.28-1.72h3.6c.68,0,1.28.8,1.28,1.72v8.4a1.517,1.517,0,0,0,1.28,1.68h3a1.545,1.545,0,0,0,1.32-1.68v-14.4A1.56,1.56,0,0,0,496.76,164.2Zm5.32-7.64v.2a1.9,1.9,0,0,0,1.84,2h2.36a1.926,1.926,0,0,0,1.84-2v-.2a1.963,1.963,0,0,0-1.84-2.04h-2.36A1.936,1.936,0,0,0,502.08,156.56Zm1.84,25.4h2.36a1.937,1.937,0,0,0,1.84-2.04V165.64a1.975,1.975,0,0,0-1.84-2.08h-2.36a1.949,1.949,0,0,0-1.84,2.08v14.28A1.912,1.912,0,0,0,503.92,181.96Zm24.12-8.56c0-2.28-1.76-1.88-2.08-1.88H519.2a.983.983,0,0,1-1.04-.84v-2.4a.983.983,0,0,1,1.04-.84h2.48a.509.509,0,0,1,.56.48c0,.24.28.44.56.44h3.72c2.2.36,1.76-1.72,1.76-1.96v-1.24c0-.24.12-1.56-1.8-1.56H515c-3.48,0-2.84,1.84-2.84,2.08v7.76c0,2.24,1.76,1.84,2.08,1.84h7.24a.942.942,0,0,1,1,.84v1.04a.942.942,0,0,1-1,.84h-2.76a.535.535,0,0,1-.56-.48.506.506,0,0,0-.56-.44h-4.88a.506.506,0,0,0-.56.44v2.36c0,2.36,1.28,2.12,1.6,2.12h11.8c2.84,0,2.48-1.96,2.48-2.24Zm32.2,0c0-2.28-1.76-1.88-2.08-1.88H551.4a.983.983,0,0,1-1.04-.84v-2.4a.983.983,0,0,1,1.04-.84h2.48a.509.509,0,0,1,.56.48c0,.24.28.44.56.44h3.72c2.2.36,1.76-1.72,1.76-1.96v-1.24c0-.24.12-1.56-1.8-1.56H547.2c-3.48,0-2.84,1.84-2.84,2.08v7.76c0,2.24,1.76,1.84,2.08,1.84h7.24a.942.942,0,0,1,1,.84v1.04a.942.942,0,0,1-1,.84h-2.76a.535.535,0,0,1-.56-.48.506.506,0,0,0-.56-.44h-4.88a.506.506,0,0,0-.56.44v2.36c0,2.36,1.28,2.12,1.6,2.12h11.8c2.84,0,2.48-1.96,2.48-2.24Zm4.28-16.84v.2a1.9,1.9,0,0,0,1.84,2h2.36a1.926,1.926,0,0,0,1.84-2v-.2a1.963,1.963,0,0,0-1.84-2.04h-2.36A1.936,1.936,0,0,0,564.52,156.56Zm1.84,25.4h2.36a1.937,1.937,0,0,0,1.84-2.04V165.64a1.975,1.975,0,0,0-1.84-2.08h-2.36a1.949,1.949,0,0,0-1.84,2.08v14.28A1.912,1.912,0,0,0,566.36,181.96Zm18.96-22.52h-.24a1.6,1.6,0,0,1-1.48-1.64v-1.88a1.809,1.809,0,0,0-1.72-1.92h-2.16a1.836,1.836,0,0,0-1.72,1.92v1.88a1.567,1.567,0,0,1-1.48,1.64h-.24a1.885,1.885,0,0,0-1.72,2v1.6a1.81,1.81,0,0,0,1.72,1.92h.24a1.579,1.579,0,0,1,1.48,1.68v13.4a1.848,1.848,0,0,0,1.72,1.96h2.16a1.822,1.822,0,0,0,1.72-1.96v-13.4a1.606,1.606,0,0,1,1.48-1.68h.24a1.841,1.841,0,0,0,1.76-1.92v-1.6A1.916,1.916,0,0,0,585.32,159.44Zm20.48,13.28v-5.24c0-1.92-1.52-3.88-3.4-3.88h-9.84c-1.88,0-3.4,1.96-3.4,3.88v11.04a3.441,3.441,0,0,0,3.4,3.48h11.68a1.324,1.324,0,0,0,1.28-1.32v-2.12a1.334,1.334,0,0,0-1.28-1.36H595.6a1.324,1.324,0,0,1-1.28-1.32v-.48a1.324,1.324,0,0,1,1.28-1.32h8.92A1.334,1.334,0,0,0,605.8,172.72Zm-10.16-5.32h4.4a1.341,1.341,0,0,1,0,2.68h-4.4a1.341,1.341,0,0,1,0-2.68Zm18.84,14.48h-2.96a1.707,1.707,0,0,1-1.72-1.72v-3a1.7,1.7,0,0,1,1.72-1.68h2.96a1.7,1.7,0,0,1,1.72,1.68v3A1.707,1.707,0,0,1,614.48,181.88Zm22.16.08h-2.6a2.013,2.013,0,0,1-1.84-2.12v-23.8a2.013,2.013,0,0,1,1.84-2.12h2.6a2.013,2.013,0,0,1,1.84,2.12v23.8A2.013,2.013,0,0,1,636.64,181.96Zm20.68-18.08h-9.56a1.781,1.781,0,0,1-1.4-.28h-2.28a1.6,1.6,0,0,0-1.6,1.6v15.2a1.6,1.6,0,0,0,1.6,1.6h2.28a1.6,1.6,0,0,0,1.6-1.6V168.72h4.32a1.836,1.836,0,0,1,1.72,1.92v9.44a1.8,1.8,0,0,0,1.68,1.92h1.64a1.8,1.8,0,0,0,1.68-1.92V165.76A1.793,1.793,0,0,0,657.32,163.88Zm19.48-.28a1.784,1.784,0,0,0-1.8,1.76v3.32a.539.539,0,0,0,.52.56h3.2a.539.539,0,0,0,.52-.56.5.5,0,0,1,.52-.48h6.72a.509.509,0,0,1,.56.48v2.4a.567.567,0,0,1-.56.52h-9a2.234,2.234,0,0,0-2.48,2.48v6.12a1.793,1.793,0,0,0,1.8,1.8h14.04a1.793,1.793,0,0,0,1.8-1.8V165.36a1.784,1.784,0,0,0-1.8-1.76Zm9.6,14.4h-5.72a.5.5,0,0,1-.52-.52v-1a.539.539,0,0,1,.52-.56h5.72a.547.547,0,0,1,.56.56v1A.515.515,0,0,1,686.4,178Zm23.96-23.92c-3.36,0-3.08,1.88-3.08,4.32v7.12H699a2.417,2.417,0,0,0-2.64,2.12V180a2.389,2.389,0,0,0,2.64,2.08h11.52a2.414,2.414,0,0,0,2.64-2.08V155.96S713.56,154.08,710.36,154.08Zm-2.88,21.36a2.443,2.443,0,0,1-2.64,2.16h-.16a2.418,2.418,0,0,1-2.64-2.16v-3.28a2.417,2.417,0,0,1,2.64-2.12h.16a2.443,2.443,0,0,1,2.64,2.12Zm23.68-21.36c-3.36,0-3.08,1.88-3.08,4.32v7.12H719.8a2.417,2.417,0,0,0-2.64,2.12V180a2.389,2.389,0,0,0,2.64,2.08h11.52a2.414,2.414,0,0,0,2.64-2.08V155.96S734.36,154.08,731.16,154.08Zm-2.88,21.36a2.443,2.443,0,0,1-2.64,2.16h-.16a2.418,2.418,0,0,1-2.64-2.16v-3.28a2.417,2.417,0,0,1,2.64-2.12h.16a2.443,2.443,0,0,1,2.64,2.12Zm9.68-18.88v.2a1.9,1.9,0,0,0,1.84,2h2.36a1.926,1.926,0,0,0,1.84-2v-.2a1.963,1.963,0,0,0-1.84-2.04H739.8A1.936,1.936,0,0,0,737.96,156.56Zm1.84,25.4h2.36a1.937,1.937,0,0,0,1.84-2.04V165.64a1.975,1.975,0,0,0-1.84-2.08H739.8a1.949,1.949,0,0,0-1.84,2.08v14.28A1.912,1.912,0,0,0,739.8,181.96Zm18.96-22.52h-.24a1.6,1.6,0,0,1-1.48-1.64v-1.88a1.809,1.809,0,0,0-1.72-1.92h-2.16a1.836,1.836,0,0,0-1.72,1.92v1.88a1.567,1.567,0,0,1-1.48,1.64h-.24a1.885,1.885,0,0,0-1.72,2v1.6a1.81,1.81,0,0,0,1.72,1.92h.24a1.579,1.579,0,0,1,1.48,1.68v13.4a1.848,1.848,0,0,0,1.72,1.96h2.16a1.822,1.822,0,0,0,1.72-1.96v-13.4a1.606,1.606,0,0,1,1.48-1.68h.24a1.841,1.841,0,0,0,1.76-1.92v-1.6A1.916,1.916,0,0,0,758.76,159.44Zm4.24-2.88v.2a1.9,1.9,0,0,0,1.84,2h2.36a1.926,1.926,0,0,0,1.84-2v-.2a1.963,1.963,0,0,0-1.84-2.04h-2.36A1.936,1.936,0,0,0,763,156.56Zm1.84,25.4h2.36a1.937,1.937,0,0,0,1.84-2.04V165.64a1.975,1.975,0,0,0-1.84-2.08h-2.36a1.949,1.949,0,0,0-1.84,2.08v14.28A1.912,1.912,0,0,0,764.84,181.96ZM786.8,163.6H775.28a2.487,2.487,0,0,0-2.64,2.36v13.72a2.483,2.483,0,0,0,2.64,2.32H786.8a2.508,2.508,0,0,0,2.64-2.32V165.96A2.512,2.512,0,0,0,786.8,163.6Zm-3.04,11.04a2.512,2.512,0,0,1-2.64,2.36h-.16a2.487,2.487,0,0,1-2.64-2.36v-3.68a2.483,2.483,0,0,1,2.64-2.32h.16a2.508,2.508,0,0,1,2.64,2.32Zm24.12-10.76h-9.56a1.781,1.781,0,0,1-1.4-.28h-2.28a1.6,1.6,0,0,0-1.6,1.6v15.2a1.6,1.6,0,0,0,1.6,1.6h2.28a1.6,1.6,0,0,0,1.6-1.6V168.72h4.32a1.836,1.836,0,0,1,1.72,1.92v9.44a1.8,1.8,0,0,0,1.68,1.92h1.64a1.8,1.8,0,0,0,1.68-1.92V165.76A1.793,1.793,0,0,0,807.88,163.88Zm11.08,13.4v4.56a1.135,1.135,0,0,1-.28.68l-4.84,4.88a1.042,1.042,0,0,0,0,1.4,1.032,1.032,0,0,0,1.24.12l9.36-6.4a.973.973,0,0,0,.44-.8v-4.44a.982.982,0,0,0-1-.96h-3.96A.973.973,0,0,0,818.96,177.28Zm26.36,4.68h-2.6a2.013,2.013,0,0,1-1.84-2.12v-23.8a2.013,2.013,0,0,1,1.84-2.12h2.6a2.013,2.013,0,0,1,1.84,2.12v23.8A2.013,2.013,0,0,1,845.32,181.96ZM886.2,163.6h-3.76a1.1,1.1,0,0,0-1.2.92v11.84c0,.52-.56.92-1.24.92h-1.6c-.68,0-1.24-.4-1.24-.92V172.8a1.1,1.1,0,0,0-1.2-.96h-1.6a1.138,1.138,0,0,0-1.24.96v3.56c0,.52-.52.92-1.24.92h-1.56c-.68,0-1.24-.4-1.24-.92V164.52c0-.48-.56-.92-1.24-.92H864.4c-.68,0-1.24.44-1.24.92v16.52a1.138,1.138,0,0,0,1.24.96h7.48c.72,0,1.24-.44,1.24-.96s.56-.92,1.24-.92h1.6c.68,0,1.2.4,1.2.92a1.138,1.138,0,0,0,1.24.96h7.8a1.138,1.138,0,0,0,1.24-.96V164.52C887.44,164.04,886.88,163.6,886.2,163.6Zm5.24-7.04v.2a1.9,1.9,0,0,0,1.84,2h2.36a1.926,1.926,0,0,0,1.84-2v-.2a1.963,1.963,0,0,0-1.84-2.04h-2.36A1.936,1.936,0,0,0,891.44,156.56Zm1.84,25.4h2.36a1.937,1.937,0,0,0,1.84-2.04V165.64a1.975,1.975,0,0,0-1.84-2.08h-2.36a1.949,1.949,0,0,0-1.84,2.08v14.28A1.912,1.912,0,0,0,893.28,181.96Zm13.08.04h-3.68a1.271,1.271,0,0,1-1.2-1.36V155.4a1.308,1.308,0,0,1,1.2-1.4h3.68a1.336,1.336,0,0,1,1.2,1.4v25.24A1.3,1.3,0,0,1,906.36,182Zm10.08,0h-3.68a1.271,1.271,0,0,1-1.2-1.36V155.4a1.308,1.308,0,0,1,1.2-1.4h3.68a1.336,1.336,0,0,1,1.2,1.4v25.24A1.3,1.3,0,0,1,916.44,182Zm33.84-9.28v-5.24c0-1.92-1.52-3.88-3.4-3.88h-9.84c-1.88,0-3.4,1.96-3.4,3.88v11.04a3.441,3.441,0,0,0,3.4,3.48h11.68a1.324,1.324,0,0,0,1.28-1.32v-2.12a1.334,1.334,0,0,0-1.28-1.36h-8.64a1.324,1.324,0,0,1-1.28-1.32v-.48a1.324,1.324,0,0,1,1.28-1.32H949A1.334,1.334,0,0,0,950.28,172.72Zm-10.16-5.32h4.4a1.341,1.341,0,0,1,0,2.68h-4.4a1.341,1.341,0,0,1,0-2.68Zm31.12,13.4L966,173.12a.6.6,0,0,1,0-.72l5.2-7.64c.36-.52-.2-1.16-1-1.16l-3.84.04a1.162,1.162,0,0,0-.96.44l-1.8,2.64a1.292,1.292,0,0,1-1.96,0l-1.8-2.68a1.161,1.161,0,0,0-.96-.44h-3.84c-.8,0-1.32.64-.96,1.16l5.16,7.64a.6.6,0,0,1,0,.72L954,180.8c-.36.56.16,1.2,1,1.2h3.8a1.214,1.214,0,0,0,1-.48l1.84-2.72a1.292,1.292,0,0,1,1.96,0l1.88,2.72a1.137,1.137,0,0,0,.96.48h3.84C971.08,182,971.6,181.36,971.24,180.8Zm6.52,13.92c3.36,0,3.08-2.08,3.08-4.8V182h8.28a2.487,2.487,0,0,0,2.64-2.36V165.92a2.483,2.483,0,0,0-2.64-2.32H977.6a2.508,2.508,0,0,0-2.64,2.32v26.72S974.56,194.72,977.76,194.72Zm2.88-23.76a2.512,2.512,0,0,1,2.64-2.36h.16a2.487,2.487,0,0,1,2.64,2.36v3.68a2.483,2.483,0,0,1-2.64,2.32h-.16a2.508,2.508,0,0,1-2.64-2.32Zm16.92-7.36a1.784,1.784,0,0,0-1.8,1.76v3.32a.539.539,0,0,0,.52.56h3.2a.539.539,0,0,0,.52-.56.5.5,0,0,1,.52-.48h6.72a.509.509,0,0,1,.56.48v2.4a.567.567,0,0,1-.56.52h-9a2.234,2.234,0,0,0-2.48,2.48v6.12a1.793,1.793,0,0,0,1.8,1.8h14.04a1.793,1.793,0,0,0,1.8-1.8V165.36a1.784,1.784,0,0,0-1.8-1.76Zm9.6,14.4h-5.72a.5.5,0,0,1-.52-.52v-1a.539.539,0,0,1,.52-.56h5.72a.547.547,0,0,1,.56.56v1A.515.515,0,0,1,1007.16,178Zm24.8-14.12h-9.56a1.781,1.781,0,0,1-1.4-.28h-2.28a1.6,1.6,0,0,0-1.6,1.6v15.2a1.6,1.6,0,0,0,1.6,1.6H1021a1.6,1.6,0,0,0,1.6-1.6V168.72h4.32a1.836,1.836,0,0,1,1.72,1.92v9.44a1.8,1.8,0,0,0,1.68,1.92h1.64a1.8,1.8,0,0,0,1.68-1.92V165.76A1.793,1.793,0,0,0,1031.96,163.88Zm19.68-9.8c-3.36,0-3.08,1.88-3.08,4.32v7.12h-8.28a2.417,2.417,0,0,0-2.64,2.12V180a2.389,2.389,0,0,0,2.64,2.08h11.52a2.414,2.414,0,0,0,2.64-2.08V155.96S1054.84,154.08,1051.64,154.08Zm-2.88,21.36a2.443,2.443,0,0,1-2.64,2.16h-.16a2.418,2.418,0,0,1-2.64-2.16v-3.28a2.417,2.417,0,0,1,2.64-2.12h.16a2.443,2.443,0,0,1,2.64,2.12Zm21.68-18.88v.2a1.9,1.9,0,0,0,1.84,2h2.36a1.926,1.926,0,0,0,1.84-2v-.2a1.963,1.963,0,0,0-1.84-2.04h-2.36A1.936,1.936,0,0,0,1070.44,156.56Zm1.84,25.4h2.36a1.937,1.937,0,0,0,1.84-2.04V165.64a1.975,1.975,0,0,0-1.84-2.08h-2.36a1.949,1.949,0,0,0-1.84,2.08v14.28A1.912,1.912,0,0,0,1072.28,181.96Zm23.04-18.08h-9.56a1.781,1.781,0,0,1-1.4-.28h-2.28a1.6,1.6,0,0,0-1.6,1.6v15.2a1.6,1.6,0,0,0,1.6,1.6h2.28a1.6,1.6,0,0,0,1.6-1.6V168.72h4.32a1.836,1.836,0,0,1,1.72,1.92v9.44a1.8,1.8,0,0,0,1.68,1.92h1.64a1.8,1.8,0,0,0,1.68-1.92V165.76A1.793,1.793,0,0,0,1095.32,163.88Zm16.44-4.44h-.24a1.6,1.6,0,0,1-1.48-1.64v-1.88a1.81,1.81,0,0,0-1.72-1.92h-2.16a1.836,1.836,0,0,0-1.72,1.92v1.88a1.567,1.567,0,0,1-1.48,1.64h-.24a1.885,1.885,0,0,0-1.72,2v1.6a1.81,1.81,0,0,0,1.72,1.92h.24a1.579,1.579,0,0,1,1.48,1.68v13.4a1.848,1.848,0,0,0,1.72,1.96h2.16a1.822,1.822,0,0,0,1.72-1.96v-13.4a1.606,1.606,0,0,1,1.48-1.68h.24a1.841,1.841,0,0,0,1.76-1.92v-1.6A1.916,1.916,0,0,0,1111.76,159.44Zm17.12,4.16h-11.52a2.487,2.487,0,0,0-2.64,2.36v13.72a2.483,2.483,0,0,0,2.64,2.32h11.52a2.508,2.508,0,0,0,2.64-2.32V165.96A2.512,2.512,0,0,0,1128.88,163.6Zm-3.04,11.04a2.512,2.512,0,0,1-2.64,2.36h-.16a2.487,2.487,0,0,1-2.64-2.36v-3.68a2.483,2.483,0,0,1,2.64-2.32h.16a2.508,2.508,0,0,1,2.64,2.32ZM1164.16,154h-3.4a1.469,1.469,0,0,0-1.44,1.48v18.84a1.483,1.483,0,0,1-1.4,1.56h-3.6a1.458,1.458,0,0,1-1.4-1.56v-1.76a1.5,1.5,0,0,0-1.44-1.52h-2.96a1.5,1.5,0,0,0-1.4,1.52v8a1.426,1.426,0,0,0,1.4,1.44h15.64a1.426,1.426,0,0,0,1.4-1.44V155.48A1.462,1.462,0,0,0,1164.16,154Zm7.8,0a2.555,2.555,0,0,0-2.4,2.68v12.44a2.593,2.593,0,0,0,2.4,2.72h6.92a2.172,2.172,0,1,1,0,4.32h-.08c-1.32,0-2.4-.32-2.4-.72s-1.08-.76-2.4-.76h-1.92a2.555,2.555,0,0,0-2.4,2.68v2a2.544,2.544,0,0,0,2.4,2.64h13.16a2.544,2.544,0,0,0,2.4-2.64V168.68a2.581,2.581,0,0,0-2.4-2.68h-5.96a2.524,2.524,0,0,1-2.44-2.64v-.56c0-1.52.88-2.68,1.96-2.68s1.96.24,1.96.48,1.08.48,2.4.48h2.08a2.53,2.53,0,0,0,2.4-2.68v-1.72a2.555,2.555,0,0,0-2.4-2.68Zm33.48,9.6a1.784,1.784,0,0,0-1.8,1.76v3.32a.539.539,0,0,0,.52.56h3.2a.539.539,0,0,0,.52-.56.5.5,0,0,1,.52-.48h6.72a.509.509,0,0,1,.56.48v2.4a.567.567,0,0,1-.56.52h-9a2.234,2.234,0,0,0-2.48,2.48v6.12a1.793,1.793,0,0,0,1.8,1.8h14.04a1.793,1.793,0,0,0,1.8-1.8V165.36a1.784,1.784,0,0,0-1.8-1.76Zm9.6,14.4h-5.72a.5.5,0,0,1-.52-.52v-1a.539.539,0,0,1,.52-.56h5.72a.547.547,0,0,1,.56.56v1A.515.515,0,0,1,1215.04,178Zm24.8-14.12h-9.56a1.781,1.781,0,0,1-1.4-.28h-2.28a1.6,1.6,0,0,0-1.6,1.6v15.2a1.6,1.6,0,0,0,1.6,1.6h2.28a1.6,1.6,0,0,0,1.6-1.6V168.72h4.32a1.836,1.836,0,0,1,1.72,1.92v9.44a1.8,1.8,0,0,0,1.68,1.92h1.64a1.8,1.8,0,0,0,1.68-1.92V165.76A1.793,1.793,0,0,0,1239.84,163.88Zm19.68-9.8c-3.36,0-3.08,1.88-3.08,4.32v7.12h-8.28a2.417,2.417,0,0,0-2.64,2.12V180a2.389,2.389,0,0,0,2.64,2.08h11.52a2.414,2.414,0,0,0,2.64-2.08V155.96S1262.72,154.08,1259.52,154.08Zm-2.88,21.36a2.443,2.443,0,0,1-2.64,2.16h-.16a2.418,2.418,0,0,1-2.64-2.16v-3.28a2.417,2.417,0,0,1,2.64-2.12h.16a2.443,2.443,0,0,1,2.64,2.12ZM17.92,221.4c0-2.28-1.76-1.88-2.08-1.88H9.08a.983.983,0,0,1-1.04-.84v-2.4a.983.983,0,0,1,1.04-.84h2.48a.509.509,0,0,1,.56.48c0,.24.28.44.56.44H16.4c2.2.36,1.76-1.72,1.76-1.96v-1.24c0-.24.12-1.56-1.8-1.56H4.88c-3.48,0-2.84,1.84-2.84,2.08v7.76c0,2.24,1.76,1.84,2.08,1.84h7.24a.942.942,0,0,1,1,.84v1.04a.942.942,0,0,1-1,.84H8.6a.535.535,0,0,1-.56-.48.506.506,0,0,0-.56-.44H2.6a.506.506,0,0,0-.56.44v2.36c0,2.36,1.28,2.12,1.6,2.12h11.8c2.84,0,2.48-1.96,2.48-2.24Zm18.04-9.8H24.44a2.487,2.487,0,0,0-2.64,2.36v13.72A2.483,2.483,0,0,0,24.44,230H35.96a2.508,2.508,0,0,0,2.64-2.32V213.96A2.512,2.512,0,0,0,35.96,211.6Zm-3.04,11.04A2.512,2.512,0,0,1,30.28,225h-.16a2.487,2.487,0,0,1-2.64-2.36v-3.68a2.483,2.483,0,0,1,2.64-2.32h.16a2.508,2.508,0,0,1,2.64,2.32Zm30.96-10.76H57.4a2.2,2.2,0,0,0-1.48.56,1.64,1.64,0,0,0-1.24-.56H47.52a1.641,1.641,0,0,0-.44.04,1.54,1.54,0,0,0-.96-.32H43.84a1.571,1.571,0,0,0-1.56,1.6v15.2a1.571,1.571,0,0,0,1.56,1.6h2.28a1.6,1.6,0,0,0,1.6-1.6V216.72h1.92a1.81,1.81,0,0,1,1.72,1.92v9.44A1.81,1.81,0,0,0,53.08,230h1.6a1.836,1.836,0,0,0,1.72-1.92V216.72h2.44a1.81,1.81,0,0,1,1.72,1.92v9.44A1.81,1.81,0,0,0,62.28,230h1.6a1.836,1.836,0,0,0,1.72-1.92V213.76A1.824,1.824,0,0,0,63.88,211.88Zm22.36,8.84v-5.24c0-1.92-1.52-3.88-3.4-3.88H73c-1.88,0-3.4,1.96-3.4,3.88v11.04A3.441,3.441,0,0,0,73,230H84.68a1.324,1.324,0,0,0,1.28-1.32v-2.12a1.334,1.334,0,0,0-1.28-1.36H76.04a1.324,1.324,0,0,1-1.28-1.32v-.48a1.324,1.324,0,0,1,1.28-1.32h8.92A1.334,1.334,0,0,0,86.24,220.72ZM76.08,215.4h4.4a1.341,1.341,0,0,1,0,2.68h-4.4a1.341,1.341,0,0,1,0-2.68Zm26.16-11.52v24.04a2.414,2.414,0,0,0,2.64,2.08H116.4a2.389,2.389,0,0,0,2.64-2.08V215.56a2.417,2.417,0,0,0-2.64-2.12h-8.28v-7.12c0-2.44.28-4.32-3.08-4.32C101.84,202,102.24,203.88,102.24,203.88Zm5.68,16.2a2.443,2.443,0,0,1,2.64-2.12h.16a2.417,2.417,0,0,1,2.64,2.12v3.28a2.418,2.418,0,0,1-2.64,2.16h-.16a2.443,2.443,0,0,1-2.64-2.16Zm16.92-8.48a1.784,1.784,0,0,0-1.8,1.76v3.32a.539.539,0,0,0,.52.56h3.2a.539.539,0,0,0,.52-.56.5.5,0,0,1,.52-.48h6.72a.509.509,0,0,1,.56.48v2.4a.567.567,0,0,1-.56.52h-9a2.234,2.234,0,0,0-2.48,2.48v6.12a1.793,1.793,0,0,0,1.8,1.8h14.04a1.793,1.793,0,0,0,1.8-1.8V213.36a1.784,1.784,0,0,0-1.8-1.76Zm9.6,14.4h-5.72a.5.5,0,0,1-.52-.52v-1a.539.539,0,0,1,.52-.56h5.72a.547.547,0,0,1,.56.56v1A.515.515,0,0,1,134.44,226Zm17.68-9.24h6a1.926,1.926,0,0,0,1.84-2V213.6a1.952,1.952,0,0,0-1.84-2h-9.8a4.154,4.154,0,0,0-3.92,4.32v9.8a4.154,4.154,0,0,0,3.92,4.32h9.8a1.952,1.952,0,0,0,1.84-2v-1.16a1.926,1.926,0,0,0-1.84-2h-6a1.926,1.926,0,0,1-1.84-2V218.8A1.963,1.963,0,0,1,152.12,216.76Zm27.8,12.04-4.84-10.68a1.108,1.108,0,0,1,0-.72l4-9.64a.854.854,0,0,0-.72-1.16h-4.2a.784.784,0,0,0-.76.48l-2.48,5.8c-.2.52-2.08.4-2.08-.2V202.8a.8.8,0,0,0-.76-.8h-4a.769.769,0,0,0-.76.8v26.36a.769.769,0,0,0,.76.8h4a.8.8,0,0,0,.76-.8v-6.28c0-.44,1.68-.6,1.92-.16l3.32,6.84a.7.7,0,0,0,.68.44l4.48-.04A.811.811,0,0,0,179.92,228.8Zm19.28-8.08v-5.24c0-1.92-1.52-3.88-3.4-3.88h-9.84c-1.88,0-3.4,1.96-3.4,3.88v11.04a3.441,3.441,0,0,0,3.4,3.48h11.68a1.324,1.324,0,0,0,1.28-1.32v-2.12a1.334,1.334,0,0,0-1.28-1.36H189a1.324,1.324,0,0,1-1.28-1.32v-.48a1.324,1.324,0,0,1,1.28-1.32h8.92A1.334,1.334,0,0,0,199.2,220.72Zm-10.16-5.32h4.4a1.341,1.341,0,0,1,0,2.68h-4.4a1.341,1.341,0,0,1,0-2.68Zm29-3.52h-9.56a1.781,1.781,0,0,1-1.4-.28H204.8a1.6,1.6,0,0,0-1.6,1.6v15.2a1.6,1.6,0,0,0,1.6,1.6h2.28a1.6,1.6,0,0,0,1.6-1.6V216.72H213a1.836,1.836,0,0,1,1.72,1.92v9.44A1.8,1.8,0,0,0,216.4,230h1.64a1.8,1.8,0,0,0,1.68-1.92V213.76A1.793,1.793,0,0,0,218.04,211.88Zm19.68-9.8c-3.36,0-3.08,1.88-3.08,4.32v7.12h-8.28a2.417,2.417,0,0,0-2.64,2.12V228a2.389,2.389,0,0,0,2.64,2.08h11.52a2.414,2.414,0,0,0,2.64-2.08V203.96S240.92,202.08,237.72,202.08Zm-2.88,21.36a2.443,2.443,0,0,1-2.64,2.16h-.16a2.418,2.418,0,0,1-2.64-2.16v-3.28a2.417,2.417,0,0,1,2.64-2.12h.16a2.443,2.443,0,0,1,2.64,2.12Zm44.72-11.84H275.8a1.1,1.1,0,0,0-1.2.92v11.84c0,.52-.56.92-1.24.92h-1.6c-.68,0-1.24-.4-1.24-.92V220.8a1.1,1.1,0,0,0-1.2-.96h-1.6a1.138,1.138,0,0,0-1.24.96v3.56c0,.52-.52.92-1.24.92h-1.56c-.68,0-1.24-.4-1.24-.92V212.52c0-.48-.56-.92-1.24-.92h-3.44c-.68,0-1.24.44-1.24.92v16.52a1.138,1.138,0,0,0,1.24.96h7.48c.72,0,1.24-.44,1.24-.96s.56-.92,1.24-.92h1.6c.68,0,1.2.4,1.2.92a1.138,1.138,0,0,0,1.24.96h7.8a1.138,1.138,0,0,0,1.24-.96V212.52C280.8,212.04,280.24,211.6,279.56,211.6Zm19,0H287.04a2.487,2.487,0,0,0-2.64,2.36v13.72a2.483,2.483,0,0,0,2.64,2.32h11.52a2.508,2.508,0,0,0,2.64-2.32V213.96A2.512,2.512,0,0,0,298.56,211.6Zm-3.04,11.04a2.512,2.512,0,0,1-2.64,2.36h-.16a2.487,2.487,0,0,1-2.64-2.36v-3.68a2.483,2.483,0,0,1,2.64-2.32h.16a2.508,2.508,0,0,1,2.64,2.32Zm17.84-10.88-1.72,1.16a.784.784,0,0,1-1.24-.6.763.763,0,0,0-.8-.72h-4.4a.763.763,0,0,0-.8.72v16.92a.769.769,0,0,0,.8.76h4.4a.769.769,0,0,0,.8-.76v-9.4a.726.726,0,0,1,.24-.56l3.6-2.64a.749.749,0,0,1,.56-.2h4a.763.763,0,0,0,.8-.72v-3.4a.763.763,0,0,0-.8-.72h-4.96A.98.98,0,0,0,313.36,211.76ZM340.8,228.8l-4.84-10.68a1.108,1.108,0,0,1,0-.72l4-9.64a.854.854,0,0,0-.72-1.16h-4.2a.784.784,0,0,0-.76.48l-2.48,5.8c-.2.52-2.08.4-2.08-.2V202.8a.8.8,0,0,0-.76-.8h-4a.769.769,0,0,0-.76.8v26.36a.769.769,0,0,0,.76.8h4a.8.8,0,0,0,.76-.8v-6.28c0-.44,1.68-.6,1.92-.16l3.32,6.84a.7.7,0,0,0,.68.44l4.48-.04A.811.811,0,0,0,340.8,228.8Zm7.32,1.08h-2.96a1.707,1.707,0,0,1-1.72-1.72v-3a1.7,1.7,0,0,1,1.72-1.68h2.96a1.7,1.7,0,0,1,1.72,1.68v3A1.707,1.707,0,0,1,348.12,229.88Z" transform="translate(274 484)" fill="#fff"/>
  </g>
</svg>
