<svg xmlns="http://www.w3.org/2000/svg" xmlns:xlink="http://www.w3.org/1999/xlink" width="1646" height="621" viewBox="0 0 1646 621">
  <defs>
    <filter id="Rectangle_2" x="20" y="18" width="1586" height="561" filterUnits="userSpaceOnUse">
      <feOffset dx="15" dy="15" input="SourceAlpha"/>
      <feGaussianBlur stdDeviation="10" result="blur"/>
      <feFlood flood-opacity="0.455"/>
      <feComposite operator="in" in2="blur"/>
      <feComposite in="SourceGraphic"/>
    </filter>
    <filter id="Line_28" x="1500" y="576" width="131" height="45" filterUnits="userSpaceOnUse">
      <feOffset dx="10" dy="10" input="SourceAlpha"/>
      <feGaussianBlur stdDeviation="5" result="blur-2"/>
      <feFlood flood-opacity="0.675"/>
      <feComposite operator="in" in2="blur-2"/>
      <feComposite in="SourceGraphic"/>
    </filter>
    <filter id="Line_25" x="0" y="0" width="45" height="142" filterUnits="userSpaceOnUse">
      <feOffset dx="10" dy="10" input="SourceAlpha"/>
      <feGaussianBlur stdDeviation="5" result="blur-3"/>
      <feFlood flood-opacity="0.675"/>
      <feComposite operator="in" in2="blur-3"/>
      <feComposite in="SourceGraphic"/>
    </filter>
    <filter id="Line_26" x="15" y="0" width="131" height="45" filterUnits="userSpaceOnUse">
      <feOffset dx="10" dy="10" input="SourceAlpha"/>
      <feGaussianBlur stdDeviation="5" result="blur-4"/>
      <feFlood flood-opacity="0.675"/>
      <feComposite operator="in" in2="blur-4"/>
      <feComposite in="SourceGraphic"/>
    </filter>
    <filter id="Line_27" x="1601" y="479" width="45" height="142" filterUnits="userSpaceOnUse">
      <feOffset dx="10" dy="10" input="SourceAlpha"/>
      <feGaussianBlur stdDeviation="5" result="blur-5"/>
      <feFlood flood-opacity="0.675"/>
      <feComposite operator="in" in2="blur-5"/>
      <feComposite in="SourceGraphic"/>
    </filter>
  </defs>
  <g id="Group_2" data-name="Group 2" transform="translate(-209.375 -93.147)">
    <g id="Group_1" data-name="Group 1" transform="translate(244.722 126)">
      <g id="Rectangle_4" data-name="Rectangle 4" transform="translate(28.653 33.147)" fill="rgba(100,255,218,0.92)" stroke="#64ffda" stroke-linecap="round" stroke-width="1" opacity="0.171">
        <rect width="1526" height="501" rx="42" stroke="none"/>
        <rect x="0.5" y="0.5" width="1525" height="500" rx="41.5" fill="none"/>
      </g>
      <g transform="matrix(1, 0, 0, 1, -35.35, -32.85)" filter="url(#Rectangle_2)">
        <rect id="Rectangle_2-2" data-name="Rectangle 2" width="1526" height="501" rx="42" transform="translate(35 33)" fill="#172a45"/>
      </g>
    </g>
    <g transform="matrix(1, 0, 0, 1, 209.38, 93.15)" filter="url(#Line_28)">
      <line id="Line_28-2" data-name="Line 28" x2="101" transform="translate(1505 588.5)" fill="none" stroke="#64ffda" stroke-width="15" opacity="0.85"/>
    </g>
    <g transform="matrix(1, 0, 0, 1, 209.38, 93.15)" filter="url(#Line_25)">
      <line id="Line_25-2" data-name="Line 25" y1="112" transform="translate(12.5 5)" fill="none" stroke="#64ffda" stroke-width="15" opacity="0.85"/>
    </g>
    <g transform="matrix(1, 0, 0, 1, 209.38, 93.15)" filter="url(#Line_26)">
      <line id="Line_26-2" data-name="Line 26" x1="101" transform="translate(20 12.5)" fill="none" stroke="#64ffda" stroke-width="15" opacity="0.85"/>
    </g>
    <g transform="matrix(1, 0, 0, 1, 209.38, 93.15)" filter="url(#Line_27)">
      <line id="Line_27-2" data-name="Line 27" y2="112" transform="translate(1613.5 484)" fill="none" stroke="#64ffda" stroke-width="15" opacity="0.85"/>
    </g>
    <g id="Group_3" data-name="Group 3" transform="translate(0 -184)">
      <path id="Path_6" data-name="Path 6" d="M22-140c-6.6,0-12,6-12,13.4v62.2c0,7.4,5.4,13.6,12,13.6H56.6c6.6,0,12,4.8,12,10.8s-5.4,10.8-12,10.8h-.4c-6.6,0-12-1.6-12-3.6s-5.4-3.8-12-3.8H22.6c-6.6,0-12,6-12,13.4v10C10.6-6,16,0,22.6,0H88.4c6.6,0,12-6,12-13.2V-66.6c0-7.2-5.4-13.4-12-13.4H58.6c-6.8,0-12.2-5.8-12.2-13.2V-96c0-7.6,4.4-13.4,9.8-13.4S66-108.2,66-107s5.4,2.4,12,2.4H88.4c6.6,0,12-5.8,12-13.4v-8.6c0-7.4-5.4-13.4-12-13.4Z" transform="translate(777.375 511.147)" fill="#4285f4"/>
      <path id="Path_5" data-name="Path 5" d="M96-6,71.8-59.4a5.541,5.541,0,0,1,0-3.6l20-48.2c1-2.8-1-5.8-3.6-5.8h-21c-1.8-.2-3,1-3.8,2.4L51-85.6c-1,2.6-10.4,2-10.4-1V-136a3.976,3.976,0,0,0-3.8-4h-20a3.845,3.845,0,0,0-3.8,4V-4.2a3.845,3.845,0,0,0,3.8,4h20a3.976,3.976,0,0,0,3.8-4V-35.6c0-2.2,8.4-3,9.6-.8L66.8-2.2A3.5,3.5,0,0,0,70.2,0L92.6-.2C95.4-.2,97.2-3.4,96-6Z" transform="translate(887.375 511.147)" fill="#ea4335"/>
      <path id="Path_4" data-name="Path 4" d="M10-127.2v1c0,5.6,4,10,9.2,10H31c5,0,9.2-4.4,9.2-10v-1c0-5.6-4.2-10.2-9.2-10.2H19.2C14-137.4,10-132.8,10-127.2ZM19.2-.2H31c5,0,9.2-4.4,9.2-10.2V-81.8c0-5.8-4.2-10.4-9.2-10.4H19.2C14-92.2,10-87.6,10-81.8v71.4C10-4.6,14-.2,19.2-.2Z" transform="translate(986.375 511.147)" fill="#fbbc05"/>
      <path id="Path_3" data-name="Path 3" d="M34.4,0H16c-3.4,0-6-3-6-6.8V-133c0-3.8,2.6-7,6-7H34.4c3.2,0,6,3.2,6,7V-6.8C40.4-3,37.6,0,34.4,0Z" transform="translate(1036.375 511.147)" fill="#4285f4"/>
      <path id="Path_2" data-name="Path 2" d="M34.4,0H16c-3.4,0-6-3-6-6.8V-133c0-3.8,2.6-7,6-7H34.4c3.2,0,6,3.2,6,7V-6.8C40.4-3,37.6,0,34.4,0Z" transform="translate(1086.375 511.147)" fill="#34a853"/>
      <path id="Path_1" data-name="Path 1" d="M89.6-43c0-11.4-8.8-9.4-10.4-9.4H45.4c-2.8,0-5.2-2-5.2-4.2v-12c0-2.2,2.4-4.2,5.2-4.2H57.8a2.543,2.543,0,0,1,2.8,2.4c0,1.2,1.4,2.2,2.8,2.2H82c11,1.8,8.8-8.6,8.8-9.8v-6.2c0-1.2.6-7.8-9-7.8H24.4C7-92,10.2-82.8,10.2-81.6v38.8c0,11.2,8.8,9.2,10.4,9.2H56.8c2.8,0,5,2,5,4.2v5.2c0,2.2-2.2,4.2-5,4.2H43a2.675,2.675,0,0,1-2.8-2.4c0-1.2-1.2-2.2-2.8-2.2H13c-1.6,0-2.8,1-2.8,2.2v11.8C10.2,1.2,16.6,0,18.2,0h59C91.4,0,89.6-9.8,89.6-11.2Z" transform="translate(1136.375 511.147)" fill="#ea4335"/>
    </g>
  </g>
</svg>
