      

<svg xmlns="http://www.w3.org/2000/svg" xmlns:xlink="http://www.w3.org/1999/xlink" width="1583.484" height="1002.812" viewBox="0 0 1583.484 1002.812">
  <defs>
    <style>
      @font-face {
        font-family: Spud;
        src: url(Spud-Regular.otf);
      }
      </style>
    <filter id="Rectangle_3" x="66.396" y="336.452" width="1457" height="107" filterUnits="userSpaceOnUse">
      <feOffset dx="5" dy="7" input="SourceAlpha"/>
      <feGaussianBlur stdDeviation="3.5" result="blur"/>
      <feFlood flood-opacity="0.412"/>
      <feComposite operator="in" in2="blur"/>
      <feComposite in="SourceGraphic"/>
    </filter>
  </defs>
  <g id="Group_2" data-name="Group 2" transform="translate(-227.104 -35.048)">
    <path id="Path_13" data-name="Path 13" d="M843.1,898.707c37.321,74.161-18.083,88.066-18.083,88.066L675.245,998.7v30.764h692.812l6.51-30.764L1239.6,986.773l-34.52-18.241-14.691-35.85,14.691-33.975Z" fill="#d3d3d3" stroke="#707070" stroke-width="1"/>
    <g id="Group_1" data-name="Group 1">
      <g id="Rectangle_2" data-name="Rectangle 2" transform="translate(245 47)" fill="rgba(255,255,255,0.92)" stroke="#707070" stroke-width="1">
        <rect width="1548" height="848" rx="42" stroke="none"/>
        <rect x="0.5" y="0.5" width="1547" height="847" rx="41.5" fill="none"/>
      </g>
      <line id="Line_1" data-name="Line 1" y1="2" x2="1440.306" transform="translate(296.684 45.5)" fill="none" stroke="#a3a3a3" stroke-linecap="round" stroke-width="20"/>
      <line id="Line_2" data-name="Line 2" x1="4.184" y2="729" transform="translate(242.5 105.5)" fill="none" stroke="#a3a3a3" stroke-linecap="round" stroke-width="15"/>
      <line id="Line_3" data-name="Line 3" x2="1454.306" y2="1" transform="translate(284.684 894.5)" fill="none" stroke="#a3a3a3" stroke-linecap="round" stroke-width="30"/>
      <line id="Line_4" data-name="Line 4" x1="8.49" y2="738" transform="translate(1788.5 105.5)" fill="none" stroke="#a3a3a3" stroke-linecap="round" stroke-width="15"/>
      <path id="Path_1" data-name="Path 1" d="M277.5,105.5c-2.225-61.236,54.641-60.8,54.641-60.8" transform="translate(-30.816)" fill="none" stroke="#a3a3a3" stroke-linecap="round" stroke-width="15"/>
      <path id="Path_2" data-name="Path 2" d="M.064,60.8C-2.162-.432,54.7,0,54.7,0" transform="translate(235.464 888.541) rotate(-83)" fill="none" stroke="#a3a3a3" stroke-linecap="round" stroke-width="15"/>
      <path id="Path_3" data-name="Path 3" d="M.064,60.8C-2.162-.432,54.7,0,54.7,0" transform="matrix(-0.996, -0.087, 0.087, -0.996, 1782.877, 904.768)" fill="none" stroke="#a3a3a3" stroke-linecap="round" stroke-width="15"/>
      <path id="Path_4" data-name="Path 4" d="M.063,64.877C-2.162,3.64,55.351,0,55.351,0" transform="matrix(-0.087, 0.996, -0.996, -0.087, 1802.006, 48.855)" fill="none" stroke="#a3a3a3" stroke-linecap="round" stroke-width="15"/>
      <path id="Path_5" data-name="Path 5" d="M1.454,33.067C-4.265,11,8.731,0,8.731,0" transform="translate(269.39 81.177) rotate(3)" fill="none" stroke="#a3a3a3" stroke-linecap="round" stroke-width="7"/>
      <line id="Line_5" data-name="Line 5" y2="12" transform="translate(267.684 127.5)" fill="none" stroke="#a3a3a3" stroke-linecap="round" stroke-width="9" opacity="0.997"/>
      <line id="Line_6" data-name="Line 6" x2="0.816" y2="686" transform="translate(267.684 152.5)" fill="none" stroke="#a3a3a3" stroke-linecap="round" stroke-width="5"/>
      <line id="Line_7" data-name="Line 7" x2="37" transform="translate(296.684 862.5)" fill="none" stroke="#a3a3a3" stroke-linecap="round" stroke-width="5"/>
      <path id="Path_6" data-name="Path 6" d="M299.5,778.5c3.386,27.664,28.036,24,28.036,24" transform="translate(-30.816 60)" fill="none" stroke="#a3a3a3" stroke-linecap="round" stroke-width="5"/>
      <line id="Line_8" data-name="Line 8" x2="1297.306" transform="translate(352.684 862.5)" fill="none" stroke="#a3a3a3" stroke-linecap="round" stroke-width="6"/>
      <line id="Line_9" data-name="Line 9" x2="43" transform="translate(1659.99 862.5)" fill="none" stroke="#a3a3a3" stroke-linecap="round" stroke-width="6"/>
      <line id="Line_10" data-name="Line 10" x1="1.49" y2="740" transform="translate(1766.5 103.5)" fill="none" stroke="#a3a3a3" stroke-linecap="round" stroke-width="6"/>
      <line id="Line_11" data-name="Line 11" x2="31" transform="translate(1712.99 862.5)" fill="none" stroke="#a3a3a3" stroke-linecap="round" stroke-width="6"/>
      <path id="Path_7" data-name="Path 7" d="M1515.5,776.5c-.612,26.57-26.578,21.708-26.578,21.708" transform="translate(251.49 64)" fill="none" stroke="#a3a3a3" stroke-width="6"/>
      <line id="Line_12" data-name="Line 12" y1="5" x2="1308.816" transform="translate(296.684 66.5)" fill="none" stroke="#a3a3a3" stroke-linecap="round" stroke-width="6"/>
      <line id="Line_13" data-name="Line 13" x2="45" y2="1" transform="translate(1626.99 66.5)" fill="none" stroke="#a3a3a3" stroke-linecap="round" stroke-width="6"/>
      <line id="Line_14" data-name="Line 14" x2="35" transform="translate(1687.99 66.5)" fill="none" stroke="#a3a3a3" stroke-linecap="round" stroke-width="6"/>
      <path id="Path_8" data-name="Path 8" d="M1516,104c-3.17-35.06-44.415-37.232-44.415-37.232" transform="translate(251.49)" fill="none" stroke="#a3a3a3" stroke-linecap="round" stroke-width="6"/>
      <path id="Path_9" data-name="Path 9" d="M769.943,832.5c44.815,46.255-28.171,75.9-28.171,75.9" transform="translate(76.836 77.895)" fill="none" stroke="#a3a3a3" stroke-linecap="round" stroke-width="17"/>
      <path id="Path_10" data-name="Path 10" d="M756.327,832.5c-44.815,46.865,28.171,76.9,28.171,76.9" transform="translate(449.662 77.895)" fill="none" stroke="#a3a3a3" stroke-linecap="round" stroke-width="17"/>
      <path id="Path_11" data-name="Path 11" d="M811.3,866.325c102.245-25.972,202.751,0,202.751,0" transform="translate(106.819 66)" fill="none" stroke="#a3a3a3" stroke-linecap="round" stroke-width="10"/>
      <path id="Path_12" data-name="Path 12" d="M854.579,879.784c70.125-16.652,119.465,0,119.465,0" transform="translate(105.144 77)" fill="none" stroke="#a3a3a3" stroke-linecap="round" stroke-width="7"/>
      <line id="Line_15" data-name="Line 15" x2="347" y2="1" transform="translate(853.167 991.5)" fill="none" stroke="#a3a3a3" stroke-linecap="round" stroke-width="7"/>
      <line id="Line_16" data-name="Line 16" x1="137" y2="8" transform="translate(678.5 988.5)" fill="none" stroke="#a3a3a3" stroke-linecap="round" stroke-width="15"/>
      <line id="Line_17" data-name="Line 17" x2="138" y2="3" transform="translate(1234.5 989.5)" fill="none" stroke="#a3a3a3" stroke-linecap="round" stroke-width="15"/>
      <line id="Line_18" data-name="Line 18" y2="38" transform="translate(675.746 994.5)" fill="none" stroke="#a3a3a3" stroke-linecap="round" stroke-width="10"/>
      <line id="Line_19" data-name="Line 19" x1="3" y2="40" transform="translate(1372.201 992.5)" fill="none" stroke="#a3a3a3" stroke-linecap="round" stroke-width="10"/>
      <line id="Line_20" data-name="Line 20" x2="677" transform="translate(685.5 1027.5)" fill="none" stroke="#a3a3a3" stroke-linecap="square" stroke-width="20"/>
      <g transform="matrix(1, 0, 0, 1, 227.1, 35.05)" filter="url(#Rectangle_3)">
        <g id="Rectangle_3-2" data-name="Rectangle 3" transform="translate(71.9 339.95)" fill="#fff" stroke="rgba(112,112,112,0.33)" stroke-width="1">
          <rect width="1436" height="86" rx="43" stroke="none"/>
          <rect x="0.5" y="0.5" width="1435" height="85" rx="42.5" fill="none"/>
        </g>
      </g>
      <g id="Ellipse_1" data-name="Ellipse 1" transform="translate(325 404)" fill="#fff" stroke="#707070" stroke-width="4">
        <circle cx="10" cy="10" r="10" stroke="none"/>
        <circle cx="10" cy="10" r="8" fill="none"/>
      </g>
      <line id="Line_21" data-name="Line 21" x2="3" y2="4" transform="translate(339.5 420.5)" fill="none" stroke="#707070" stroke-width="1"/>
      <line id="Line_22" data-name="Line 22" x1="6" y1="8" transform="translate(342.5 424.5)" fill="none" stroke="#707070" stroke-linecap="square" stroke-width="4"/>
    </g>
    <text id="Skills" transform="translate(788 327)" fill="rgba(66,133,244,0.9)" font-size="200" font-family="Spud-Regular, Spud"><tspan x="0" y="0">S</tspan><tspan y="0" fill="rgba(234,67,53,0.9)">k</tspan><tspan y="0" fill="rgba(251,188,5,0.9)">i</tspan><tspan y="0">l</tspan><tspan y="0" fill="rgba(52,168,83,0.9)">l</tspan><tspan y="0" fill="rgba(234,67,53,0.9)">s</tspan></text>
  </g>
</svg>
