<svg id="Layer_3" enable-background="new 0 0 64 64" height="512" viewBox="0 0 64 64" width="512" fill="white" xmlns="http://www.w3.org/2000/svg"><path d="m62 53h-1v-31c0-1.654-1.346-3-3-3h-22v-3c0-.552-.447-1-1-1h-6c-.553 0-1 .448-1 1v3h-22c-1.654 0-3 1.346-3 3v31h-1c-.553 0-1 .447-1 1v4c0 2.757 2.243 5 5 5h52c2.757 0 5-2.243 5-5v-4c0-.553-.447-1-1-1zm-34-12h-4v-13c0-.552-.447-1-1-1h-6c-.553 0-1 .448-1 1v13h-4v2h40v-2h-4v-13c0-.552-.447-1-1-1h-6c-.553 0-1 .448-1 1v13h-4v-16h19v24h-46v-24h19zm-6 0h-4v-12h4zm24 0h-4v-12h4zm-12-24v24h-4v-24zm-29 5c0-.551.448-1 1-1h22v2h-20c-.553 0-1 .448-1 1v26c0 .553.447 1 1 1h48c.553 0 1-.447 1-1v-26c0-.552-.447-1-1-1h-20v-2h22c.552 0 1 .449 1 1v31h-54zm19 33h16v1c0 .552-.448 1-1 1h-14c-.552 0-1-.448-1-1zm37 3c0 1.654-1.346 3-3 3h-52c-1.654 0-3-1.346-3-3v-3h19v1c0 1.654 1.346 3 3 3h14c1.654 0 3-1.346 3-3v-1h19z"/><path d="m29 13h6c.553 0 1-.448 1-1v-3c0-1.311-.642-2.465-1.619-3.195.383-.504.619-1.125.619-1.805 0-1.654-1.346-3-3-3s-3 1.346-3 3c0 .68.236 1.301.619 1.805-.977.73-1.619 1.884-1.619 3.195v3c0 .552.447 1 1 1zm5-2h-4v-2c0-1.103.897-2 2-2s2 .897 2 2zm-3-7c0-.551.448-1 1-1s1 .449 1 1-.448 1-1 1-1-.449-1-1z"/><path d="m41 17h6c.553 0 1-.448 1-1v-3c0-1.311-.642-2.465-1.619-3.195.383-.504.619-1.125.619-1.805 0-1.654-1.346-3-3-3s-3 1.346-3 3c0 .68.236 1.301.619 1.805-.977.73-1.619 1.884-1.619 3.195v3c0 .552.447 1 1 1zm5-2h-4v-2c0-1.103.897-2 2-2s2 .897 2 2zm-3-7c0-.551.448-1 1-1s1 .449 1 1-.448 1-1 1-1-.449-1-1z"/><path d="m17 18h6c.553 0 1-.448 1-1v-3c0-1.311-.642-2.465-1.619-3.195.383-.504.619-1.125.619-1.805 0-1.654-1.346-3-3-3s-3 1.346-3 3c0 .68.236 1.301.619 1.805-.977.73-1.619 1.884-1.619 3.195v3c0 .552.447 1 1 1zm5-2h-4v-2c0-1.103.897-2 2-2s2 .897 2 2zm-3-7c0-.551.448-1 1-1s1 .449 1 1-.448 1-1 1-1-.449-1-1z"/></svg>